<svg width="161" height="52" viewBox="0 0 161 52" fill="none" xmlns="http://www.w3.org/2000/svg">
<g clip-path="url(#clip0_1_3398)">
<path d="M26.6802 27.0298C26.2922 23.824 24.5945 21.4335 21.6117 20.0252C20.5502 19.5218 19.4173 19.284 18.1727 19.1388C18.8431 18.7744 19.498 18.6045 20.1312 18.3884C22.1828 17.6842 23.8185 16.5137 24.6814 14.4568C25.327 12.9187 25.5039 11.2973 25.4604 9.65116C25.4046 7.6128 24.7745 5.79371 23.2474 4.3545C22.0711 3.24266 20.6495 2.56938 19.1163 2.09994C16.3011 1.23826 13.396 1.04369 10.4753 0.985012C7.09527 0.913978 3.71524 1.08384 0.33521 1.10855C-0.0372455 1.11164 0.00620759 1.30621 0.00620759 1.53784C0.00620759 13.9163 0.00620759 26.2917 0 38.6701C0 39.0191 0.102425 39.087 0.428324 39.084C5.26714 39.0747 10.1091 39.0747 14.9479 39.0778C15.9194 39.0809 16.8784 38.9944 17.8313 38.8214C23.6633 37.7621 27.391 32.8731 26.6802 27.0298ZM4.77984 11.078C4.77984 9.16628 4.78605 7.25763 4.77364 5.34588C4.77053 5.03086 4.8233 4.90733 5.18644 4.91041C7.82777 4.92894 10.4753 4.8888 13.1104 5.12043C14.6375 5.25632 16.1428 5.48486 17.5799 6.05622C19.2901 6.73568 20.364 7.89693 20.5813 9.76235C20.7085 10.8649 20.7892 11.9675 20.5192 13.0577C20.0878 14.8212 18.9114 15.9238 17.254 16.5723C15.9876 17.0665 14.6592 17.2425 13.3122 17.2518C10.5932 17.2703 7.87743 17.2487 5.16161 17.2672C4.81398 17.2703 4.77053 17.1499 4.77364 16.8503C4.78605 14.9262 4.77984 13.0021 4.77984 11.078ZM21.8135 28.6728C21.711 29.5716 21.5031 30.4518 21.1368 31.2857C20.2212 33.3765 18.511 34.4451 16.357 34.9238C15.311 35.1586 14.2464 35.2697 13.1756 35.2728C10.5032 35.2852 7.83087 35.2728 5.15851 35.2914C4.80467 35.2944 4.77053 35.1709 4.77364 34.8744C4.78295 32.694 4.77984 30.5105 4.77984 28.3269C4.77984 26.1434 4.78915 23.9599 4.77053 21.7795C4.77053 21.4335 4.86985 21.3563 5.19886 21.3532C7.53912 21.3347 9.87938 21.1649 12.2196 21.2513C14.1688 21.3255 16.1118 21.4891 17.9617 22.1779C21.2082 23.3854 22.1456 25.6987 21.8135 28.6728Z" fill="white"/>
<path d="M89.5999 10.6054C87.8959 10.6302 86.1888 10.5807 84.4849 10.624C82.1818 10.6796 79.9037 10.485 77.6255 10.1545C75.7011 9.87657 73.755 9.88893 71.8741 10.4757C68.699 11.4609 66.4115 13.3943 65.5083 16.6835C65.0054 18.5273 65.2041 20.3896 65.5827 22.2303C65.8838 23.7066 66.4332 25.084 67.4792 26.2206C68.1558 26.9587 68.9969 27.4312 69.9839 27.703C69.478 28.401 68.91 28.994 68.3513 29.5931C67.5226 30.4826 67.026 31.5111 66.8708 32.7248C66.6908 34.093 66.9515 35.2635 68.1341 36.1159C68.4351 36.3321 68.7021 36.5915 69.0373 36.8726C68.4662 37.0085 67.9851 37.1629 67.5195 37.3544C62.3703 39.4607 61.2902 45.7055 65.4493 49.3653C66.7994 50.5575 68.4041 51.24 70.1671 51.5581C73.5254 52.1665 76.8899 52.1326 80.2513 51.555C82.784 51.1195 85.0963 50.1899 87.0424 48.4697C88.287 47.3733 89.1374 46.0452 89.4975 44.4176C89.7644 43.2101 89.7986 41.9963 89.634 40.7795C89.305 38.3859 88.1039 36.6163 85.8536 35.6002C84.2241 34.8682 82.486 34.6335 80.7231 34.5038C78.8639 34.3679 76.9985 34.4482 75.1362 34.3802C74.0996 34.3432 73.0536 34.3277 72.0573 33.9818C71.0051 33.6205 70.5333 32.7557 70.7971 31.6748C71.0734 30.5413 71.7593 29.6982 72.7339 29.0836C73.187 28.8025 73.6557 28.5493 74.2113 28.8365C74.2858 28.8735 74.3789 28.8797 74.4658 28.8859C76.9737 29.1268 79.3946 28.8025 81.6666 27.6876C83.7865 26.6499 85.4284 25.1551 86.2137 22.8604C86.6016 21.7331 86.5116 20.5687 86.5396 19.4106C86.5799 17.8355 86.2106 16.3716 85.4377 15.0034C85.2732 14.7131 85.1335 14.4104 84.969 14.0892C86.6327 13.9255 88.2125 13.5487 89.8296 13.4715C90.0841 13.4622 90.0531 13.3078 90.0531 13.1534C90.0531 12.4647 90.0313 11.7729 90.0624 11.0842C90.0779 10.7228 90.0034 10.5993 89.5999 10.6054ZM71.0858 38.8183C71.9114 38.5959 72.7525 38.4693 73.6092 38.4662C75.6732 38.4631 77.7372 38.3149 79.8012 38.4662C80.8969 38.5434 81.9832 38.6762 83.023 39.0561C84.6307 39.6491 85.2794 40.5694 85.2794 42.2712C85.2794 42.8456 85.3167 43.4232 85.1863 43.9883C84.9597 44.955 84.3793 45.6901 83.6003 46.28C82.275 47.2837 80.7262 47.7717 79.1215 48.1021C77.8024 48.3739 76.4678 48.5006 75.1207 48.4882C73.3671 48.4789 71.6289 48.3461 69.9808 47.6821C68.5779 47.1138 67.4885 46.1935 67.3022 44.6307C66.9795 41.9098 68.0658 39.6337 71.0858 38.8183ZM81.3811 23.0735C80.7293 24.5559 79.435 25.1489 77.9793 25.5195C77.2809 25.6986 76.5609 25.7604 75.8377 25.7728C74.6738 25.745 73.544 25.5627 72.4887 25.0439C70.8406 24.2347 69.8939 22.9159 69.7294 21.1092C69.6053 19.7657 69.6953 18.4192 70.0212 17.0942C70.4557 15.3246 71.5575 14.2189 73.3298 13.7834C74.801 13.419 76.3033 13.3171 77.7931 13.5889C80.124 14.0089 81.4866 15.4728 81.9739 17.7366C82.3681 19.5712 82.1384 21.3532 81.3811 23.0735Z" fill="white"/>
<path d="M117.942 18.9721C117.526 17.4649 117.072 15.9639 116.175 14.6544C113.711 11.0657 109.049 9.25276 104.595 10.1639C99.8681 11.1305 96.6991 13.941 95.1286 18.4285C93.676 22.5763 93.9088 26.7982 95.0883 30.9676C96.0753 34.4544 98.1921 37.0703 101.625 38.4508C105.368 39.958 109.232 40.0352 113.149 39.2075C114.565 38.9079 115.853 38.2285 117.246 37.864C117.436 37.8115 117.398 37.6818 117.398 37.5614C117.401 36.4835 117.389 35.4056 117.405 34.3309C117.408 34.0653 117.321 34.0282 117.082 34.056C116.52 34.1178 115.977 34.2537 115.449 34.4575C114.794 34.7138 114.136 34.9702 113.444 35.1122C111.253 35.5693 109.027 35.5786 106.802 35.6095C104.282 35.6404 102.32 34.5779 100.892 32.5427C99.5608 30.6433 99.0549 28.4906 98.9525 26.2145C98.937 25.8778 99.0177 25.7883 99.3653 25.7883C102.398 25.8037 105.433 25.7975 108.466 25.7975H117.522C118.118 25.7975 118.348 25.6307 118.544 25.0686C118.627 24.8247 118.677 24.5745 118.693 24.312C118.804 22.4805 118.423 20.717 117.942 18.9721ZM113.528 21.9215C113.323 22.1624 112.851 21.9957 112.494 21.9987C110.415 22.008 108.335 22.0018 106.256 22.0018C103.959 22.0018 101.662 21.9926 99.3653 22.0111C99.0146 22.0142 98.9432 21.9215 98.9742 21.5849C99.2287 18.7559 100.368 16.4179 102.817 14.849C105.821 12.928 110.076 13.6044 112.119 16.2913C113.162 17.6564 113.568 19.2315 113.578 20.924C113.581 21.2668 113.702 21.7208 113.528 21.9215Z" fill="white"/>
<path d="M48.0435 23.481C48.0435 20.479 48.0373 17.4801 48.0497 14.4782C48.0497 14.1662 47.9908 14.0643 47.6524 14.0736C46.5258 14.0983 45.3991 14.0736 44.2724 14.089C43.9993 14.0921 43.8875 14.0334 43.9124 13.74C43.9403 13.3972 43.9372 13.0513 43.9124 12.7085C43.8689 12.0754 44.1669 11.6584 44.7194 11.4175C45.2315 11.1952 45.7591 10.9913 46.293 10.8246C47.46 10.457 48.1863 9.74361 48.4812 8.5175C48.8257 7.08446 49.2819 5.67923 49.5861 4.23384C49.6265 4.04853 49.6823 3.96206 49.8872 3.96514C50.6662 3.97441 51.4484 3.98059 52.2274 3.96514C52.5658 3.95588 52.5068 4.1628 52.5068 4.35738C52.5068 6.29691 52.5161 8.23336 52.4975 10.1729C52.4944 10.5219 52.5751 10.6269 52.9444 10.6269C55.4275 10.6084 57.9136 10.6238 60.3997 10.6115C60.7039 10.6115 60.7846 10.6825 60.7784 10.9852C60.7567 11.9024 60.7598 12.8228 60.7784 13.7431C60.7846 14.0273 60.7039 14.0952 60.4215 14.0952C57.9229 14.0829 55.4243 14.0952 52.9227 14.0798C52.5813 14.0798 52.4975 14.1662 52.4975 14.5029C52.5099 20.0312 52.5068 25.5595 52.5037 31.0878C52.5037 31.8939 52.5658 32.6907 52.8482 33.4566C53.4534 35.1028 54.7508 35.7452 56.3927 35.8841C57.6684 35.9891 58.9316 35.8224 60.1918 35.6679C61.095 35.5568 61.0919 35.5475 61.0919 36.4555C61.0919 36.9002 61.0608 37.3481 61.1012 37.7897C61.1539 38.3641 60.8746 38.7162 60.4121 38.9726C59.7479 39.3432 59.0216 39.5223 58.2767 39.6335C56.25 39.93 54.2666 39.7632 52.3764 38.9633C49.4464 37.7218 48.0963 35.4116 48.0497 32.3201C48.0063 29.3768 48.0404 26.4335 48.0404 23.4902H48.0373L48.0435 23.481Z" fill="white"/>
<path d="M147.951 23.605C147.951 20.5753 147.945 17.5455 147.961 14.5158C147.961 14.1482 147.858 14.0679 147.504 14.0741C146.393 14.0988 145.279 14.0741 144.168 14.0896C143.885 14.0926 143.792 14.0216 143.811 13.7375C143.836 13.3669 143.833 12.9901 143.811 12.6195C143.783 12.0913 144.034 11.7454 144.481 11.5138C144.928 11.2791 145.412 11.1308 145.894 10.9857C147.166 10.5965 148.02 9.82442 148.457 8.53654C148.83 7.44324 149.09 6.33758 149.28 5.20412C149.413 4.41039 149.637 4.20656 150.45 4.0614C151.024 3.95948 151.601 4.00581 152.179 3.97183C152.486 3.9533 152.399 4.16641 152.402 4.31774C152.405 6.28507 152.411 8.25241 152.396 10.2197C152.396 10.5348 152.461 10.6274 152.796 10.6243C155.283 10.6089 157.766 10.6243 160.252 10.6058C160.593 10.6058 160.683 10.6923 160.674 11.0289C160.649 11.9338 160.652 12.8387 160.674 13.7436C160.68 14.037 160.584 14.0926 160.311 14.0896C157.812 14.0803 155.31 14.0896 152.812 14.0741C152.458 14.0741 152.396 14.1822 152.399 14.5034C152.408 19.831 152.408 25.1585 152.405 30.4861C152.405 31.2798 152.467 32.0612 152.672 32.8302C153.166 34.6987 154.482 35.7549 156.434 35.8816C157.669 35.9619 158.886 35.8105 160.103 35.6592C160.997 35.548 160.997 35.5387 160.997 36.4004C160.997 36.8884 160.972 37.3794 161.003 37.8643C161.037 38.3616 160.804 38.6797 160.407 38.9237C159.783 39.3066 159.091 39.4981 158.374 39.6124C156.245 39.9521 154.165 39.7823 152.191 38.8804C149.537 37.6698 148.131 35.5326 148.017 32.6881C147.892 29.6645 147.989 26.6286 147.989 23.5988C147.976 23.5988 147.964 23.5988 147.954 23.5988L147.951 23.605Z" fill="white"/>
<path d="M129.795 15.6524C130.319 15.3466 130.623 14.9297 130.937 14.5251C131.902 13.2897 133.051 12.252 134.32 11.3378C135.962 10.1549 137.787 9.78433 139.776 10.0685C140.434 10.1611 141.096 10.2538 141.757 10.2661C142.182 10.2723 142.228 10.4236 142.213 10.7881C142.179 11.5664 142.045 12.3292 141.974 13.1013C141.943 13.4441 141.909 13.7869 141.912 14.1328C141.912 14.3676 141.831 14.4263 141.611 14.417C140.931 14.3923 140.264 14.2595 139.593 14.173C136.282 13.7499 133.811 15.0934 132.045 17.8174C130.729 19.8495 130.158 22.1226 130.139 24.5162C130.102 29.226 130.121 33.9359 130.133 38.6489C130.133 39.004 130.055 39.0998 129.689 39.0905C128.46 39.0658 127.234 39.072 126.005 39.0905C125.735 39.0936 125.673 39.0195 125.673 38.757C125.679 29.4947 125.679 20.2294 125.673 10.9672C125.673 10.6831 125.75 10.6089 126.03 10.6151C127.07 10.6306 128.109 10.6213 129.149 10.6244C129.311 10.6244 129.5 10.5626 129.5 10.8529C129.494 12.4342 129.841 13.9939 129.785 15.6585L129.795 15.6524Z" fill="white"/>
<path d="M38.503 24.8468C38.503 29.427 38.4968 34.0071 38.5154 38.5873C38.5154 39.0196 38.3944 39.0969 37.994 39.0845C36.8394 39.0567 35.6816 39.0598 34.527 39.0845C34.1608 39.0938 34.0522 39.0196 34.0522 38.6274C34.0677 31.1596 34.0615 23.6948 34.0615 16.227C34.0615 14.5036 34.077 12.7803 34.049 11.0569C34.0428 10.6585 34.167 10.5968 34.527 10.6029C35.6972 10.6246 36.8673 10.6276 38.0374 10.6029C38.4037 10.5968 38.5123 10.6678 38.5123 11.06C38.4968 15.6556 38.503 20.2512 38.503 24.8437V24.8468Z" fill="white"/>
<path d="M33.7132 2.81708C33.6821 0.303097 36.1279 -0.524604 37.6705 0.321627C38.7568 0.917695 39.4055 2.45574 39.0827 3.65405C38.7817 4.76589 37.6333 5.75727 36.4849 5.89625C35.0944 6.06303 34.1291 5.30636 33.8342 3.79612C33.7722 3.47492 33.7535 3.14446 33.7163 2.81708H33.7132Z" fill="white"/>
</g>
<defs>
<clipPath id="clip0_1_3398">
<rect width="161" height="52" fill="white"/>
</clipPath>
</defs>
</svg>
