<svg width="186" height="47" viewBox="0 0 186 47" fill="none" xmlns="http://www.w3.org/2000/svg">
<g clip-path="url(#clip0_1_3821)">
<path d="M166.292 33.477C166.24 29.6733 163.594 26.9964 159.826 26.9203C158.137 26.8847 156.449 26.9132 154.76 26.9132V26.9227C152.876 26.9227 150.99 26.8609 149.108 26.9346C145.63 27.0725 143.01 29.8349 142.977 33.3296C142.955 35.5857 142.948 37.8418 142.962 40.0979C142.986 44.2701 145.568 46.9066 149.738 46.9565C153.152 46.997 156.569 46.9922 159.984 46.9494C163.5 46.9066 166.243 44.1299 166.29 40.5995C166.32 38.2269 166.325 35.8496 166.292 33.477ZM160.635 40.8135C160.625 41.6741 160.121 42.0949 159.269 42.0949C157.699 42.0925 156.128 42.0949 154.558 42.0949V42.0996C153.065 42.0996 151.572 42.0901 150.082 42.1044C149.106 42.1139 148.622 41.6479 148.622 40.6685C148.622 38.1746 148.622 35.6832 148.617 33.1894C148.617 32.2598 149.084 31.801 149.997 31.7986C153.098 31.7939 156.199 31.7939 159.302 31.7867C160.177 31.7867 160.637 32.2646 160.647 33.0966C160.67 35.6689 160.661 38.2412 160.635 40.8135Z" fill="#BA83FB"/>
<path d="M71.1299 33.1913C71.078 29.8463 68.5666 27.0815 65.2368 26.9674C61.433 26.8366 57.6198 26.8414 53.8161 26.9674C50.4486 27.0767 47.9324 29.8582 47.8899 33.2721C47.8616 35.6471 47.8805 38.022 47.8899 40.397C47.8994 44.1888 50.517 46.8705 54.3137 46.9513C55.9998 46.987 57.6882 46.9561 59.3767 46.9561V46.9442C61.2609 46.9442 63.1474 47.0012 65.0293 46.9323C68.5288 46.8039 71.1394 44.0771 71.1677 40.5515C71.1889 38.1005 71.1677 35.6447 71.1323 33.1936L71.1299 33.1913ZM65.5622 40.6704C65.5552 41.6332 65.0434 42.111 64.0813 42.1063C62.5909 42.0992 61.1005 42.1039 59.6102 42.1039V42.1087C58.082 42.1087 56.5516 42.0849 55.0235 42.1182C54.0472 42.1396 53.519 41.6998 53.5095 40.7346C53.4812 38.2074 53.4765 35.678 53.493 33.1485C53.5001 32.257 53.9529 31.7791 54.8938 31.7839C57.9523 31.7981 61.0109 31.7981 64.0695 31.7839C65.0387 31.7791 65.5504 32.2308 65.5575 33.2008C65.5717 35.6898 65.574 38.1813 65.5622 40.6704Z" fill="#BA83FB"/>
<path d="M92.9017 4.87216C90.5836 4.87216 88.2655 4.89117 85.9474 4.86265C84.9617 4.85076 84.4547 5.29294 84.4594 6.26052C84.4641 7.19244 84.9947 7.5633 85.9097 7.56093C88.7395 7.55379 91.567 7.54904 94.3945 7.61323C97.4129 7.68217 99.8725 9.51748 100.627 12.1611C101.693 15.903 98.9764 19.8161 94.9038 19.9944C90.4728 20.1894 86.0276 20.0396 81.5871 20.0586C81.0093 20.0586 80.7594 19.7329 80.5401 19.2765C80.0755 18.316 79.5803 17.3698 79.1157 16.4094C78.5993 15.3396 78.6653 15.2183 79.8845 15.2112C83.8911 15.1946 87.9 15.2017 91.9066 15.1969C92.5362 15.1969 93.1635 15.1732 93.7931 15.1898C94.7387 15.216 95.1797 14.7072 95.1868 13.8157C95.1915 12.9195 94.76 12.444 93.8025 12.4511C90.935 12.4725 88.0651 12.501 85.1975 12.4369C81.1744 12.3465 78.3587 9.04914 78.9365 5.19785C79.3445 2.48531 81.9102 0.115099 84.7754 0.0556657C89.1357 -0.0346732 93.496 0.0342696 97.8586 0.0152509C98.493 0.0128736 98.875 0.255362 99.1368 0.833056C99.5778 1.80301 100.04 2.76821 100.549 3.7025C101.016 4.55597 100.872 4.8888 99.856 4.87216C97.5379 4.83412 95.2198 4.86027 92.9017 4.86027V4.86502V4.87216Z" fill="#BA83FB"/>
<path d="M115.88 33.2575C115.847 29.8841 113.274 27.055 109.93 26.9481C106.206 26.8292 102.471 26.8244 98.7449 26.9504C95.1581 27.0741 92.7056 29.7034 92.6184 33.3193C92.5594 35.6919 92.5759 38.0669 92.6089 40.4418C92.6584 44.2171 95.21 46.8202 98.9855 46.9344C100.752 46.989 102.518 46.9439 104.284 46.9439V46.951C106.131 46.951 107.977 47.008 109.819 46.9367C113.229 46.8036 115.861 44.0364 115.884 40.6178C115.901 38.1643 115.906 35.7109 115.88 33.2575ZM110.291 40.6938C110.284 41.6543 109.753 42.1179 108.784 42.106C107.253 42.087 105.72 42.0988 104.19 42.1012C102.735 42.1036 101.282 42.0679 99.8297 42.1155C98.7143 42.1511 98.2332 41.6091 98.2285 40.556C98.2214 38.1002 98.2285 35.6467 98.2426 33.191C98.2497 32.2995 98.6742 31.7883 99.6151 31.7883C102.718 31.7931 105.822 31.7859 108.925 31.7836C109.791 31.7836 110.265 32.2519 110.276 33.0935C110.307 35.6253 110.31 38.1596 110.291 40.6938Z" fill="#BA83FB"/>
<path d="M31.6139 26.92C34.0876 26.92 36.5637 26.8653 39.0351 26.9319C43.2044 27.046 46.1686 30.8616 45.0957 34.6986C44.5132 36.7836 43.1313 38.2076 41.1339 38.9351C40.2354 39.2607 40.2661 39.5936 40.7637 40.2497C42.2187 42.1635 43.6477 44.101 45.0815 46.0314C45.2395 46.2454 45.5201 46.4522 45.3975 46.747C45.2654 47.0608 44.9164 46.9491 44.6641 46.9514C43.0936 46.9657 41.523 46.9396 39.9524 46.9681C39.3346 46.98 38.9408 46.7327 38.5823 46.2406C37.1627 44.2983 35.6888 42.3965 34.281 40.447C33.7551 39.7196 33.1868 39.3535 32.2435 39.3654C28.6166 39.4058 28.7746 39.1347 28.8006 42.8672C28.8076 43.8966 28.7746 44.9259 28.8006 45.9553C28.8194 46.6353 28.6072 46.9871 27.8667 46.9681C26.6122 46.9372 25.3529 46.9491 24.0983 46.9681C23.4781 46.98 23.1574 46.785 23.1668 46.0908C23.1951 44.1129 23.0867 42.1278 23.2093 40.1546C23.3979 37.0855 26.2396 34.5869 29.4868 34.5417C32.3143 34.5037 35.1417 34.5298 37.9692 34.5227C39.2285 34.5203 39.6836 34.1352 39.6742 33.1201C39.6647 31.979 38.9526 31.7816 38.0164 31.784C34.1678 31.7935 30.3192 31.7579 26.4707 31.7935C25.6146 31.8007 25.0888 31.5653 24.7468 30.7404C24.3412 29.7561 23.8271 28.8171 23.3366 27.8709C22.9593 27.1458 23.1645 26.8915 23.9568 26.8986C26.5084 26.9224 29.0623 26.9081 31.6139 26.9081V26.9224V26.92Z" fill="#BA83FB"/>
<path d="M155.517 4.864C153.593 4.864 151.668 4.8331 149.744 4.87826C148.978 4.89728 148.494 4.66668 148.181 3.93684C147.758 2.95737 147.282 1.99931 146.773 1.06501C146.322 0.237698 146.652 0.0237374 147.435 0.0284921C148.692 0.0356241 149.949 0.014228 151.206 0.0189827C155.055 0.0284921 158.906 -0.0356961 162.749 0.0807936C165.855 0.175887 168.305 2.54134 168.664 5.52015C168.987 8.20178 167.511 10.7099 164.91 11.8985C164.007 12.3106 163.862 12.9264 164.476 13.7457C165.799 15.5145 167.119 17.2856 168.437 19.0591C168.619 19.304 168.959 19.5488 168.782 19.8721C168.614 20.1788 168.213 20.0528 167.916 20.0552C166.423 20.0671 164.931 20.029 163.44 20.0695C162.782 20.0861 162.353 19.8579 161.964 19.3277C160.57 17.4164 159.099 15.5597 157.736 13.6269C157.156 12.8043 156.533 12.4406 155.503 12.4548C152.154 12.5024 152.156 12.462 152.163 15.8616C152.163 16.9314 152.142 17.9988 152.159 19.0686C152.168 19.7414 151.947 20.098 151.208 20.0742C149.954 20.0362 148.695 20.0433 147.44 20.06C146.843 20.0671 146.589 19.8103 146.593 19.2112C146.608 17.2333 146.504 15.2458 146.629 13.275C146.822 10.2415 149.478 7.76911 152.642 7.66688C155.545 7.57417 158.453 7.63598 161.36 7.62171C161.823 7.62171 162.316 7.70968 162.679 7.28889C163.072 6.83244 163.188 6.29991 163.009 5.73886C162.82 5.14928 162.396 4.87113 161.757 4.87589C159.674 4.89253 157.594 4.88302 155.512 4.88302V4.864H155.517Z" fill="#BA83FB"/>
<path d="M53.2252 7.68996C53.2252 5.55273 53.2629 3.41313 53.2063 1.27827C53.1803 0.27266 53.5695 -0.0459039 54.5151 0.0063976C55.5338 0.0658311 56.5596 0.0682084 57.576 0.0063976C58.5523 -0.0554132 58.8801 0.327338 58.8707 1.29967C58.8353 5.13907 58.8589 8.97848 58.8612 12.8203C58.8612 15.1049 58.9815 15.2261 61.2642 15.2285C63.6602 15.2309 66.0561 15.2404 68.452 15.2285C69.8032 15.2214 70.1782 14.8957 70.1947 13.581C70.2301 11.0087 70.1876 8.43407 70.2159 5.86178C70.2254 5.063 69.8622 4.7373 69.1453 4.88232C67.1715 5.28171 66.2164 4.33078 65.4642 2.56917C64.3535 -0.0363944 64.2332 0.0135296 67.0725 0.0111523C69.5863 0.0111523 72.1001 0.0491897 74.6116 0.0063976C75.5313 -0.00786643 75.8544 0.327338 75.8473 1.24261C75.8119 5.3982 75.8779 9.55617 75.7907 13.7118C75.7129 17.4133 72.942 20.0402 69.2444 20.0616C66.141 20.0783 63.04 20.083 59.9366 20.0545C55.8593 20.0188 53.2558 17.3729 53.2275 13.272C53.2157 11.4105 53.2275 9.55142 53.2228 7.68996H53.2252Z" fill="#BA83FB"/>
<path d="M24.6985 20.065C22.4983 20.065 20.2981 20.0745 18.0979 20.065C13.9215 20.0436 11.3016 17.4333 11.278 13.2634C11.2662 10.9265 11.2568 8.58957 11.2945 6.25502C11.3511 2.97667 13.8767 0.192807 17.1287 0.0905811C21.4064 -0.0449273 25.6913 0.040657 29.9714 0.0168836C30.5043 0.0145062 30.8533 0.207071 31.0892 0.696803C31.6032 1.76423 32.1291 2.82928 32.6974 3.86817C33.1597 4.71213 32.8036 4.86903 32.0254 4.86666C27.7429 4.85477 23.4628 4.8619 19.1803 4.86666C17.0556 4.86666 16.9377 4.98552 16.9306 7.16554C16.9235 9.22432 16.9117 11.2831 16.9353 13.3419C16.9518 14.968 17.2018 15.2128 18.7888 15.2176C22.4039 15.2295 26.0167 15.2485 29.6318 15.2128C30.4548 15.2033 30.9359 15.4767 31.2684 16.2303C31.6811 17.1694 32.1692 18.0775 32.6621 18.9762C33.0936 19.7654 32.9592 20.084 32.0065 20.0697C29.5705 20.0317 27.1345 20.0579 24.7008 20.0579V20.0626L24.6985 20.065Z" fill="#BA83FB"/>
<path d="M132.033 46.9461C129.757 46.9461 127.479 46.9866 125.204 46.9366C121.471 46.8534 118.893 44.1932 118.865 40.4394C118.846 38.0644 118.851 35.6918 118.865 33.3169C118.886 29.9101 121.242 27.1429 124.631 26.9955C128.942 26.8053 133.264 26.9242 137.582 26.8957C138.141 26.8933 138.433 27.1928 138.655 27.654C139.117 28.6145 139.603 29.5654 140.067 30.5235C140.643 31.7145 140.626 31.7573 139.339 31.7621C135.688 31.7763 132.038 31.774 128.387 31.7787C127.562 31.7787 126.739 31.8096 125.914 31.7835C124.98 31.7549 124.496 32.2185 124.487 33.1219C124.466 35.6538 124.47 38.1856 124.494 40.7175C124.503 41.7564 125.098 42.1368 126.107 42.1297C129.757 42.1035 133.408 42.1463 137.058 42.113C137.907 42.1059 138.454 42.3341 138.799 43.159C139.164 44.0315 139.674 44.8398 140.082 45.6933C140.645 46.8653 140.6 46.9438 139.334 46.9533C136.9 46.9675 134.467 46.958 132.033 46.958V46.9438V46.9461Z" fill="#BA83FB"/>
<path d="M8.30498 26.9143C10.7386 26.9143 13.177 26.8334 15.6083 26.9309C20.3483 27.1235 23.2701 31.9732 21.0675 35.9767C19.8955 38.1068 18.0113 39.255 15.5918 39.3192C12.8445 39.3953 10.0948 39.343 7.34755 39.362C5.93971 39.3715 5.61428 39.683 5.58598 41.0927C5.55532 42.676 5.54589 44.2593 5.57655 45.8426C5.59306 46.6272 5.35959 47.0099 4.51065 46.9695C3.33391 46.9148 2.15481 46.9267 0.978074 46.9576C0.268259 46.9766 -0.0052914 46.6795 0.00414136 45.9782C0.0253651 44.2379 -0.012366 42.4954 0.0182905 40.7551C0.0796035 37.3009 2.69955 34.6216 6.15902 34.5408C9.02422 34.4742 11.8918 34.5289 14.757 34.5027C15.8064 34.4932 16.2992 33.8228 16.1153 32.7887C15.962 31.9352 15.3701 31.7807 14.6367 31.7807C10.9061 31.7854 7.1754 31.7522 3.4471 31.795C2.46374 31.8068 1.82702 31.5786 1.48037 30.5635C1.18795 29.71 0.730464 28.9089 0.289483 28.1148C-0.198663 27.24 -0.0925444 26.8691 1.00637 26.8905C3.44003 26.9404 5.87368 26.9071 8.30969 26.9071C8.30969 26.9095 8.30969 26.9119 8.30969 26.9166L8.30498 26.9143Z" fill="#BA83FB"/>
<path d="M133.235 20.0577C129.938 20.0577 126.639 20.0006 123.344 20.0886C122.109 20.1219 121.793 19.6963 121.859 18.5362C121.948 16.9576 121.852 15.372 121.894 13.791C121.979 10.5769 124.502 7.79775 127.669 7.70979C132.336 7.57904 137.01 7.65749 141.679 7.62896C142.283 7.62421 142.611 7.91424 142.851 8.423C143.323 9.42386 143.785 10.4295 144.309 11.4018C144.79 12.2933 144.431 12.474 143.592 12.4716C138.802 12.4597 134.015 12.4668 129.226 12.4811C127.882 12.4859 127.618 12.7949 127.53 14.0264C127.464 14.9821 127.846 15.246 128.747 15.2388C132.829 15.2079 136.911 15.2721 140.993 15.2103C142.097 15.1937 142.75 15.517 143.137 16.5678C143.434 17.3784 143.858 18.1487 144.278 18.9071C144.733 19.7344 144.648 20.0815 143.597 20.0696C140.144 20.0268 136.689 20.0529 133.235 20.0553V20.0577Z" fill="#BA83FB"/>
<path d="M80.6972 26.9053C83.1309 26.9053 85.5645 26.9267 87.9982 26.8911C88.7245 26.8792 89.156 27.1121 89.4555 27.7944C89.8824 28.7692 90.387 29.713 90.8822 30.6568C91.2878 31.4318 91.1794 31.8145 90.2125 31.7908C88.8 31.7551 87.385 31.8264 85.9725 31.7741C85.0457 31.7384 84.7415 32.0927 84.7509 33.0151C84.784 37.0898 84.7627 41.167 84.7604 45.2441C84.7604 46.3932 84.1716 46.9677 82.9941 46.9677C82.2489 46.9677 81.4966 46.9083 80.7585 46.9819C79.6054 47.0984 79.1903 46.7204 79.2139 45.4795C79.2941 41.4451 79.2446 37.406 79.2469 33.3717C79.2469 31.7884 79.2233 31.6053 77.7023 31.8193C75.2639 32.1616 73.9009 31.2772 73.0331 28.9475C72.2313 26.7912 71.7314 26.9077 74.3348 26.9006C76.4548 26.8958 78.5748 26.9006 80.6949 26.9006V26.9101L80.6972 26.9053Z" fill="#BA83FB"/>
<path d="M110.214 0.0259222C112.65 0.0259222 115.086 0.0473182 117.52 0.0140355C118.333 0.00214877 118.829 0.280297 119.147 1.05769C119.536 2.00625 120.022 2.91677 120.505 3.82253C120.897 4.55951 120.798 4.89471 119.89 4.87094C118.477 4.83528 117.06 4.91136 115.647 4.84954C114.685 4.80675 114.35 5.12769 114.36 6.1238C114.402 10.2818 114.339 14.4397 114.393 18.5977C114.407 19.7008 114.157 20.2095 112.969 20.0788C112.075 19.9813 111.157 19.9884 110.261 20.0788C109.082 20.1976 108.804 19.6889 108.818 18.5834C108.872 14.5443 108.844 10.5052 108.842 6.46614C108.842 4.86619 108.809 4.68551 107.321 4.90185C104.828 5.26558 103.46 4.33604 102.595 1.9587C101.812 -0.190416 101.55 0.0354315 103.849 0.0211675C105.972 0.00690345 108.092 0.0187901 110.214 0.0187901V0.0235448V0.0259222Z" fill="#BA83FB"/>
<path d="M169.13 36.92C169.13 34.0315 169.167 31.1407 169.108 28.2522C169.087 27.1966 169.462 26.8424 170.474 26.9066C171.49 26.9708 172.518 26.9613 173.535 26.9019C174.513 26.8448 174.827 27.2394 174.817 28.2094C174.777 32.2865 174.792 36.3637 174.794 40.4408C174.794 42.1359 174.806 42.1382 176.499 42.1359C179.249 42.1335 181.996 42.124 184.745 42.1263C186.182 42.1263 186.238 42.2214 185.649 43.4862C184.565 45.8191 182.754 46.9809 180.213 46.9714C177.11 46.9618 174.009 46.9666 170.905 46.9595C169.139 46.9571 169.134 46.9523 169.132 45.1147C169.127 42.3831 169.132 39.6515 169.132 36.92H169.13Z" fill="#BA83FB"/>
<path d="M35.3435 9.99078C35.3435 7.0619 35.3695 4.13302 35.3294 1.20414C35.3176 0.329276 35.6006 -0.00592855 36.4778 0.0344862C37.6145 0.089165 38.7558 0.0915424 39.8925 0.0368636C40.7863 -0.00592855 41.0268 0.367314 41.0174 1.22316C40.982 5.41916 41.0315 9.61279 40.9773 13.8088C40.9631 14.8715 41.2461 15.2661 42.3497 15.2423C45.2928 15.1805 48.2381 15.2186 51.1835 15.2376C52.4027 15.2447 52.4357 15.3255 51.9146 16.4286C50.7701 18.8472 48.8756 20.0564 46.2313 20.0564C43.0902 20.0564 39.9467 19.997 36.808 20.0897C35.5699 20.1254 35.287 19.6975 35.3176 18.5349C35.3907 15.6869 35.3412 12.8365 35.3435 9.98603V9.99078Z" fill="#BA83FB"/>
<path d="M134.27 4.85899C131.211 4.85899 128.15 4.83759 125.091 4.87325C124.325 4.88276 123.851 4.65454 123.537 3.92945C123.099 2.9167 122.587 1.93486 122.078 0.953019C121.736 0.296873 121.889 0.0163471 122.632 0.0234791C124.162 0.0377432 125.69 0.0258565 127.221 0.0234791C131.888 0.0234791 136.555 0.0424978 141.224 0.00208307C142.139 -0.00504895 142.676 0.280232 143.021 1.14558C143.384 2.06086 143.853 2.93572 144.313 3.80583C144.709 4.55469 144.57 4.86612 143.683 4.85899C140.547 4.83521 137.408 4.84948 134.27 4.84948V4.85661V4.85899Z" fill="#BA83FB"/>
</g>
<defs>
<clipPath id="clip0_1_3821">
<rect width="186" height="47" fill="white"/>
</clipPath>
</defs>
</svg>
