<svg width="158" height="53" viewBox="0 0 158 53" fill="none" xmlns="http://www.w3.org/2000/svg">
<path d="M33.6789 34.3914C33.0573 34.1731 33.244 33.7536 33.7035 33.4004C34.2662 32.9662 40.5073 32.8043 41.0627 33.2458C41.8318 34.3301 42.4682 35.4928 42.9694 36.734C45.8001 33.7683 47.3702 32.4731 51.6088 33.1404L53.9529 32.9907L54.319 33.4102C54.2748 33.7095 54.3854 34.1265 54.319 34.3914C53.835 36.3464 52.5867 39.474 51.8619 41.5051C51.685 43.3841 50.7832 45.6998 49.9453 47.4022C50.0534 48.4987 49.4342 49.5559 48.6676 50.336C48.5693 51.3564 47.1466 51.3343 46.3333 51.3319C45.0973 51.327 42.8539 51.2191 41.6524 51.0841C41.0971 51.0228 40.7998 51.0007 40.8047 50.336C41.1806 49.632 43.2889 44.775 43.0137 44.4487L39.9422 46.8944L38.5932 43.7104C38.9716 43.5411 39.3795 43.8674 39.8218 44.6916C40.844 43.9778 41.9718 43.1658 43.053 42.3539L43.999 42.2386C44.7287 41.6351 45.2251 41.3383 44.7361 42.4839C45.3332 42.8028 45.2448 43.9238 44.4904 43.9557C45.1416 44.3948 44.5027 45.9181 43.7533 45.9181C44.397 46.4651 43.7213 47.5052 43.166 47.856L42.7704 48.6164C42.9743 48.8568 43.1316 49.1046 42.9866 49.3744C43.1758 49.6638 47.1908 49.9337 47.439 49.107C46.9156 48.5624 47.67 46.887 48.4219 46.8993C48.0189 46.0039 48.4292 44.3089 49.4047 43.9557L49.046 43.524C50.2524 40.7202 51.2844 37.8575 52.1444 34.936L52.6015 34.6342C50.8716 34.4061 49.1516 34.4061 47.4414 34.6342C47.5299 34.801 47.6528 35.0414 47.5569 35.1592C46.8075 36.0889 43.1414 39.5722 42.0996 39.1968C41.1094 38.0022 40.2469 36.6604 39.5147 35.169C39.3083 35.0463 34.9763 34.8109 34.9689 35.8558L34.4185 35.8607L34.1581 36.1772C33.5167 37.2344 33.1113 37.4577 32.9442 36.8419C32.5191 35.9392 32.7648 35.1199 33.6814 34.3889L33.6789 34.3914Z" fill="white"/>
<path d="M34.4158 35.8646L34.5706 36.7771L32.4353 43.54L31.4672 44.9407C32.02 45.6349 31.3861 46.5769 30.73 46.9031C31.4451 47.4575 30.8111 48.0487 30.2386 48.3749C30.5728 48.6006 30.6047 48.8214 30.2951 49.0421C31.821 49.1942 33.4403 49.2188 34.9072 48.8655C34.5386 48.1787 34.5042 47.5115 35.3986 47.3937C35.1873 46.5769 35.4379 45.9048 36.1358 45.4313C35.6591 44.7249 36.9515 40.8736 37.5806 40.7485C38.5512 40.5547 40.5906 43.7829 39.8191 44.6954C39.0278 44.3765 39.1114 44.0405 38.5905 43.7142C38.4676 43.6382 38.3202 43.5916 38.2219 43.4763C37.7649 43.5499 36.4699 48.5638 36.1333 49.3561C36.8582 50.8917 34.3592 52.1992 33.4304 50.8279C31.6072 50.904 29.8061 50.823 28.0247 50.5826C27.9977 50.5557 27.8306 50.5974 27.8281 50.4723C28.1746 49.859 28.2458 48.9588 28.5161 48.3749C28.381 47.46 28.5432 46.5818 29.295 46.0151C29.9118 43.778 30.7128 41.2538 31.6564 39.0829C31.7424 38.8842 31.9561 38.7395 32.2068 38.6119C32.0028 37.876 32.3493 37.3168 32.9366 36.8458C33.8776 36.9856 33.2191 35.5261 34.4109 35.8646H34.4158Z" fill="white"/>
<path d="M47.4393 34.6369C49.1519 34.4088 50.8719 34.4088 52.5993 34.6369C53.0441 35.0834 49.835 42.8177 49.405 43.9584H48.83C47.9553 44.7801 47.2108 44.8537 46.5965 44.1791C45.8839 44.6428 44.3507 45.1579 44.4907 43.9584C44.5915 43.6566 44.5423 43.0875 44.7364 42.4866C44.8912 41.785 44.4539 41.8684 43.9993 42.2413C43.0484 42.9992 41.9893 43.7523 40.9942 44.4612C40.5224 44.7973 41.0507 45.1898 39.8221 44.6943C39.4683 43.5929 38.9375 42.4449 38.1734 41.5716C38.0677 41.4514 37.9964 40.8896 37.6131 41.2601C37.4534 41.4146 36.3673 44.8267 36.1364 45.4302C35.726 45.2045 35.3648 45.1186 35.0478 45.1701C34.3254 46.9829 33.2345 46.0532 32.2123 45.1481C32.576 44.3999 32.5219 44.3386 32.0526 44.969L31.4678 44.9396C32.4531 42.0671 33.2197 38.6157 34.4164 35.8634C35.3009 33.8299 37.7802 34.8577 39.6575 34.6786C40.5838 35.1226 41.5716 38.807 42.3505 38.7702C42.6356 38.7555 43.1245 38.4857 43.385 38.3189C44.1467 37.8356 47.1788 34.7326 47.4368 34.6394L47.4393 34.6369Z" fill="white"/>
<path d="M44.4901 43.9575C45.296 44.7081 46.6991 43.4595 46.8268 43.4718C47.0431 43.4938 47.1143 44.1537 47.3232 44.2126C47.9031 44.3745 48.7876 42.6991 49.4044 43.9575C49.053 44.8872 48.8048 45.9101 48.4215 46.9011C48.1291 47.1905 47.9129 47.1954 47.7434 46.8422C47.0553 47.7915 45.844 48.0393 45.93 46.5895C44.8242 46.695 44.0969 46.4718 43.7529 45.9199C43.9864 45.2281 44.3058 44.5118 44.4901 43.9575Z" fill="white"/>
<path d="M43.7519 45.9204L46.9438 46.1682C46.8946 46.4527 46.0273 46.6244 46.4548 47.1445C46.7005 47.4437 47.3615 46.3767 47.6858 46.281C48.079 46.1657 48.165 46.7397 48.4181 46.8992C48.0863 47.7553 47.8406 48.29 47.4352 49.1069C47.1649 49.2982 46.8381 49.2688 46.4548 49.0186C45.3736 49.2884 44.4473 48.4936 45.7963 48.241C45.9142 48.1649 44.0468 49.7349 43.7323 48.241C43.4571 48.5206 43.2236 48.7193 42.7666 48.6163C42.8845 47.6547 43.4571 46.7814 43.7495 45.918L43.7519 45.9204Z" fill="white"/>
<path d="M42.7693 48.618C43.4131 47.6024 44.0347 47.3816 44.4917 48.618H44.7301C44.6171 47.8575 45.3911 48.1543 45.9611 48.1323V48.3727L45.2264 48.618C46.2609 48.564 46.6786 48.2721 47.4354 49.111C47.3273 49.3293 47.5878 49.8763 47.0349 50.0603C45.4427 50.1167 43.8308 50.2075 42.2754 49.8445C42.4793 49.4741 42.558 48.9516 42.7668 48.6204L42.7693 48.618Z" fill="white"/>
<path d="M52.5985 34.6383C51.3896 34.891 48.3869 34.2973 47.4385 34.6383C48.9349 34.2286 51.1021 34.2286 52.5985 34.6383Z" fill="white"/>
<path d="M43.998 42.2404C44.342 41.9656 44.5828 41.112 45.2242 41.2616C45.3495 41.762 44.8433 42.1471 44.7352 42.4857C44.8187 41.6786 44.6001 42.1324 43.998 42.2404Z" fill="white"/>
<path d="M31.467 44.9382C32.0027 44.1189 32.8946 43.4885 33.4327 44.6905L32.4523 45.056L33.8013 45.4264C33.7202 47.0257 34.477 44.8475 34.8161 44.7248C35.6614 44.4157 35.8801 44.7371 36.1356 45.4288C35.885 46.0789 35.6417 46.7387 35.3985 47.3912C34.9562 47.8132 34.7866 47.5188 34.708 46.957C34.0347 47.8598 32.8946 47.9309 31.2901 47.168C30.8478 47.4329 30.5726 47.4035 30.7323 46.9006C30.9928 46.2604 31.0468 45.5858 31.4695 44.9382H31.467Z" fill="white"/>
<path d="M30.7307 46.9022L30.9739 47.0396C30.9961 46.8311 30.8658 46.6643 31.1017 46.652C31.6325 46.6275 33.7604 47.6185 34.1265 47.0838C34.355 46.7502 33.7849 45.9946 35.2617 46.6569C35.5197 46.7722 34.9791 47.2874 35.3993 47.3928C35.2101 47.9006 35.0725 48.428 34.9079 48.8647C34.5344 48.8622 34.1314 48.7788 33.6989 48.6169C32.2664 49.1345 31.458 49.1149 30.2393 48.374C30.4383 47.7117 30.4629 47.5621 30.7307 46.9022Z" fill="white"/>
<path d="M30.2396 48.3734C31.1733 47.7479 31.4927 48.5917 31.5714 48.5917C32.7877 48.5819 34.0629 47.3824 34.9082 48.864C34.8271 49.0823 34.7018 49.5607 34.4978 49.6097C33.7017 49.4601 29.9005 49.9409 29.7482 49.2271C29.6597 48.8174 30.1929 48.5279 30.2396 48.3734Z" fill="white"/>
<path d="M108.858 30.4689C109.708 29.5809 111.347 29.2277 112.546 29.2865C113.197 29.3184 114.541 29.4705 113.573 30.1206C112.499 29.9219 111.664 30.0372 111.069 30.4664L110.87 31.0331C109.637 31.6365 108.72 32.6717 108.121 34.146L108.356 34.3863C107.543 35.9367 107.317 37.4207 107.678 38.841C110.696 39.0348 113.745 39.2016 116.824 39.3414C117.993 39.7879 117.347 41.9073 116.229 41.9956L116.052 42.4837L105.474 42.2286C105.088 42.9793 104.661 43.7176 104.189 44.4486L104.386 44.7454C108.87 44.9 113.357 44.9809 117.848 44.9907C118.637 44.7283 119.244 44.7111 119.667 44.9392C119.986 44.1346 120.443 43.3914 121.035 42.7045L121.387 42.7315C121.345 41.8141 121.581 40.9065 122.094 40.0087C122.49 38.9097 123.053 37.0969 121.429 36.8516L112.824 36.3144C111.634 35.3602 113.32 32.5122 114.509 33.8982C116.067 34.0503 117.642 34.0331 119.202 33.8859L119.423 34.1435C119.885 33.6112 120.623 33.6112 121.635 34.1435C122.276 34.119 122.967 34.0503 123.706 33.9448C124.697 34.5409 125.554 31.3691 125.466 31.2097C124.045 31.4427 123.34 31.195 123.355 30.464C123.549 29.9611 124.114 29.7968 125.048 29.9709C125.505 29.4239 128.001 29.4681 127.532 30.464C127.397 31.2514 127.07 32.4362 126.795 33.1623C127.286 33.6112 127.208 33.7289 126.549 33.6529C125.402 36.3708 125.478 35.2155 122.618 35.3725C123.95 36.518 124.606 36.9179 124.279 38.8705C124.171 39.5107 122.714 43.4429 122.384 44.0905C121.736 45.3709 119.986 46.5018 118.563 46.6539C114.114 47.1347 107.708 46.5631 103.074 46.4086C102.602 46.3938 102.088 46.6588 102.226 45.918C102.435 45.2336 103.956 40.7936 104.179 40.6219C104.44 40.4183 106.779 41.0168 107.386 40.7666C107.378 39.9939 106.575 40.3128 106.044 39.5303C105.74 39.0814 105.708 38.3627 105.666 38.3136C105.371 37.7519 105.452 37.0994 105.912 36.3512C105.963 36.0618 106.098 35.8483 106.157 35.6153L107.14 33.1623C107.575 31.9873 107.681 31.222 108.86 30.464L108.858 30.4689Z" fill="white"/>
<path d="M127.778 30.4667H127.532C127.692 29.6204 126.08 30.0717 125.448 29.7259L126.058 30.4642H123.357L122.379 30.9082C118.676 30.9303 115.03 30.9205 111.442 30.8837L111.071 30.4667C110.767 30.03 110.678 29.9393 111.3 29.8779C111.98 29.8093 112.794 29.9393 113.526 29.7283C113.386 29.3088 112.005 29.434 111.671 29.4732C110.88 29.564 109.506 30.0521 108.857 30.4667V30.2214C110.872 28.3669 114.777 29.4634 117.325 29.4953C120.603 29.5394 123.885 29.4413 127.163 29.483C127.849 29.5443 127.726 29.9614 127.778 30.4642V30.4667Z" fill="white"/>
<path d="M108.121 34.1474L108.991 32.6633C109.246 32.5775 109.504 32.7173 109.706 32.889C109.912 31.4614 111.001 31.221 112.971 32.1727L114.581 31.9225C116.301 31.5178 117.067 31.8955 116.881 33.0534C118.357 32.5799 120.016 32.0648 121.178 33.3845C123.033 32.6879 123.842 34.7067 121.633 34.145C120.901 34.1719 120.156 34.1401 119.421 34.145C118.994 34.0517 118.805 33.9683 119.181 33.8874C117.642 34.0395 116.06 34.0493 114.507 33.8997C113.006 34.0076 113.151 34.4908 112.787 35.8596L121.495 36.3649C124.505 36.8335 122.225 41.0379 121.387 42.728C120.601 43.0494 119.945 42.993 119.412 42.5563C118.883 42.7403 118.441 42.5465 118.009 42.235C117.529 43.3339 116.016 43.2358 116.227 41.9921C116.566 41.2734 117.085 40.6332 116.964 39.7844C115.748 39.9831 114.554 39.5833 113.411 39.5269C112.195 39.468 108.187 39.8065 107.487 39.3085C106.172 38.3764 107.411 35.2243 108.118 34.1401L108.121 34.1474Z" fill="white"/>
<path d="M123.354 30.4675C123.388 30.4675 123.634 30.6957 123.949 30.7226C124.639 30.7815 125.361 30.6638 126.057 30.7153C126.192 30.8355 125.064 34.0072 124.959 34.1544C124.686 34.5273 122.157 34.5641 121.636 34.1495C121.963 34.1372 122.292 34.1618 122.619 34.1495C122.344 33.2541 121.56 33.99 121.069 33.8723C120.806 33.8085 120.595 33.3743 120.221 33.2345C118.531 32.6041 117.848 33.5976 116.233 33.6613C116.093 33.4676 117.01 32.2386 115.862 32.1944C115.449 32.1773 116.032 33.3866 115.002 32.923L115.25 32.4373C114.459 32.2828 113.7 32.7047 112.95 32.6654C112.309 32.6335 110.832 31.7137 110.375 32.2337C110.002 32.6581 110.535 34.8192 109.107 32.9254C109.193 33.5828 108.284 33.9017 108.122 34.1519C108.574 32.192 109.046 30.9851 111.071 30.4724C112.54 30.0996 112.678 30.4749 113.887 30.4822C116.948 30.4994 120.359 30.2737 123.356 30.4724L123.354 30.4675Z" fill="white"/>
<path d="M116.23 41.9949C117.416 43.2018 117.421 42.0097 117.736 41.784C118.082 41.5387 118.52 42.0636 118.859 42.147C119.048 42.1936 119.306 42.0415 119.498 42.0882C119.763 42.1519 120.409 42.7088 120.652 42.4855C120.721 42.4218 120.643 40.5305 121.39 42.7308C120.896 43.7292 120.773 44.2885 119.67 44.9386C118.731 44.6025 117.701 44.5068 116.583 44.654L116.23 44.2026C115.107 44.0015 113.957 44.053 112.777 44.3523L110.087 43.9573C110.025 44.1609 109.942 44.156 109.841 43.9573C108.772 44.0775 107.507 44.0432 106.413 43.6458C105.897 43.8592 105.32 44.0432 104.681 44.2026C104.922 44.7987 104.676 44.8674 104.189 44.448C104.361 43.8862 104.87 41.9385 105.327 41.7815L116.227 41.9949H116.23Z" fill="white"/>
<path d="M104.68 44.2045C104.823 43.6845 105.221 43.5863 105.875 43.9126L106.007 43.6035C107.297 43.9224 108.575 44.0426 109.843 43.9592C109.848 43.9494 110.027 43.9445 110.089 43.9592C111.052 44.1064 112.027 44.2364 113.015 44.3517C113.099 44.153 113.185 43.9985 113.271 43.996C114.229 43.9813 115.396 43.996 116.231 44.2045C116.843 44.0892 118.853 44.1432 119.549 44.1996C120.244 44.256 119.615 44.5283 119.671 44.9404C119.222 45.2053 118.866 45.377 118.325 45.4384C113.772 45.9511 108.555 44.9576 103.946 45.1857C103.776 44.7736 104.145 44.5994 104.189 44.4498C104.349 44.3958 104.533 44.2315 104.68 44.2045Z" fill="white"/>
<path d="M114.509 33.9023C115.89 33.8018 117.185 33.8582 118.637 33.7257C119.109 33.684 119.541 33.3725 119.423 34.1476C117.855 34.1575 115.986 34.3463 114.509 33.9023Z" fill="white"/>
<path d="M104.681 44.205C104.789 43.945 104.799 43.317 105.052 43.2213C105.598 43.0177 105.207 43.9793 105.907 43.7119L105.664 42.7332C106.679 42.6645 106.529 43.5746 107.679 43.788C108.615 43.9621 109.416 42.9981 109.839 43.9572C109.792 44.0382 109.967 44.4086 109.684 44.4675C109.242 44.5607 108.251 44.1314 107.664 44.0971C106.949 44.0554 105.372 44.0774 104.679 44.205H104.681Z" fill="white"/>
<path d="M110.085 43.9595C110.52 43.4321 112.894 44.4182 113.032 44.2072C113.1 44.1017 112.987 43.6676 113.034 43.4689C113.523 43.3658 113.631 43.903 114.086 43.9055C114.516 43.9104 115.472 43.3266 115.737 43.4713C115.238 44.2023 115.85 43.8295 116.226 44.2048C114.884 44.4574 113.034 44.5727 111.464 44.4206C110.862 44.3618 110.444 44.0453 110.083 43.9595H110.085Z" fill="white"/>
<path d="M100.263 35.6203C100.14 35.4952 99.189 34.931 99.0342 34.8844C98.6607 34.7716 97.6385 34.6612 97.2012 34.6293C92.7291 34.3055 87.8492 34.8672 83.3354 34.6685L77.168 51.4349L77.7823 51.8102C80.1338 51.636 82.4459 52.3891 84.7876 51.9377C85.3921 50.4267 86.0702 48.9132 86.628 47.3874C86.8959 46.6466 86.7091 45.788 88.2276 46.5313C88.778 46.8011 90.3678 51.1969 90.6799 52.0555C90.8494 52.0555 91.3064 52.3106 91.7684 52.3106C92.8348 52.3106 98.3143 52.4823 98.6779 52.0604C98.8131 51.9034 98.5354 51.6115 98.5428 51.5649L98.6165 51.2166C97.8793 49.6883 97.2085 48.1356 96.6041 46.5534C97.6336 45.793 98.5256 44.8485 99.2799 43.7153C99.7099 42.5403 100.855 39.057 100.995 37.9286C101.083 37.2099 100.774 36.1354 100.263 35.6203ZM92.8913 40.5263V41.0169H88.9599V40.5263H92.8913Z" fill="white"/>
<path d="M80.8506 45.1861C81.6491 44.2147 82.2536 44.7543 82.3126 44.693C82.4919 44.509 82.5313 42.554 83.5559 44.3324C82.546 44.5851 83.4109 44.666 83.551 45.0659C83.7623 45.6693 83.0251 45.1959 83.062 45.6742H85.7624C85.3742 46.4616 85.126 47.7593 84.7795 48.6203C84.2758 48.4461 83.7303 48.3946 83.1431 48.4682C82.1676 47.0847 81.4575 47.384 80.2682 48.2965L79.8652 47.8844C79.9783 47.0503 80.3174 45.8312 80.8481 45.1861H80.8506Z" fill="white"/>
<path d="M79.8676 47.8835C79.9119 47.8467 80.2534 47.859 80.4991 47.6579C80.7448 47.4567 80.8112 46.9661 80.88 46.9171C81.0421 46.8018 81.4795 47.1525 81.6982 47.1624C81.9636 47.1771 81.6564 46.5442 82.0766 46.657C81.9341 47.7192 82.9022 46.6227 83.1897 47.1452C83.3494 47.4322 82.9735 47.7462 83.0619 47.8713C83.4133 48.3619 84.691 47.3684 84.7819 48.617C84.6222 49.0144 84.4846 49.4731 84.2905 49.8435L83.8458 50.1869C82.5066 50.182 81.2166 49.9956 79.9733 49.6227C79.7005 50.2164 79.1428 50.55 78.8848 49.8435C79.074 49.3406 79.5113 48.1877 79.8676 47.8811V47.8835Z" fill="white"/>
<path d="M92.1526 51.0715C91.2361 50.262 90.639 48.6013 92.4229 49.4427C93.02 48.9447 93.9537 49.0355 94.6884 49.2366C95.1307 48.6332 95.5951 48.7534 96.0841 49.5997C96.3863 49.7738 96.9687 50.9365 96.8188 51.069C95.3691 50.9194 93.5434 51.28 92.1526 51.069V51.0715Z" fill="white"/>
<path d="M78.8849 49.8463C79.4599 49.9983 79.3862 49.3728 79.7277 49.2036C80.428 48.8577 81.1553 50.1284 81.7106 49.1104C81.9932 50.0695 83.4134 49.3385 84.2882 49.8463C84.1825 50.0499 84.2489 50.3786 83.9466 50.6018C83.0006 51.3009 79.8678 50.5331 78.6367 50.5797C78.7768 50.354 78.794 50.0817 78.8824 49.8463H78.8849Z" fill="white"/>
<path d="M90.9243 49.3554L91.7843 48.6195C92.4011 49.6915 92.8606 49.1911 92.3986 48.1289C93.3717 48.7937 94.4012 48.8035 95.3448 48.1289C95.5266 48.5287 96.1237 48.9678 96.0819 49.6007C96.0696 49.5934 95.9787 49.8337 95.8878 49.7871C95.8092 49.7454 95.3448 48.4723 94.8484 50.0889H94.6101C94.4823 48.8893 92.2831 50.2409 91.4158 49.353L92.1505 51.0701C91.116 50.9155 91.2782 50.0202 90.9219 49.353L90.9243 49.3554Z" fill="white"/>
<path d="M99.5938 36.9202C99.0458 35.5514 97.5912 36.1279 96.5739 35.6201C94.7728 35.652 92.9816 35.6692 91.1977 35.6741H91.1805C89.2123 35.6765 87.2589 35.6618 85.3128 35.6275H85.3079C85.131 35.625 84.9565 35.6226 84.7796 35.6201C84.7009 35.6397 84.0228 36.2285 83.9368 36.3707L80.8506 45.1869C81.5902 45.1329 82.2757 45.0986 82.9072 45.0838C82.1652 46.4747 85.2317 46.536 85.7624 45.6775C85.8362 45.5303 86.0376 45.204 86.19 45.1795C88.9715 45.5131 88.7479 45.0618 89.9396 47.3946L90.3966 47.7601C91.4901 47.505 92.5712 47.1934 93.6376 46.823C94.3134 47.5442 95.0186 47.4951 94.6082 46.4134C94.4387 46.0798 93.9276 45.8099 94.1168 45.1869C95.7115 45.3659 97.144 44.5908 97.9008 43.1999C98.3775 42.3193 99.896 37.6782 99.5938 36.9202ZM92.8907 40.5261V41.0167H88.9592V40.5261H92.8907Z" fill="white"/>
<path d="M89.9414 47.3927L91.4132 46.8997L90.1871 46.6543L90.4353 45.6756C90.568 45.5235 91.5263 46.8064 91.8359 46.88C91.9661 46.9119 93.6345 46.5513 93.5067 46.1613C93.8802 46.0583 94.6444 47.6257 94.6125 46.4115C94.9614 47.091 95.0793 47.5325 95.3496 48.1286C95.5413 49.2128 93.922 49.1932 93.1111 49.0092L92.8654 49.3698C92.1504 49.3502 91.5017 49.3453 90.9267 49.3551C90.5778 48.7002 90.278 48.0452 89.9439 47.3927H89.9414Z" fill="white"/>
<path d="M84.7822 35.6202H96.5766C93.4142 35.4117 90.2519 35.7919 87.1165 35.8802C86.3917 35.8999 85.2368 35.5098 84.7822 35.6202Z" fill="white"/>
<path d="M93.9911 39.2971C93.1212 39.6111 88.2266 39.3781 88.003 39.5743C87.9071 39.6577 87.3666 41.6348 87.2363 41.9979H93.2564C93.5635 41.9979 94.4284 39.2677 93.9911 39.2971ZM92.8902 41.0167H88.9588V40.5261H92.8902V41.0167Z" fill="white"/>
<path d="M62.4236 30.2212L62.4776 30.7707C60.6421 33.6431 59.3251 36.9253 58.5265 40.622C58.1653 41.1297 57.8287 41.6694 57.5093 42.241C57.8238 42.6089 57.3545 43.1903 57.0178 43.4675C57.3397 43.8011 57.3667 44.0194 57.0965 44.3505C57.2267 44.6081 61.5316 44.5541 61.6864 43.9581C61.1262 43.5141 61.4849 42.8419 62.1779 42.9769C61.9862 41.7136 62.2737 41.142 63.0379 41.2598C64.8193 41.1224 66.6622 41.1224 68.5665 41.2598C69.596 41.4805 68.6991 43.5484 67.8293 43.7128C67.7556 44.4364 67.7654 44.8019 67.8613 44.8166C68.4436 45.0497 72.4316 44.8044 72.7436 44.4487C72.5004 44.2721 72.5815 44.1911 72.9893 44.2034C72.3873 43.9654 72.3554 43.9532 72.9893 43.7128C72.8788 43.0333 72.8714 42.1159 73.7265 41.9957C73.9476 40.4527 74.3334 38.9147 74.9551 37.4502L75.6922 36.8443C76.0264 35.765 77.0461 35.9122 76.6751 37.0896C75.7954 39.6506 75.0042 43.1093 73.9034 45.4838C73.815 45.6776 73.5053 46.1658 73.3579 46.1658H65.8636L67.3379 42.241H63.6521C63.4408 42.241 62.8781 45.5893 61.9346 46.0456L55.0521 46.4111C55.0275 46.0603 55.0374 45.7169 55.1111 45.3661C55.6688 42.7217 57.3151 39.5966 58.2243 37.1411C59.0376 34.9408 59.4873 31.5973 61.195 29.9759C61.9862 29.5147 62.3965 29.5981 62.4236 30.2212Z" fill="white"/>
<path d="M76.6749 37.0916C76.8125 36.2674 76.3014 36.7041 75.692 36.8463C75.0974 36.7286 75.176 36.2331 75.3333 35.7302C75.9304 33.8021 76.6307 31.6459 77.6209 29.946L77.2695 30.1815C72.4044 29.973 67.6178 30.0858 62.9148 30.5225L62.4258 30.2232L61.1973 29.9779C61.9811 29.2346 62.8976 28.6361 64.0156 28.4987C66.834 28.1578 72.112 28.3614 75.0876 28.4938C76.4464 28.5552 77.9747 28.8618 79.3876 28.8642L79.5301 29.4996C78.5006 31.9894 77.5496 34.5454 76.6749 37.0916Z" fill="white"/>
<path d="M57.2655 43.4694C57.7692 43.0769 58.1279 43.0573 58.3417 43.4154C59.0297 43.2364 61.4967 42.6795 61.6785 43.5381C61.708 43.673 61.7031 43.8153 61.6883 43.96C61.5655 44.2102 61.6073 44.875 61.2805 44.951C60.4892 44.7989 56.6635 45.2797 56.5283 44.5659C56.4792 44.301 56.9092 43.7785 57.0197 43.467H57.2655V43.4694Z" fill="white"/>
<path d="M62.178 42.9784C61.9986 43.3758 61.8463 43.6284 61.6866 43.9596C60.6595 43.0029 59.0353 43.9768 57.7526 43.9596L58.0033 43.4714H57.2637C58.1998 42.6497 58.6004 41.2539 59.598 42.7331L59.7208 42.2449C60.6791 43.0937 60.5096 42.5516 61.2 42.164C61.3155 42.1002 61.5244 42.2229 61.6374 42.1591C61.7504 42.0953 61.5293 41.6489 61.9249 41.7543L62.1731 42.9808L62.178 42.9784Z" fill="white"/>
<path d="M69.303 43.4678C70.0992 43.5782 71.1484 43.6125 72.4531 43.5733C72.7799 43.6321 72.9372 43.8848 72.9888 44.2037C72.9716 44.2797 72.7848 44.3631 72.7431 44.449C71.7921 44.8145 68.7158 45.1064 67.7403 44.8169C67.5978 44.7752 67.9516 43.6444 68.3226 43.7131C68.7354 43.588 68.878 43.5536 69.3055 43.4678H69.303Z" fill="white"/>
<path d="M69.3023 43.4693C69.5235 43.4252 69.8429 43.5429 70.1107 43.4669C70.3442 43.4006 70.1992 42.8953 70.6464 42.9665C71.0027 43.0229 71.4204 43.5355 71.5089 43.4669C71.5555 43.4301 71.3541 42.9468 71.8676 42.9542C72.4524 42.964 72.9979 43.1112 72.9881 43.7146C72.9856 43.8716 73.0176 44.0728 72.9881 44.2052C71.9045 43.9035 71.0101 43.8912 69.9142 43.8716C69.4645 43.8643 69.209 44.2248 69.3023 43.4693Z" fill="white"/>
<path d="M68.3199 43.7117L67.8309 44.6905C69.4797 44.7175 71.1186 44.7445 72.7428 44.4477C72.6937 44.5458 72.8878 44.8916 72.5905 44.9505L67.5828 44.9383C67.4697 44.4477 67.7032 44.1165 67.8285 43.7117C67.9833 43.6848 68.1921 43.751 68.3199 43.7117Z" fill="white"/>
<path d="M64.2571 29.7214C63.6084 29.7753 62.9892 29.8955 62.4241 30.2218C61.5862 30.705 61.2053 31.5857 60.8318 32.4344C59.5025 35.4393 58.5098 39.0894 57.5098 42.2416C57.9717 42.4157 58.6401 41.7681 58.9595 41.3781C60.1266 41.9521 61.2692 41.8025 62.3332 41.4713C62.5469 41.4026 62.7583 41.329 62.9671 41.253C63.0703 41.2137 63.1711 41.1745 63.2718 41.1352L64.8763 41.1696H64.8935L68.2082 41.2383H68.2131L68.5596 41.2456C68.5596 41.2456 68.5817 41.2603 68.5915 41.2677C68.6874 41.3364 68.7857 41.3977 68.8864 41.4492C69.5523 41.7926 70.3017 41.7657 71.1347 41.3683C71.8964 41.8 72.5304 41.7877 73.039 41.3266C72.7933 41.7657 72.9039 42.2023 73.1152 42.3691C73.3019 42.5212 73.5673 42.4599 73.727 41.9962C74.329 40.284 75.1276 38.5105 75.6927 36.8449C75.7615 36.6364 75.6854 36.2145 75.8033 35.8637C76.4938 33.8155 77.3022 31.8089 77.9017 29.7336C73.4641 29.9814 68.6554 29.3461 64.2571 29.7214ZM69.5498 36.3543H66.1098C66.0533 33.7149 68.1787 35.0223 69.9135 34.387C70.1862 34.4017 69.6506 36.3543 69.5498 36.3543Z" fill="white"/>
<path d="M57.5119 42.2415C57.937 41.611 58.8437 41.5816 58.2491 40.7721C59.2172 41.2186 58.743 40.7059 59.3376 40.5072C59.4752 40.4606 60.2541 40.4581 59.8438 40.7721L59.3523 41.0174C60.5023 41.6061 61.9791 41.0346 63.2715 41.0101C65.1758 40.9757 67.1219 41.2284 68.9574 41.2406C69.1417 41.2406 68.9402 40.8285 69.1859 40.7697C69.7584 40.6298 69.4562 41.2701 69.6872 41.2774C70.0434 41.2872 70.6479 40.8727 71.1516 40.8825C71.5546 40.8923 71.9969 41.2799 72.3433 41.2137C72.9453 41.1008 73.2476 39.656 73.852 39.2979C74.2501 39.3224 73.6039 41.194 73.5326 41.4369C73.4171 41.8343 72.8471 42.0599 73.7292 41.9986C73.5228 42.5849 73.4785 43.311 72.992 43.7157C71.8544 43.4876 70.6823 43.4827 69.4758 43.701L69.3063 43.4704C69.2129 44.1769 68.7338 44.2971 68.3234 43.7157C68.0409 44.0641 67.9377 44.1843 67.832 43.7157C68.0851 42.8989 68.6699 42.1581 68.5691 41.2627H63.0405C62.4803 41.7116 62.4312 42.423 62.1805 42.9798C61.7899 43.1123 61.6449 42.9945 61.5884 42.6339C60.6546 43.1785 59.6718 43.3576 58.7847 42.5604C58.3719 43.1589 57.8658 43.4606 57.2662 43.4704C57.1974 43.6838 57.1139 43.6814 57.0205 43.4704C57.1999 42.97 57.163 42.764 57.5119 42.2439V42.2415Z" fill="white"/>
<path d="M71.514 33.4111H65.6168L64.3857 37.336C65.4202 37.4095 69.6318 37.9737 70.1625 37.336C70.2952 37.1765 71.6688 33.5485 71.514 33.4111ZM69.5482 36.3547H66.1082C66.0517 33.7153 68.1771 35.0228 69.9119 34.3874C70.1846 34.4021 69.649 36.3547 69.5482 36.3547Z" fill="white"/>
<path d="M96.8216 0.542805C98.6522 -0.163662 101.208 -0.198004 102.965 0.542805C102.874 1.65893 101.822 3.80286 101.36 4.95087C100.561 6.93045 99.5589 8.85361 98.7874 10.8455H106.405C106.5 11.6034 105.903 12.2044 105.667 12.8079L105.149 12.9918C105.024 13.8013 104.144 15.9453 103.702 14.525C103.058 14.4367 103.085 14.2355 103.702 14.0344C103.372 13.6542 103.439 13.1562 103.901 12.5429C101.881 12.2829 99.8366 12.2118 97.7677 12.3271C97.6104 12.0401 97.3819 11.8659 97.0674 11.8267C96.5587 11.8095 96.4826 11.4636 96.8388 10.7866L100.588 2.13972C99.4262 2.0416 98.2738 1.96555 97.1337 1.91159C96.8069 3.57963 96.1312 4.92143 95.1016 5.93698L94.5758 6.30493C94.1876 7.76447 93.5438 8.86833 92.6445 9.6165C92.5708 8.90267 92.9344 8.30414 93.1359 7.65409L92.8386 6.96724C93.4259 5.20598 94.1139 3.48642 94.9026 1.80611L95.5931 1.52156C95.7798 0.599225 96.1902 0.272974 96.8216 0.540352V0.542805Z" fill="white"/>
<path d="M92.6439 9.61757C93.3196 8.16048 94.1035 6.73283 94.6146 5.20215L95.1011 5.93805C95.1011 8.26596 93.9143 10.4516 92.6439 12.3159L92.8995 12.5563C92.8356 13.2382 92.5039 13.8122 91.9068 14.2783C92.2115 14.8768 91.9657 15.4508 91.1696 15.9954C91.6217 16.1965 92.1599 16.253 92.7815 16.1622L100.836 16.3167C101.804 16.4001 102.453 16.0077 103.207 15.5048C102.721 14.97 102.981 14.4426 103.699 14.5236C103.814 15.0804 104.49 13.8343 104.512 13.7852C104.836 13.0493 104.581 11.7247 105.664 12.8065C105.205 13.9766 104.451 16.7338 103.578 17.4697C102.318 18.5343 99.6763 17.7272 98.1799 17.7002C96.5459 17.6708 94.8775 17.6635 93.2435 17.7002C92.4867 17.7174 89.1302 18.5196 89.2358 17.3887C89.2727 16.9791 89.9263 16.2775 90.113 15.7992C90.9165 13.7288 91.7372 11.5726 92.6415 9.61757H92.6439Z" fill="white"/>
<path d="M95.1002 5.94081C95.6997 4.49353 96.2182 2.99719 96.8595 1.56709C98.324 1.47387 99.8106 1.44198 101.241 1.77314C100.865 3.13702 96.9185 11.1903 97.0635 11.828C98.8277 12.1347 97.4689 13.5157 96.3091 12.4928C95.3484 12.9196 94.5645 12.4658 93.938 11.7275C93.992 12.7724 92.4809 13.5206 92.643 12.3162C93.4539 10.1772 94.223 8.05531 95.1002 5.93836V5.94081Z" fill="white"/>
<path d="M92.6443 12.3168C92.6861 12.724 93.3544 12.3095 93.3913 12.1525C93.465 11.8557 93.3323 11.4215 93.3815 11.0903C94.1604 10.9113 94.3594 11.6128 94.8754 11.9293C95.9099 12.5621 95.8976 11.8508 96.448 11.8164C96.5168 11.8115 96.6962 12.6922 97.5537 12.3144C97.6569 11.9562 97.1213 12.0814 97.0623 11.8262C99.5219 11.8876 102.006 11.6398 104.434 12.074C104.507 12.8442 103.94 13.3839 103.697 14.0339C103.139 14.1394 102.591 14.3038 102.053 14.5319C101.021 13.8083 99.3302 14.3553 98.5218 15.0323C96.9099 14.2768 96.045 14.0266 94.2882 14.3725C93.8655 14.0928 93.6419 14.2302 93.6173 14.7846C93.1579 15.0372 91.7401 14.841 91.9072 14.2793C91.9539 13.5507 92.4133 12.9252 92.6443 12.3168Z" fill="white"/>
<path d="M91.9076 14.2768C91.9076 14.2768 92.0673 14.4829 92.1582 14.397C92.3916 14.1787 92.2712 13.72 92.6423 13.7887L93.1337 14.7674L93.5047 13.0479C94.2247 14.7085 95.6891 13.4771 96.4435 13.5237C96.586 13.5311 96.5614 14.0192 96.6818 14.0143C96.8563 14.0045 97.1536 13.7347 97.4018 13.7641C97.65 13.7936 97.559 14.7502 98.6377 14.527C98.7974 14.4951 98.7655 14.1443 98.9105 14.0977C99.2348 13.9923 101.333 13.5752 101.631 13.5532C101.734 13.5458 101.726 14.0266 101.874 14.0511C102.599 14.1689 103.267 12.9399 103.702 14.034C103.655 14.1591 103.751 14.4093 103.702 14.5246C103.589 14.7944 103.358 15.231 103.211 15.5058L102.611 16.0283C101.66 16.0135 100.739 15.9179 99.7926 15.648C98.8859 15.9522 98.0382 15.9032 97.247 15.4984C95.9619 15.9032 94.5761 16.0283 93.0846 15.8737C92.3351 16.1411 91.6963 16.1803 91.168 15.9964C91.3351 15.4788 91.512 14.6374 91.9051 14.2793L91.9076 14.2768Z" fill="white"/>
<path d="M91.1699 15.9965C92.6762 14.9908 94.519 15.5059 96.2145 15.3906C96.5486 15.3685 96.8435 15.0447 97.2072 15.0178C97.8288 14.9687 98.48 15.6703 98.7871 15.5059C98.8191 15.4887 98.48 14.9344 98.91 14.7725C99.1287 15.5501 99.3867 15.0791 99.969 15.1772C100.687 15.2974 101.151 15.8984 101.365 15.0178C101.915 15.8714 102.335 15.5869 103.208 15.5084C103.048 15.8101 102.881 16.3154 102.613 16.5067C101.544 17.2721 92.8506 16.4013 90.9218 16.7324C90.8849 16.7103 91.1282 16.1192 91.1675 15.999L91.1699 15.9965Z" fill="white"/>
<path d="M129.127 6.92267C128.65 6.91041 128.188 6.67737 127.662 6.66511C123.252 6.56944 118.849 6.65284 114.45 6.23828C113.472 6.39282 112.873 7.08948 112.445 7.92841C111.003 10.7494 109.917 14.294 108.779 17.2695C108.012 19.2834 105.735 22.3031 108.74 23.5982C112.101 23.7184 115.455 23.7651 118.819 23.8386C121.495 23.8975 123.507 25.1265 125.21 22.1461L131.707 7.05268C131.019 6.18677 129.906 6.9423 129.127 6.92267ZM120.532 16.7347H116.232C116.48 16.2368 117.396 13.5458 117.829 13.5458H121.515C121.62 13.5458 121.881 13.8696 121.856 14.1247C121.834 14.3381 120.753 16.3349 120.532 16.7347Z" fill="white"/>
<path d="M118.932 7.65663C121.217 7.48983 123.536 7.48492 125.812 7.65663C126.844 8.22573 128.266 7.74494 129.379 7.90194C129.718 7.951 129.802 7.76457 129.745 8.26989C128.087 12.1726 126.463 16.1244 124.583 19.9217C124.042 19.8726 123.834 19.4041 123.959 18.5186L122.352 18.2536C121.996 19.6543 119.123 18.8865 120.406 17.9593C120.988 17.6379 122.974 13.3746 122.838 13.1342C122.696 12.8766 117.185 12.7025 116.961 12.8938C116.769 13.0582 114.963 17.2258 114.926 17.4785C114.917 17.5521 114.951 17.633 115 17.714C116.012 18.7614 113.563 19.3501 113.425 17.9544L112.884 17.741C112.346 19.49 110.675 19.1637 109.349 18.6976C110.705 14.996 112.192 11.3165 113.833 7.72287C114.612 6.9747 117.789 7.63946 118.932 7.65909V7.65663Z" fill="white"/>
<path d="M124.583 19.9217C124.502 20.086 124.419 20.2504 124.338 20.4123C124.328 20.6477 124.247 20.8121 124.092 20.9029C123.586 20.79 123.129 20.4662 122.721 19.9315C121.858 20.6821 120.681 20.606 119.195 19.7058C118.084 20.3681 117.047 20.476 116.084 20.032C113.804 20.1179 111.491 20.2356 109.15 20.3877L108.857 19.9192C109.039 19.3158 109.204 19.0876 109.349 18.6927C110.961 17.8636 111.445 19.5365 112.381 17.7066C112.462 17.5496 112.275 17.2356 112.297 17.2233C112.587 17.0663 114.45 17.4981 113.769 18.1996C115.133 18.4768 114.777 17.9592 115 17.7115C115.005 17.5839 115.022 17.4613 115.069 17.3509C115.253 16.9216 119.472 17.3116 120.185 17.4098C120.337 17.4294 120.391 17.7434 120.406 17.9568C120.453 17.9887 120.195 18.3836 120.757 18.467C122.337 18.705 121.674 18.131 121.893 17.7189C122.008 17.5005 124.971 18.6976 124.087 17.4662C124.822 17.6722 124.652 17.1522 125.07 16.9756C125.055 17.8243 124.121 19.0631 124.581 19.9192L124.583 19.9217Z" fill="white"/>
<path d="M108.858 19.9223H109.843C109.229 18.166 110.394 19.9051 110.489 19.9174C110.846 19.9689 112.475 19.6206 113.003 19.5715C113.379 19.5347 113.824 19.7531 114.106 19.6942C114.389 19.6353 114.153 19.1864 114.389 19.184C114.495 19.184 114.414 20.0008 115.581 19.6795C115.846 19.6059 115.554 19.0809 116.106 19.1864C116.33 19.2281 116.138 19.6108 116.534 19.758C117.706 20.1921 118.63 19.1668 119.242 19.2257C120.063 19.3066 121.149 20.4056 122.377 19.9223L122.129 19.4366C123.37 19.1717 123.382 20.2388 124.097 20.906C124.24 21.1218 124.129 21.5634 123.851 21.6419C123.49 21.973 122.952 21.0924 123.222 21.0335L119.532 21.4505L119.183 21.1513C118.46 21.7964 117.308 22.1717 116.706 21.3769L116.357 21.7449C114.416 21.8013 112.477 21.6321 110.539 21.2371C109.553 21.1611 109.123 21.1513 108.865 22.1325C108.622 22.0368 108.413 22.3851 108.352 21.7719C108.256 20.8152 108.683 20.5356 108.865 19.9248L108.858 19.9223Z" fill="white"/>
<path d="M108.857 22.1279C108.049 20.7493 109.697 20.634 110.648 20.7517C111.599 20.8695 112.467 21.1344 113.639 21.154C114.113 21.1614 115.897 21.4238 116.106 21.3552C116.206 21.3233 116.376 20.5628 117.214 20.9038L116.966 21.392C117.7 21.3036 118.435 21.2129 119.18 21.1491C119.659 21.2472 119.813 21.3552 119.644 21.4803C120.931 21.2178 124.688 20.4525 122.922 22.5939C121.354 22.7362 119.779 22.746 118.199 22.6209C115.826 22.5694 110.877 22.9202 108.862 22.1303L108.857 22.1279Z" fill="white"/>
<path d="M118.931 7.65882C121.353 7.09708 124.056 7.56315 126.545 7.41597C126.609 7.82808 126.083 7.6441 125.811 7.65882C123.607 7.76675 121.154 7.69807 118.931 7.65882Z" fill="white"/>
<path d="M119.177 21.1474C120.57 21.0247 121.983 20.9634 123.352 20.6543L123.846 21.638C124.037 21.9961 123.472 22.4303 123.109 22.6192C122.458 23.0141 119.939 22.8914 119.042 22.8669C118.673 22.8571 118.312 22.6216 118.194 22.6192C119.207 22.0697 122.516 22.9479 123.109 22.369C123.143 22.3346 122.787 21.7385 123.109 21.3951C122.266 21.6355 121.379 21.3927 120.568 21.4761C120.025 21.5325 119.339 22.472 119.177 21.1474Z" fill="white"/>
<path d="M123.108 22.6208C123.189 22.5717 123.742 21.8113 123.846 21.6396C123.929 21.4973 123.966 21.149 124.091 20.9037C124.172 20.7442 124.258 20.575 124.337 20.4131C124.332 21.2815 124.165 22.5227 123.108 22.6208Z" fill="white"/>
<path d="M123.357 12.5625C121.932 12.9059 117.527 11.7432 116.598 12.56C116.379 12.7514 114.853 16.4603 114.679 17.0245C114.534 17.4906 114.236 17.8095 115.003 17.7138C115.182 17.5127 120.183 17.8095 120.409 17.9591C120.905 18.0008 121.22 17.8855 121.505 17.4587C121.696 17.1668 123.124 13.946 123.24 13.551C123.338 13.2199 123.399 12.9084 123.357 12.5625ZM116.232 16.7326C116.48 16.2346 117.396 13.5437 117.829 13.5437H121.515C121.62 13.5437 121.881 13.8675 121.856 14.1226C121.834 14.336 120.753 16.3328 120.532 16.7326H116.232Z" fill="white"/>
<path d="M143.011 1.28001C144.2 0.867906 145.279 2.2465 145.824 3.25714L147.328 6.29151C147.738 5.25389 148.141 4.19174 148.537 3.10505L149.154 2.99467C149.449 2.49425 149.842 1.93742 150.259 1.52286H157.017C157.103 2.34707 156.7 3.18355 156.37 3.94398C154.599 8.02579 152.309 12.6595 150.382 16.7315C150.078 17.3767 149.446 18.4658 148.724 18.6277C147.886 18.8141 145.313 18.7945 144.478 18.5787C142.662 18.1052 141.677 14.0945 140.31 12.8092L137.974 18.6964H130.971C131.207 17.4822 131.99 16.4126 132.445 15.2622C134.354 10.7388 136.315 6.24 138.332 1.76325L138.834 1.28001C139.824 0.916966 141.989 1.01754 143.011 1.28001Z" fill="white"/>
<path d="M132.444 15.2624C134.005 11.3205 135.56 7.42507 137.28 3.53214C137.757 2.45036 137.344 1.8273 138.833 1.28027L132.444 15.2624Z" fill="white"/>
<path d="M134.165 14.0334L138.787 3.0709C139.301 1.70212 142.827 2.08234 143.645 2.97769C144.517 3.93191 146.461 9.09059 147.068 9.37269L150.731 2.73239C151.739 2.0063 154.051 3.05619 155.294 2.75201C153.564 6.54437 151.68 10.268 149.891 14.0334C149.419 14.7816 148.643 13.9721 148.751 13.3098C148.34 13.7783 147.655 13.8445 146.697 13.5085L143.141 13.3245C142.591 13.0252 142.057 12.7726 141.537 12.5616C141.099 11.8257 140.689 11.0555 140.185 10.3588C139.861 10.3588 138.583 13.7219 138.342 14.2787C137.313 13.9206 136.256 13.7219 135.18 13.6826C135.035 14.6197 133.833 15.1275 134.165 14.0334Z" fill="white"/>
<path d="M141.536 12.562C141.954 12.6748 141.29 10.3028 142.025 11.0902C142.087 11.1564 142.359 12.4074 142.816 12.7386C143.273 13.0698 147.62 12.6699 148.539 13.5456L147.925 12.9299C149.298 12.2063 148.91 13.97 149.893 14.0338C149.549 14.7574 149.264 15.5326 148.91 16.2415C148.325 16.5972 148.111 16.2317 147.954 15.6847C147.274 15.6405 146.556 15.8049 145.802 16.1777L145.303 15.9054C144.487 16.5628 143.662 15.8662 143.013 15.2627C142.49 14.441 142.04 13.4107 141.539 12.5644L141.536 12.562Z" fill="white"/>
<path d="M134.165 14.0339C134.165 14.0339 134.165 14.4436 134.415 14.1615C134.867 13.6488 134.415 12.9963 136.022 13.1607C136.401 13.1999 136.676 14.0487 136.624 13.0527H136.865C136.823 14.0707 138.126 12.9423 138.342 14.2768C138.01 15.0446 137.767 15.7363 137.359 16.4845C136.809 15.9792 135.369 16.8991 136.565 16.7151L137.113 17.2204C135.796 17.7797 134.098 17.321 132.693 17.4633C132.553 17.3381 133.887 14.2498 134.165 14.0315V14.0339Z" fill="white"/>
<path d="M143.01 15.2608C143.555 15.2828 144.43 15.7097 144.872 15.7317C144.985 15.7367 144.889 15.0596 145.592 15.2559C145.698 15.2853 145.7 15.7784 145.831 15.7538C146.315 15.668 146.725 15.0204 147.693 15.1283C148.747 15.2461 148.189 15.7882 148.907 16.242C148.126 17.8144 146.872 17.726 145.113 17.4538C143.926 17.2698 143.577 16.1512 143.01 15.2608Z" fill="white"/>
<path d="M137.359 16.4862C137.263 16.6604 137.29 17.0234 137.113 17.2221C136.017 17.1657 134.889 17.3006 133.793 17.2221C133.518 17.2025 132.985 17.3644 133.184 16.8566C133.594 15.819 134.801 16.4764 135.393 16.3906C136.02 16.2998 137.202 15.034 137.359 16.4862Z" fill="white"/>
<path d="M83.5532 12.0715C83.5679 12.0567 83.595 12.0445 83.6343 12.0371C83.6048 12.1352 83.5729 12.2334 83.5409 12.3315C83.536 12.1916 83.536 12.0886 83.5532 12.0715Z" fill="white"/>
<path d="M89.2061 6.18563C88.8105 7.21099 87.5574 11.2658 86.9947 11.8276C86.9701 11.8325 86.9406 11.8349 86.9112 11.8374C85.4713 11.9625 78.0679 11.0181 77.6919 11.3713C77.6157 11.4449 77.6059 12.0827 77.4143 12.3157L83.309 12.3206L83.0633 13.79C82.9207 14.1162 82.8888 14.364 82.8175 14.5259L82.6161 15.2937C82.191 15.9143 81.9821 16.4171 81.987 16.8023C80.412 16.687 78.4463 16.4613 77.5617 16.7164C77.3381 16.7826 77.3676 17.4597 77.1685 17.7123H83.2328L83.2402 17.7148C83.5375 17.7442 83.8889 17.7442 84.2918 17.7148C84.3852 18.7794 83.6333 19.8097 83.309 20.6584C82.3212 21.073 81.9944 20.992 82.3261 20.4131C82.0067 20.3248 81.8371 19.9985 81.8224 19.4393C81.0902 19.5521 80.6036 19.3877 80.3628 18.9413H79.1343L75.94 18.696C75.7434 19.1964 73.3796 19.3043 73.1511 18.9241C72.7801 18.306 74.2101 14.7638 75.4829 15.1808C77.1562 15.2839 78.8247 15.3182 80.4906 15.2838C80.7216 14.3345 81.0877 13.6747 81.589 13.2994C81.0312 13.1841 81.1786 13.1056 81.3039 13.0712C81.0656 13.108 80.5447 13.1326 79.9181 13.1424H79.9083C78.8296 13.1644 77.4388 13.1497 76.628 13.1007H76.6255C76.6255 13.1007 76.623 13.0982 76.6206 13.1007C76.6206 13.0982 76.6132 13.0982 76.6108 13.1007C76.569 13.0982 76.5321 13.0933 76.4953 13.0909C76.2004 13.0688 76.0038 13.0418 75.9645 13.0099L75.94 12.5635C75.1217 12.1759 76.3036 10.292 76.9105 9.95836L85.7956 10.0737C85.9676 9.9927 86.8227 7.75065 86.7416 7.64762L74.2494 7.43912C73.07 9.57569 72.124 11.8472 71.409 14.2536L70.7799 14.5259L70.318 14.7025C70.1755 15.0287 70.0452 15.3599 69.9297 15.691C69.9273 15.6935 69.9273 15.696 69.9248 15.7009C69.6595 16.4441 69.4531 17.1972 69.3056 17.9601C69.9494 18.0558 69.9248 18.2544 69.3056 18.4507C69.0747 18.593 68.8683 18.8039 68.7012 19.0517C68.5709 19.2406 68.4653 19.4515 68.3965 19.6674C68.281 20.0034 68.2466 20.3542 68.3228 20.6584C68.5341 20.7222 68.5292 20.8031 68.3228 20.9037C67.878 21.279 67.6839 21.7941 67.7355 22.454C69.8683 22.3681 72.0036 22.3951 74.1389 22.5325L74.2199 23.1114H71.2714C70.5956 23.1114 66.5389 23.2758 66.3669 23.1016C66.3226 23.0574 66.2686 22.2798 66.1113 21.8849C66.7576 21.956 66.8509 21.8334 67.1138 21.2913C69.1508 17.1261 70.4015 11.7074 72.3722 7.40968L73.4853 6.06543L89.2061 6.18563Z" fill="white"/>
<path d="M82.3253 20.4109C82.3253 20.4109 82.4506 20.6464 82.5194 20.5949C82.6914 20.4674 83.2099 19.3341 83.3082 20.6562C82.8413 21.8778 83.2983 22.8321 81.3596 23.2491C79.7232 23.6023 76.1087 23.1853 74.2167 23.1092C74.1724 23.1092 73.8186 22.8664 73.3862 22.8468C72.4303 22.8026 67.0958 23.0749 66.8477 22.8639C66.3734 22.4592 67.3096 22.3709 67.344 22.2114C67.5185 21.3725 66.9337 21.061 68.322 20.904C68.3416 21.2131 68.3416 21.5393 68.322 21.8852C68.666 21.6252 69.4572 21.3995 69.8945 21.397C74.0324 21.8165 78.013 21.8165 81.8363 21.397C81.5243 20.671 81.3744 20.1411 82.3278 20.4158L82.3253 20.4109Z" fill="white"/>
<path d="M83.5402 12.3311C83.5402 12.5788 83.5525 12.9369 83.4984 13.1258C83.3879 13.5208 83.1225 13.6434 83.0586 13.7881C83.2257 13.3 83.3854 12.8168 83.5402 12.3311Z" fill="white"/>
<path d="M86.9932 11.8271C86.4354 12.3864 84.1306 11.9351 83.6367 12.0381C83.6564 11.9768 83.676 11.913 83.6957 11.8517C84.7768 11.9964 85.8482 11.994 86.9097 11.837C86.9391 11.8345 86.9686 11.8321 86.9932 11.8271Z" fill="white"/>
<path d="M70.7768 14.525C71.5631 12.5209 72.4722 9.51595 73.4305 7.73016C73.5976 7.41863 73.7721 7.08011 74.1431 6.96973L87.4855 7.17087L86.2299 10.5732L77.0843 10.3966C76.6961 10.529 76.1285 12.0622 75.9393 12.565L76.5069 13.1047C78.2736 13.036 79.9666 13.0998 81.5908 13.301C81.5711 13.8308 81.1485 15.5675 80.6963 15.7196C79.5636 16.1023 75.4945 15.3836 74.7599 15.8055C74.6223 15.884 73.3912 18.5676 73.4821 18.6951C74.32 18.9968 75.1456 18.7049 75.9393 18.6951L79.1336 18.9404C79.5439 18.9404 79.9518 18.9404 80.3622 18.9404L80.0526 19.4654L74.2512 19.902C73.6222 20.5815 73.03 20.9789 72.632 19.8701C71.5336 20.5079 70.0765 19.9339 69.0593 19.431C68.4327 19.1882 68.671 18.4277 69.305 18.4498C69.3517 18.3247 69.2583 18.0843 69.305 17.9592C69.1797 17.812 69.0863 17.6722 69.1084 17.5545C69.2116 17.0197 70.278 14.8022 70.7793 14.525H70.7768Z" fill="white"/>
<path d="M80.3605 18.9399C81.0608 18.8663 81.8544 18.9914 82.5719 18.9399L82.3262 20.4092C81.9331 20.5809 82.0387 21.0789 81.8348 21.3904C80.8298 21.0372 79.7437 21.0862 78.5741 21.5351L77.3038 21.5131C76.2964 21.2408 75.198 21.2457 74.0112 21.5302C71.8858 21.0126 69.9888 21.1304 68.3204 21.8835C68.0894 21.6627 68.2172 21.2727 68.3204 20.9023C68.3425 20.8238 68.2958 20.7281 68.3204 20.657C67.8904 20.3454 68.4236 19.1655 69.0576 19.4305C69.952 18.9497 70.8931 19.742 71.6376 19.7052C72.1192 19.6831 72.7949 19.0453 72.9866 19.1852C73.0947 19.2637 73.0136 20.2007 73.478 20.1639L73.623 19.4133C74.8466 19.4427 76.0801 19.2367 77.2915 19.1655C78.5029 19.0944 79.1098 19.0699 80.3605 18.9374V18.9399Z" fill="white"/>
<path d="M75.9367 12.5625C77.0719 13.5045 78.1628 12.8201 79.2538 12.8078C80.0057 12.798 80.7601 13.3916 81.5857 12.8078C81.5881 12.9697 81.593 13.1341 81.5857 13.2984H75.6885C75.8261 13.0703 75.8457 12.798 75.9342 12.5625H75.9367Z" fill="white"/>
<path d="M79.1308 18.9382C78.1234 18.9382 76.7523 19.1442 75.9365 18.6929C76.9366 18.6831 78.32 18.4966 79.1308 18.9382Z" fill="white"/>
<path d="M81.8342 21.3925C81.4779 21.9395 81.4509 22.0499 80.7407 22.1406C77.4359 22.5626 73.3324 21.8119 69.9219 21.8831C69.3174 21.8953 68.8653 22.4007 68.3223 21.8831L68.568 20.9019C69.1774 21.0908 69.9489 20.6517 70.4256 20.6811C71.4699 20.7449 72.9442 21.076 74.2096 21.0368C74.7797 21.0196 75.765 20.6173 76.05 20.6419C76.3056 20.6639 76.0672 21.1472 76.308 21.1496C76.5488 21.1521 76.3031 20.6468 76.5587 20.6443C76.9346 20.6443 77.1533 20.9902 77.3965 21.0392C77.4703 21.054 78.6915 21.0491 78.7652 21.0392C79.8906 20.9289 80.9324 19.8593 81.8391 21.39L81.8342 21.3925Z" fill="white"/>
<path d="M70.4866 0.859218C70.3613 1.63192 68.973 4.90914 68.5701 5.94186L57.0558 5.9762L54.81 12.0744H58.8643C58.9699 12.0744 59.6924 11.2796 59.4786 11.0956L56.2843 11.0907C56.4931 10.3794 57.3703 7.22969 57.7561 7.04326C60.5597 6.50605 63.4027 6.72437 66.2456 6.69003C66.9557 6.68022 68.0049 5.95167 68.0786 7.16837C67.0196 9.86423 65.619 13.897 64.361 16.3377C64.1054 16.8332 63.8916 17.2821 63.3486 17.5323C58.4613 17.9444 53.5691 17.9616 48.6671 17.9616C47.6351 18.1186 46.4532 18.2658 45.4728 17.9616C45.3352 17.0687 46.6719 15.2412 47.0675 14.2796C48.0872 11.7874 48.8686 9.16757 49.8957 6.67776C50.4633 5.29917 51.8221 1.42341 52.9991 0.822423C54.1269 0.248418 56.5152 0.621276 57.8913 0.555045C58.4736 0.528062 59.0117 0.309744 59.5916 0.290119C63.1496 0.174828 66.7419 0.498626 70.2901 0.169922C70.6046 0.393146 70.5407 0.532968 70.4866 0.859218Z" fill="white"/>
<path d="M68.5657 5.93995C68.4133 6.32998 68.2487 6.72001 68.0742 7.16646L68.1406 6.39376C68.1602 6.39376 68.1799 6.39376 68.1995 6.39376L68.5657 5.9375V5.93995Z" fill="white"/>
<path d="M48.667 17.959C48.0822 18.3098 46.426 18.3294 45.7184 18.2043C45.5095 18.1675 45.5046 18.1626 45.4727 17.959H48.667Z" fill="white"/>
<path d="M68.8125 1.27924C68.3334 2.37083 67.9918 3.57035 67.5496 4.67911L56.2737 5.07896C56.1115 5.3586 55.9297 5.65051 55.7871 5.93996C55.3694 6.26867 55.0377 6.7887 54.792 7.49517C54.0573 7.07816 53.3595 6.97513 52.6936 7.18609C52.2562 6.81569 51.8139 6.48208 51.3643 6.18526C51.7205 5.30463 52.5486 2.27271 53.33 1.89249C54.7478 1.20565 59.3574 1.58832 61.1929 1.52454C63.569 1.0045 66.3406 1.04866 68.8101 1.27924H68.8125Z" fill="white"/>
<path d="M66.1088 7.65499C66.4921 7.73839 66.1997 7.99105 66.1039 8.26333C65.5068 9.96327 64.777 11.6141 64.1431 13.2969C63.6639 13.6035 63.4108 13.2969 63.3814 12.377L62.0348 12.6052C62.2437 13.9862 60.3959 13.53 59.7202 13.0492C59.246 12.9044 59.2386 12.6861 59.7202 12.5586C59.8357 12.1072 60.7375 10.655 60.7055 10.4809C60.5679 9.75477 58.0936 10.3435 57.5137 9.9878C57.8675 9.71552 58.182 8.00822 58.2754 7.92973C58.44 7.7899 59.5654 7.94199 59.9684 7.90029C61.6663 7.30175 64.1701 7.39742 66.1113 7.65499H66.1088Z" fill="white"/>
<path d="M55.7922 5.94016C54.824 7.91729 54.2466 10.6352 53.335 12.5633C53.62 12.9386 53.4873 13.0539 53.0893 12.8086C53.6102 13.8487 52.4922 13.8707 51.6862 13.4292C50.0743 13.8389 49.1505 13.6304 48.9121 12.8086C49.7549 10.6033 50.4773 8.38091 51.3693 6.18546C53.276 5.59919 52.3546 6.4234 52.5978 6.67606C52.7453 6.82815 53.6004 6.38415 53.9198 6.41604C53.9861 6.4234 54.2761 7.31139 55.055 6.91891C55.1729 6.48473 54.5046 6.80607 54.566 6.55586C54.6668 6.13395 55.2712 5.87638 55.4555 5.48145L55.7946 5.94016H55.7922Z" fill="white"/>
<path d="M48.1756 15.5054C48.7113 15.0933 49.8514 14.7278 50.3109 15.4367C50.9104 14.6934 51.4854 14.6174 52.0358 15.2086C53.7165 15.2282 55.3456 14.9142 56.9207 14.2617L58.0018 14.7695C58.363 15.1105 58.5841 15.0884 59.2304 15.0148C59.2869 14.7891 59.368 14.7965 59.4761 15.0148C60.0314 14.3868 61.6753 14.3623 62.1225 15.0688C64.3462 14.8725 62.1102 16.8153 61.8129 16.2413C61.7907 16.1971 62.7294 15.9175 62.4247 16.4866C62.2576 16.5479 62.1814 16.7074 61.8325 16.7417C58.2967 17.1072 53.9254 16.6019 50.2519 16.7221C49.6548 16.7417 47.3648 17.4163 47.1928 16.597C47.1289 16.2928 47.6621 15.5962 47.9275 15.5054C47.984 15.2773 48.0651 15.2846 48.1732 15.5054H48.1756Z" fill="white"/>
<path d="M64.1441 13.2976C63.9942 13.5208 63.9696 13.7833 63.8984 14.0335C63.6232 14.6247 63.3504 14.5854 63.0089 14.058C61.9842 14.9092 60.8613 14.6713 59.7212 14.2788C59.0111 14.1831 58.2715 14.4554 57.6572 14.7915C57.0208 14.269 56.2197 14.3058 55.2541 14.8994C54.9224 14.5879 54.6521 14.6762 54.4408 15.1668C53.6717 14.9239 52.8559 14.7081 51.9983 14.5216C51.4185 14.8798 50.5142 15.2894 50.0056 14.6566C49.3888 15.049 48.777 15.3311 48.1726 15.5053C48.089 15.5053 47.9834 15.4857 47.9268 15.5053C47.6492 14.6345 48.632 13.5331 48.9097 12.807C49.6518 13.3908 50.814 12.9174 51.6494 12.937C52.4013 12.9566 52.4505 13.7808 53.0869 12.807C55.1902 12.9689 57.4016 13.0498 59.7212 13.0523C59.8023 13.0523 60.0308 12.856 60.3183 12.8462C60.6525 12.834 61.4903 13.2068 61.6869 13.0498C61.7434 13.0057 61.252 12.4439 61.6746 12.1839C61.7655 12.1275 63.6723 11.8258 63.778 11.8331C64.3775 11.8797 63.6305 13.0744 64.1416 13.2976H64.1441Z" fill="white"/>
<path d="M59.721 14.279C60.4286 13.5554 60.893 14.2962 61.5 14.2471C62.0528 14.2005 62.5615 13.6192 63.0529 13.5358C63.5443 13.4523 63.3158 14.2079 63.8957 14.0337C63.8097 14.3379 63.048 16.1752 62.9276 16.3248C62.7187 16.5848 62.5516 16.4377 62.4214 16.4867L61.8096 16.2414L62.9128 15.508C62.3821 15.3632 61.414 15.9495 61.1928 15.3804C61.097 15.1302 61.8071 15.4466 61.6818 15.0174C61.065 14.9242 60.4729 15.1278 59.8733 15.1817C59.7112 15.1964 59.5318 15.01 59.4728 15.0149C59.1386 14.6151 59.0428 14.2717 59.7185 14.279H59.721Z" fill="white"/>
<path d="M61.1947 1.52415C60.8507 0.967313 59.6246 1.46037 59.2314 1.27639V1.03354H65.249C66.4678 1.03354 67.7062 1.02619 68.9348 1.03354C69.2837 1.16601 68.8193 1.26658 68.8119 1.27885C66.2712 1.0826 63.6936 1.43584 61.1947 1.52415Z" fill="white"/>
<path d="M66.1086 7.65882C64.6491 7.34484 61.5408 7.73977 59.9658 7.90412L58.9854 7.41597C61.3098 7.56315 63.8554 7.09708 66.1086 7.65882Z" fill="white"/>
<path d="M59.7212 12.5625C59.6868 12.6999 59.7434 12.8961 59.7212 13.0531C57.8071 13.1046 55.8832 13.0531 53.9641 13.0948C53.5857 13.1046 53.2712 13.4407 53.0869 12.8078C53.1508 12.7121 53.2982 12.6336 53.3326 12.5625C53.5882 12.9697 54.2639 12.8078 54.6816 12.8127C56.3082 12.8323 58.1757 12.982 59.7212 12.5625Z" fill="white"/>
<path d="M48.1747 15.5048C48.128 14.8964 49.9463 14.0673 50.2731 14.033C50.3714 14.0232 50.3763 14.5039 50.5311 14.5383C51.2068 14.683 51.5754 14.0477 51.9858 14.0428C52.0767 14.0428 53.207 14.2734 53.7131 14.3175C53.8188 14.3273 53.8606 15.1834 54.3201 14.7689C54.379 14.7149 54.0547 14.3053 54.0719 14.2832C54.7697 13.7779 55.3078 14.5309 55.6297 14.4917C55.9516 14.4524 56.4209 13.6724 57.1212 13.7779C57.2858 13.8024 57.104 14.4892 58.1139 14.2807C58.9616 14.1066 59.2811 12.7182 59.7258 14.2807C59.6619 14.347 59.6447 14.8621 59.4801 15.0166C59.3941 15.024 59.2933 14.9945 59.2344 15.0166C58.8068 15.1761 58.168 15.2325 58.0058 14.7713C57.8363 14.84 57.8019 15.2349 57.6372 15.2668C57.1089 15.3699 57.3424 14.9406 57.2195 14.8277C56.8214 14.4622 55.0916 15.4606 54.6788 15.5023C53.4797 15.6225 53.9073 15.2914 52.4403 15.7329C52.2708 15.7844 51.6811 15.5784 51.3715 15.7525L51.6196 15.2644H50.88L51.1282 15.7501C49.8898 16.2578 49.8579 15.5072 49.7743 15.495C49.1821 15.4042 49.0323 15.8973 48.7915 15.9954C48.5875 16.0788 48.9045 15.5097 48.1796 15.5048H48.1747Z" fill="white"/>
<path d="M59.2289 15.0131C59.1552 15.04 59.2043 15.3957 58.7326 15.3884C58.2608 15.381 57.8406 15.2559 58.0003 14.7678C58.0519 14.7457 58.6023 15.0548 58.9783 14.5225L59.2289 15.0131Z" fill="white"/>
<path d="M43.5077 7.65702C43.8788 7.69381 43.7952 7.60796 43.5593 7.45342C42.864 7.59324 40.3233 7.27926 41.6034 6.45995C41.7853 6.34466 46.1 6.32503 45.2277 7.16396C44.6429 8.22857 44.4169 9.4747 43.9992 10.5982C43.5077 11.9228 42.8664 13.1248 42.5249 14.523C43.1097 14.8811 42.9057 15.2 42.2792 15.2589C41.6526 15.931 41.3847 16.8779 41.0506 17.7119C40.3233 19.5247 39.8023 22.2794 38.102 23.3538C37.554 23.6556 37.1437 23.6556 36.8734 23.3538L31.4529 23.4814C30.0622 23.2557 31.2858 22.6449 32.2343 22.7455C34.3794 23.0423 36.3353 22.8363 38.102 22.1298C37.7064 21.8452 37.9202 21.7349 38.3477 21.6392C38.1364 21.573 38.1413 21.492 38.3477 21.3939C39.134 20.0177 39.7876 18.465 40.3134 16.7332C40.365 14.5083 41.4265 11.7364 42.3946 9.64396C42.6772 9.03316 43.0286 8.36103 43.5053 7.90232C43.2915 7.83364 43.294 7.75023 43.5053 7.65702H43.5077Z" fill="white"/>
<path d="M36.8741 23.3558C37.2525 23.2969 37.7095 23.395 38.1027 23.3558C37.653 23.6403 37.707 23.7777 37.0043 23.8538C34.6946 24.1015 31.198 24.0574 28.7655 24.0917C26.9496 24.1187 24.0502 24.3321 22.3768 24.0917C22.3547 23.4294 21.5979 22.9756 21.453 22.4384C21.0524 20.9567 22.34 19.0115 22.8683 17.7139C23.1459 17.8635 23.3892 18.072 23.3106 18.386C21.6692 21.9944 21.3522 23.2503 25.8144 23.4269L31.1514 23.0982L31.4757 23.4809L36.8741 23.3533V23.3558Z" fill="white"/>
<path d="M27.7825 6.91943C29.7237 5.80822 31.6329 7.28002 28.5197 7.65533L28.5099 8.28821C27.0257 10.9154 25.8733 13.7216 25.0551 16.7069L24.345 17.2221C24.8069 18.2597 24.0255 19.5426 23.1164 20.1657C23.6152 20.4306 23.6447 20.8133 23.0648 20.7691C22.453 21.6203 22.8658 22.3734 23.8535 22.6187C24.0993 22.263 24.5121 22.1919 25.0969 22.4102C29.4878 22.2041 33.8222 22.1109 38.1026 22.1281C36.4588 23.7324 33.3333 22.3047 31.225 23.1118C31.166 23.5386 31.7828 23.3423 32.0801 23.3546C33.6723 23.4159 35.2818 23.3105 36.874 23.3546C34.7535 23.6809 32.9893 23.5214 30.8442 23.5901C28.8121 23.6539 21.8264 24.9761 21.6396 21.7405C21.5782 20.6759 22.9911 18.9147 22.8682 17.7127C24.2246 14.3815 25.6989 11.0896 26.7997 7.65533C26.3279 7.19907 27.4189 6.48034 27.7825 6.91943Z" fill="white"/>
<path d="M27.7822 6.91965C28.0378 6.50509 28.4481 6.46339 28.883 6.42414C32.9988 6.04393 40.7118 6.1028 44.8718 6.42905C45.6261 6.48792 45.5032 6.30885 45.4738 7.16495C45.4197 7.18212 45.2354 7.17476 45.228 7.16495C45.1887 7.11589 45.3509 6.73813 45.0708 6.66699C44.2575 6.45849 42.7119 6.83134 41.788 6.6768C41.5497 7.63348 43.626 6.89512 43.9626 7.44705C44.0339 7.56479 44.1788 8.47731 43.7562 8.39146L43.508 7.65801C42.4588 8.15352 41.2327 8.31542 39.8297 8.14861H28.8167L28.5218 7.65801L28.3818 7.18212C29.227 7.6114 29.4949 7.57706 29.7504 6.67926C29.6177 6.58114 28.0673 6.82153 27.7847 6.9221L27.7822 6.91965Z" fill="white"/>
<path d="M43.5084 7.65723V7.90253C42.7123 9.88211 41.9333 10.2795 41.1692 9.09224C40.8006 8.86166 39.4835 10.2378 39.3337 10.6695C38.3508 11.4962 36.8937 12.5829 35.6627 11.9328C35.0975 12.1855 34.525 12.3964 33.9255 12.5657L33.7068 13.0563L31.0948 13.0686L29.478 17.4717H35.0435L35.3998 17.9623C35.6135 18.031 35.6111 18.1144 35.3998 18.2076L34.9403 18.7007C34.2105 18.8332 29.5837 19.3041 29.22 19.1937C29.0087 19.13 28.8785 18.8994 28.7654 18.6982C28.274 19.5985 26.4606 18.4726 26.3574 17.6214C25.5122 18.3327 24.06 18.7326 24.3425 17.2264C25.3475 14.5526 26.2002 11.3171 27.5639 8.79297C27.8317 8.29501 28.0479 7.98593 28.5197 7.65968H43.5084V7.65723Z" fill="white"/>
<path d="M43.5067 7.90137C42.546 10.8867 41.3247 13.7641 40.3124 16.7322C39.9414 17.7625 39.531 18.7437 39.0838 19.6758C38.5457 19.666 37.838 19.4943 38.0248 18.7486C37.1574 19.0871 35.8232 19.119 35.3981 18.204V17.9587L35.2334 17.2547L36.8355 13.1557C35.7568 13.1802 34.7862 12.984 33.9262 12.5621C35.2163 12.0396 33.398 12.1083 33.9262 11.5809C33.9778 11.5294 34.4447 11.8605 34.769 11.8311C35.2064 11.7918 35.575 11.181 36.1377 11.338L36.0148 11.8286C37.3097 11.5735 38.4253 10.9308 39.3295 9.98643L38.5948 9.62338C39.2534 9.6381 40.6613 9.29713 40.0667 8.64218C40.4746 8.68878 40.9955 8.54406 41.369 8.63482C41.7031 8.71577 41.6638 9.59395 42.2732 9.37072C42.1847 8.60293 43.6369 9.28977 42.5263 8.26932L43.5067 7.90627V7.90137Z" fill="white"/>
<path d="M23.8514 22.6171C21.7431 22.2639 23.3182 19.3595 24.0553 20.9245C25.5665 21.1085 27.2078 21.2385 28.9745 21.317L29.2546 21.6384C29.8861 20.824 31.7192 20.8141 32.6627 21.084C33.5276 20.6988 34.5252 20.7185 35.658 21.1478C36.4099 20.1715 37.781 20.9613 38.3437 21.6384C38.2675 21.7708 38.1618 22.0823 38.098 22.129C36.9628 22.9703 32.9306 22.5509 31.3309 22.6097C29.466 22.6784 25.4805 23.3383 23.8464 22.6196L23.8514 22.6171Z" fill="white"/>
<path d="M28.7657 19.9202C29.0729 19.3266 29.7166 19.3217 30.697 19.9055C31.7856 19.5277 32.9674 19.4271 34.2427 19.6062C35.4737 19.3266 36.5082 19.4811 37.3461 20.0747C38.2602 18.4778 39.1546 19.5228 38.5943 20.9014C38.7909 21.132 38.641 21.338 38.3486 21.392C38.3167 21.4607 38.383 21.5784 38.3486 21.6373H36.8719L37.12 21.1492C36.2846 20.8082 36.1249 21.5784 35.975 21.6226C35.4959 21.76 33.9773 21.208 33.3459 21.2326C32.1492 21.2792 30.6282 21.6079 29.2571 21.6373C28.8296 21.6692 28.6576 21.6275 28.6576 21.235C27.6035 21.3577 26.6771 20.5138 27.7828 19.9202C28.0752 19.2334 28.4733 19.2358 28.7657 19.9202Z" fill="white"/>
<path d="M40.3134 16.7324C39.8686 18.035 39.5222 19.3522 38.9718 20.6793C38.817 21.0546 38.9988 21.5379 38.3477 21.3931C38.4263 21.2288 38.5221 21.0693 38.5934 20.9025C38.6032 20.2746 38.7678 19.8674 39.0848 19.676C39.4681 18.6948 39.7212 17.6229 40.3134 16.7324Z" fill="white"/>
<path d="M24.3419 17.2236C25.2043 19.0118 26.455 15.7248 27.5362 17.4664C25.5582 17.4223 28.0522 18.6684 28.7647 18.6954C29.4994 18.7126 29.4429 19.7894 28.7647 19.9219C28.4429 19.9096 28.1013 19.9023 27.7819 19.9219C27.8654 20.4886 27.6123 20.6873 27.0226 20.5155C26.5042 21.1656 25.853 21.276 25.4697 20.4419L23.7595 20.3806C23.5163 20.8001 23.2165 20.6578 23.1133 20.1672C23.4647 19.1369 23.9684 18.2146 24.3419 17.2236Z" fill="white"/>
<path d="M23.1143 20.1659L23.3502 20.3033C23.161 19.6434 25.5518 19.8642 25.8295 20.0432C26.058 20.1929 25.999 20.7252 26.1858 20.6565L27.1711 19.6777C27.4315 20.5191 27.4635 19.9427 27.7829 19.923C27.4561 21.1618 28.8444 20.6638 29.2597 20.9091C29.2916 20.9288 29.0066 21.4365 29.2572 21.6401C27.5421 21.6794 25.5076 21.7579 23.7679 21.3973C23.6156 21.3654 23.5492 20.5019 23.1192 20.9067C22.5369 21.4513 23.2716 22.3662 23.8539 22.6238C21.9103 22.4398 22.7384 21.2845 23.1168 20.1708L23.1143 20.1659Z" fill="white"/>
<path d="M35.3989 18.2036C36.0206 18.2134 36.6029 18.5299 37.2467 18.4735C37.9224 18.4146 38.4802 17.534 38.5294 18.5176C38.5638 19.2167 38.146 18.9175 39.0847 19.673C38.9299 20.0704 38.7603 20.5095 38.5932 20.8995V19.6754C37.9151 19.4964 37.8217 20.5708 37.4728 20.6517C37.1558 20.7253 36.716 20.0557 36.2319 19.987C35.4923 19.8815 34.1532 20.3108 33.3226 19.9355C32.932 20.009 33.3595 20.8725 32.5757 20.8921C32.2071 20.9019 32.4381 20.22 32.411 20.1979C32.244 20.0679 31.6174 20.0606 31.352 19.9109L31.1014 20.6542C30.1234 20.1685 29.8949 19.9575 28.7695 19.9158V18.6893C30.6517 18.758 33.416 18.1644 35.4039 18.1987L35.3989 18.2036Z" fill="white"/>
<path d="M33.9276 12.5615C33.2445 12.5713 31.1068 12.4168 30.7235 12.6744L28.7676 17.9557H35.4019C36.3946 16.3269 36.8295 14.3252 37.6109 12.564C36.3872 12.5713 35.1513 12.5444 33.9276 12.5615ZM36.1391 13.5427L35.1562 16.7316H30.4876C30.5343 16.2092 31.4827 13.5427 31.839 13.5427H36.1391Z" fill="white"/>
<path d="M19.1841 15.0182C18.2356 15.0378 18.0317 14.7778 18.5723 14.2332L18.6927 13.5464C18.5256 13.4409 18.415 12.808 18.4396 12.6192C19.85 9.52836 20.9999 6.40323 21.887 3.24375C21.4275 2.94202 20.9508 2.69918 20.4618 2.51765L7.58385 2.40972C6.51253 5.22087 5.42155 8.02712 4.30846 10.826L3.70646 10.8481C3.19537 11.4123 2.95948 12.1506 2.99388 13.0656C2.37222 13.593 1.29107 16.1049 1.80216 16.7893C2.05033 17.1229 8.11214 17.5767 8.92546 17.1229C11.0337 17.5791 13.2574 17.4442 15.4271 17.2995L15.749 17.7165C15.577 18.2807 15.115 18.1899 14.6556 18.2218C13.0584 18.3298 11.2352 18.1998 9.60609 18.2071C9.35055 17.7999 8.67237 17.9618 8.25711 17.9569C6.49533 17.9397 4.72863 17.9888 2.97177 17.9618L2.31079 17.8416C0.632553 18.109 -0.048079 17.822 0.268894 16.9806C1.47782 12.9626 3.532 8.90775 5.05052 4.95104C5.46578 3.86681 5.77047 2.00007 6.30122 1.0483C6.90568 -0.0359322 9.87638 0.778468 10.9477 0.800545C13.5941 0.859417 19.5551 0.322208 21.6928 1.11208C22.8379 1.534 23.6979 3.05241 23.5111 4.22986C23.2433 5.92243 20.1227 13.4434 19.1865 15.0207L19.1841 15.0182Z" fill="white"/>
<path d="M3.70622 10.8438C4.36474 11.2927 4.20994 12.0752 3.46051 12.3156C3.98879 12.7228 3.82417 13.1325 2.96907 13.5421C3.38925 13.9518 3.14353 14.5258 2.23193 15.2592C2.12627 15.7008 2.12873 16.1472 2.23193 16.6035C3.31062 16.5372 4.37703 16.5789 5.42623 16.731L5.88326 16.2919C9.2766 16.6844 12.6478 16.6673 15.992 16.2404C16.3508 15.6787 16.7611 15.4334 17.2206 15.5045C17.1567 15.2764 17.2378 15.193 17.4663 15.2592C17.4614 14.7539 17.7882 14.3442 18.4492 14.0327C18.2329 13.8414 18.3632 13.4881 18.6949 13.5421C18.6408 13.7923 19.0708 14.2682 18.4492 14.7662C19.0536 14.6705 19.2674 14.1946 19.1863 15.0139C18.3902 16.3582 17.4491 17.5283 15.7463 17.7122C15.0165 17.7907 9.66974 17.8202 9.40191 17.6509C9.27414 17.57 9.47071 17.2192 9.23483 17.2192C8.99894 17.2192 9.19797 17.5675 9.06774 17.6509C8.85151 17.7883 5.17806 17.7637 4.55886 17.722C3.99617 17.6828 3.70622 17.3639 3.3057 17.2903C2.74793 17.1897 2.1361 17.7564 1.55867 16.5544C1.26381 15.9412 1.70855 13.704 2.0157 13.3238C2.05747 13.2723 2.76267 13.6231 2.96662 12.6762L2.4801 12.5609C2.72582 12.0016 2.72827 10.5396 3.70622 10.8413V10.8438Z" fill="white"/>
<path d="M0.266352 16.9766C-0.0801073 18.4852 2.14362 17.1851 2.96922 17.9578C2.21733 17.9455 0.757783 18.1099 0.17298 17.97C-0.134165 17.8964 0.0722364 17.5555 0.0206361 17.4672C0.0132646 17.2709 0.231952 17.0943 0.266352 16.9766Z" fill="white"/>
<path d="M21.8872 3.24126C21.7643 3.67054 21.4006 3.81526 20.7962 3.68035C20.6193 4.99026 19.5651 4.98044 18.5823 4.47758C18.4152 4.91667 17.9582 5.0712 17.5699 4.84062C18.5503 6.42036 16.9262 7.36968 15.501 6.67547L14.9555 7.24212L10.0535 7.33779L8.22291 11.557L7.63811 11.5815C7.82485 12.6265 7.15404 12.8105 5.62324 12.1334C4.60352 12.7442 3.88111 12.8056 3.46094 12.3174C3.59854 11.9347 3.59854 11.2773 3.70665 10.8456C4.633 9.7074 6.69456 2.23307 7.38993 1.88965L20.5234 2.02947C21.4154 2.16929 21.607 2.49309 21.8896 3.24126H21.8872Z" fill="white"/>
<path d="M2.96859 13.5438C3.42808 12.7465 4.17751 12.6361 5.21443 13.2151C5.69849 12.7784 6.32998 12.695 7.1089 12.9648C9.0132 12.2952 11.0453 12.175 12.9004 12.6165L13.1805 13.529L16.4977 13.0728L16.8786 13.453C17.4658 13.0286 18.1563 12.9452 18.2005 13.7891V14.0344C17.8246 14.4121 17.5788 14.8193 17.4634 15.2609C17.3896 15.3443 17.2987 15.4301 17.2176 15.5062C16.7188 15.7343 14.1536 15.8054 13.8759 15.6828C13.2985 15.0327 12.3795 14.942 11.1165 15.4105L10.576 15.0793C10.0452 15.3639 9.61766 15.543 9.14834 15.0744C7.17525 15.3737 4.41094 15.6533 2.38133 15.4816C2.32482 15.4767 2.27567 15.3811 2.23145 15.2609C2.44768 14.6182 2.78676 14.0662 2.96859 13.5438Z" fill="white"/>
<path d="M5.42613 16.7322C4.34252 16.5802 3.24172 16.5385 2.12371 16.6071C1.58314 16.1705 3.12132 14.3823 3.49235 15.4076C5.49493 15.5891 7.355 15.4248 9.06764 14.9121L9.58364 15.3438C11.08 15.4174 12.5765 15.3806 14.0753 15.3169L14.235 15.7142C14.6208 15.388 15.8985 15.3586 16.3138 15.5352C16.6234 15.6652 16.4121 16.1999 15.9919 16.2416C15.9722 16.2588 16.0705 16.59 15.815 16.7249C14.5913 17.3676 7.22231 16.9211 5.42859 16.7322H5.42613Z" fill="white"/>
<path d="M2.23264 15.262C2.8543 15.4288 2.78796 14.6855 3.0951 14.5285C3.65042 14.2415 3.39979 15.1982 3.46122 15.2644C3.62831 15.4386 7.58187 14.7247 8.24776 14.7689L8.49348 15.262C9.13726 13.9349 9.11514 14.8327 9.72943 14.9185C9.84 14.9333 10.5747 14.4353 10.9212 14.531C11.103 14.58 11.0784 15.0093 11.1816 15.0044C11.42 14.9921 12.0023 14.6683 12.4642 14.6144C13.0785 14.5457 13.5749 15.0682 14.2678 14.2832C14.457 14.5383 13.5061 16.4247 14.8723 15.2644C15.0123 15.1467 14.43 14.5359 15.3735 14.7714L15.2531 15.5073C16.118 15.6937 16.5136 14.683 17.2188 15.5073C17.0247 15.6888 16.9019 16.0813 16.6095 16.2628C16.2532 16.4836 16.0148 16.2235 15.9903 16.2432C16.1303 15.5244 15.6094 15.7231 15.1425 15.755C13.9803 15.8311 10.2626 15.9782 9.2724 15.7599C9.0832 15.7182 9.10777 15.2521 8.98 15.2472C8.58931 15.235 7.84725 15.8777 7.23542 15.9169C6.44421 15.9684 2.89853 15.3037 2.47836 15.6152C2.1491 15.8605 2.21544 16.1279 2.23264 16.486C3.07053 16.5621 4.01162 16.3854 4.82986 16.4786C5.14437 16.513 5.3778 16.7289 5.42449 16.7338H1.74121C1.93287 16.253 2.06801 15.7501 2.23264 15.262Z" fill="white"/>
<path d="M18.4462 14.0332C18.0826 14.7912 17.9032 14.7691 17.4634 15.2597C16.9007 14.5361 17.5764 14.2859 18.2005 14.0332H18.4462Z" fill="white"/>
<path d="M3.46021 12.3172C4.12365 12.3516 5.10159 11.6868 5.58811 11.6451C6.48989 11.5715 6.87566 12.6705 7.63738 11.5813C7.50224 12.3344 8.01578 12.0425 8.4851 12.0695C10.355 12.1774 12.5026 12.3025 14.2717 12.0695C14.3086 12.0646 14.456 12.3246 14.6083 12.3246C14.773 12.3246 14.7435 11.9076 15.0678 11.7506C16.2202 11.1913 16.1981 12.0204 16.6404 12.2682C17.6626 12.8446 18.5054 11.9247 18.2007 13.7841C16.8861 13.1537 17.1687 14.7776 15.9893 14.1521L16.7239 13.5413C15.8271 13.5903 13.768 14.1619 12.9399 13.9853C12.4583 13.8822 12.7851 12.7931 12.1807 12.5625L11.1953 13.2911L11.0725 12.5576C10.5467 12.5625 11.1462 13.1414 10.4631 13.0507C10.3845 13.0409 9.59819 11.596 9.72351 13.0507C8.75047 12.7612 7.91504 13.3475 7.14595 13.4481C6.76263 13.4971 6.22697 13.2003 5.83383 13.2862C5.64217 13.3279 5.6692 13.7915 5.5316 13.7988C5.3424 13.8111 4.2981 13.3818 3.82633 13.2886C3.52901 13.2297 3.34227 13.2445 3.58307 13.5388H2.96387C3.12358 13.0826 3.3177 12.6925 3.4553 12.3123L3.46021 12.3172Z" fill="white"/>
<path d="M21.8865 3.24188C21.9455 3.39642 22.142 3.47737 22.1543 3.84287C22.2207 5.83226 19.2401 11.0425 18.6922 13.5445C18.5448 13.6745 18.5251 13.8708 18.4465 14.0351C18.3728 14.175 18.2917 14.1725 18.2008 14.0351C17.987 13.9665 17.9894 13.883 18.2008 13.7898C17.9944 13.1103 17.4538 12.7792 16.5815 12.7915C15.8935 11.9255 15.3652 11.8569 15.0015 12.5879C14.3897 12.919 13.9966 12.7154 14.2693 12.0752L13.9229 11.5502L15.9009 7.46106C15.4905 7.30898 15.3185 7.14462 15.4954 6.67855C16.3063 6.54609 17.0877 6.73252 17.4587 5.56979C17.6553 4.95408 16.8764 5.32449 16.756 5.18467C16.6896 5.10617 16.6921 4.26233 16.724 4.22799C16.8665 4.07345 17.8666 4.56651 18.1983 4.47084L18.073 3.98024C18.7831 3.71777 19.7168 4.81917 20.1911 4.05873C20.5891 3.42586 19.422 3.04564 21.8791 3.24433L21.8865 3.24188Z" fill="white"/>
<path d="M19.6595 4.73232C19.7111 4.76666 20.0871 5.55162 20.4114 5.69635L18.9371 5.45105C18.8143 5.04385 19.3426 4.52626 19.6595 4.73232Z" fill="white"/>
<path d="M15.4996 6.6748C13.6125 6.98143 11.7352 6.71405 9.84324 6.79255C9.46238 7.02559 8.19694 10.7811 7.63671 11.5808C7.54334 11.674 7.47454 11.7599 7.42539 11.8384C7.26568 12.0935 7.31482 12.275 7.48436 12.3952C7.67848 12.5375 8.0274 12.5964 8.40826 12.5964H8.41317C8.80877 12.5964 9.23877 12.5301 9.55575 12.4173C9.5582 12.4173 9.5582 12.4149 9.56066 12.4149C9.63192 12.3903 9.69826 12.3609 9.75723 12.3315L9.93906 12.383L10.7401 12.6111C10.7991 12.6037 10.8556 12.5988 10.9146 12.5939C10.9662 12.5866 11.0202 12.5817 11.0743 12.5768C11.551 12.5375 12.062 12.5301 12.61 12.5522C12.9614 12.562 13.325 12.5866 13.7059 12.6258L14.2661 12.0714C14.701 10.5383 16.0942 8.72307 16.4677 7.27579C16.6373 6.61348 15.6421 7.13106 15.4947 6.6748H15.4996ZM9.35672 10.8425C9.60489 10.4647 10.4231 7.90131 10.5828 7.90131H15.0057C15.1188 8.00679 14.0253 10.3813 13.8853 10.5849C13.2169 11.5538 10.5706 10.4917 9.35672 10.8425Z" fill="white"/>
</svg>
