<svg width="89" height="132" viewBox="0 0 89 132" fill="none" xmlns="http://www.w3.org/2000/svg">
<g clip-path="url(#clip0_1_3433)">
<path d="M34.3223 131.162C34.4299 130.621 34.7549 130.233 35.2972 130.231C35.991 130.229 36.1645 130.812 36.306 131.369C35.6441 131.301 34.9842 131.231 34.3223 131.163V131.162Z" fill="#04060F"/>
<path d="M40.2003 129.162C40.633 129.106 41.0257 129.473 41.0437 130.058C41.0596 130.595 40.7645 131.134 40.1365 131.154C39.5484 131.172 38.9702 130.892 38.9463 130.23C38.9243 129.637 39.2792 129.186 40.2023 129.162H40.2003Z" fill="#030510"/>
<path d="M2.90002 65.2673C2.8442 65.2314 2.83622 65.1894 2.87809 65.1376C2.85616 64.5727 3.37054 64.6406 3.67359 64.5049C4.42921 64.1656 5.21274 63.8882 5.53573 63.016C5.72114 62.7386 6.00027 62.525 6.1478 62.2316C7.07887 60.3855 8.91111 59.9863 10.6337 59.4435C11.2697 59.2439 11.9476 59.5073 12.6035 59.5852C13.1637 59.651 13.8217 59.8446 14.1227 59.2179C14.4437 58.5493 14.5514 57.7111 13.9532 57.1662C13.062 56.3539 12.8926 55.364 12.9225 54.2783C12.9763 52.2884 12.769 50.2946 13.0581 48.3087C13.1378 47.7659 13.3232 47.3208 13.7479 46.9276C14.5394 46.1932 14.5573 45.1473 13.7678 44.3969C13.1996 43.856 13.1657 43.3471 13.5425 42.7204C13.7818 42.3213 14.035 41.9321 14.2942 41.5469C14.5912 41.1078 14.677 40.6767 14.5135 40.1398C14.1486 38.9423 14.2304 38.8306 15.4146 38.5631C15.6599 38.5072 15.7476 38.3396 15.7795 38.15C16.0148 36.723 17.2608 35.8228 17.6676 34.4856C17.7373 34.2561 17.9507 34.0605 18.1799 34.0565C19.1469 34.0406 19.4141 33.2383 19.9344 32.6575C20.6302 31.8831 21.029 31.1027 20.8376 30.0509C20.6003 29.9032 20.3352 30.0529 20.2335 30.2006C19.6593 31.0329 18.7601 31.5318 18.152 32.3361C17.6436 33.0087 16.9997 33.5636 16.579 34.326C16.3557 34.7291 15.8333 34.7192 15.3967 34.5914C14.8903 34.4437 14.5892 34.0326 14.5932 33.5556C14.6032 32.38 14.1646 31.2784 14.1068 30.1188C14.0669 29.3524 13.8655 28.6099 13.7818 27.8515C13.726 27.3406 13.5565 26.7857 14.0669 26.3746C14.673 26.3846 14.5773 26.8696 14.6311 27.2348C14.8644 28.8115 15 30.4002 15.2591 31.9729C15.297 32.2024 15.3409 32.4319 15.4087 32.6535C15.4765 32.871 15.4964 33.1564 15.7476 33.2263C16.0865 33.3221 16.1623 32.9768 16.3218 32.7852C18.3953 30.3084 20.698 28.099 23.5052 26.5423C23.6946 26.5343 23.5052 26.3546 23.561 26.4764C23.5849 26.5303 23.561 26.5403 23.4892 26.5482C23.1962 26.5782 22.8373 26.6959 23.0008 26.1551C23.7664 25.8238 24.6057 25.9954 25.3952 25.7858C26.099 25.5982 26.7689 25.3887 27.2993 24.8638C28.5114 24.3828 29.7954 24.4646 31.0574 24.3927C31.2149 24.4087 31.3744 24.4367 31.518 24.5065C32.2218 24.8458 32.1719 24.4367 32.0603 23.9636C32.3833 23.4348 32.9136 23.9517 33.2964 23.7162C32.8923 22.6397 32.9568 22.023 33.4898 21.866C33.9483 21.9339 34.2554 22.2632 34.6063 22.5127C35.9939 23.4687 37.6048 23.4128 39.3832 23.6583C38.9705 23.1054 38.492 22.9637 38.2349 22.6045C38.0554 22.355 37.5909 22.1075 38.1152 21.7443C38.4342 21.7143 38.7313 21.8141 39.0343 21.888C43.0896 22.9458 47.1767 22.6484 51.4313 22.1534C50.4843 21.884 49.6908 21.6106 48.9491 21.2134C48.7478 21.1056 48.4527 20.9939 48.4926 20.7464C48.5404 20.441 48.8754 20.423 49.1346 20.4031C49.8064 20.3492 50.4444 20.5628 51.0924 20.6805C52.3604 20.912 53.6145 21.2054 54.9204 21.1775C55.7198 21.1615 56.4994 21.1575 57.1952 20.6985C58.216 20.7743 58.5928 21.7183 59.2727 22.2552C59.478 22.4189 59.6216 22.6524 59.811 22.836C60.0801 23.0995 60.2755 23.0496 60.3632 22.6783C60.4091 22.4867 60.4151 22.2832 60.4928 22.0995C60.5706 21.9159 60.6563 21.7143 60.8676 21.6684C61.1169 21.6166 61.2046 21.8441 61.2843 22.0097C61.6233 22.7202 61.9662 23.2112 62.9351 22.8041C63.4156 22.6025 63.5791 23.2591 63.631 23.6782C63.7207 24.4307 63.9858 25.0334 64.572 25.5643C65.0126 25.9655 65.1601 25.7679 65.3755 25.4246C66.2746 26.1351 67.2695 26.7079 68.2026 27.3705C69.4686 29.7076 70.3199 32.3581 72.9516 33.6674C73.153 33.7671 73.3843 33.849 73.4281 34.1224C73.1929 34.5535 72.7642 34.4477 72.3934 34.4876C71.8152 34.5495 71.231 34.5735 70.7406 34.9407C70.5751 35.3299 70.8562 35.4856 71.1134 35.6372C71.4563 35.8388 71.8212 35.9985 72.1741 36.1801C72.4073 36.2998 72.7323 36.3837 72.7562 36.6651C72.7881 37.0383 72.4093 36.9764 72.1781 37.0543C71.3885 37.3217 71.9049 37.649 72.1741 37.8746C73.4202 38.9144 74.738 39.8624 76.1237 40.7126C76.4586 40.9182 76.8374 41.0739 77.0567 41.4331C77.0129 42.3412 76.1556 42.1855 75.6611 42.5069C75.1866 42.7025 74.9394 42.1317 74.431 42.1456C74.5566 43.2872 75.7568 43.5227 76.1875 44.353C76.1037 44.7661 75.7428 45.1533 76.1894 45.6024C76.4008 45.814 76.2193 46.1253 76.02 46.3089C75.5475 46.742 75.5654 47.2569 75.5893 47.8517C75.7329 51.5001 75.6432 55.1484 75.6471 58.7988C75.6471 59.6111 75.0869 59.8207 74.431 59.9983C76.1256 59.7209 77.7984 59.6191 79.4731 59.6989C79.9755 59.7229 80.6674 59.5672 80.7511 60.4114C80.5298 60.5911 80.2666 60.631 80.0074 60.5791C78.558 60.2817 77.1424 60.5551 75.7269 60.8206C74.421 60.7308 73.4221 61.4433 72.4193 62.1179C71.3467 62.8423 70.2122 63.4411 69.006 63.9001C68.6472 64.0359 68.2584 63.9919 68.0371 63.6167C67.8357 63.2734 68.0251 62.9661 68.2584 62.7186C69.4387 61.4572 69.2273 60.0103 68.7927 58.5533C68.695 58.224 68.5993 57.9226 68.6751 57.5893C68.7668 57.1882 68.7588 56.803 68.5734 56.4238C68.3541 55.9747 68.4279 55.5995 68.8625 55.3001C69.3769 54.9449 69.347 54.5497 68.8804 54.1685C68.4239 53.7973 68.396 53.4081 68.8047 52.985C69.1496 52.6277 69.1456 52.2944 68.7469 51.9731C68.4478 51.7336 68.4199 51.4482 68.5694 51.0869C69.5683 48.658 69.5005 46.265 68.2664 43.9299C68.1248 43.6645 67.9853 43.401 67.9195 43.1076C67.5586 41.5209 66.3045 40.5829 65.2638 39.5051C64.9608 39.1918 64.6338 38.9363 64.4942 38.5072C64.3666 38.118 64.1314 37.7907 63.8024 37.5532C63.2143 37.1281 62.8036 36.5573 62.5882 35.8867C62.351 35.1522 61.8884 34.799 61.1468 34.7411C60.116 34.6613 59.4102 34.312 59.3026 33.0886C59.2268 32.2324 58.3795 31.911 57.6677 31.6516C56.4755 31.2145 55.3809 30.6596 54.3801 29.8533C53.5945 29.2187 52.5857 29.2446 51.6108 29.3803C50.3647 29.556 49.1246 29.8493 47.8586 29.512C47.6672 29.4621 47.416 29.51 47.2824 29.3823C46.2716 28.4343 44.9557 28.7716 43.7814 28.5421C42.8045 28.3525 41.8535 28.59 41.0141 29.1229C40.4678 29.4701 39.9036 29.54 39.2995 29.4342C37.4134 29.1089 35.9022 30.0569 34.3969 30.9331C33.1229 31.6755 31.8968 32.4419 30.4254 32.8111C29.2491 33.1065 28.5633 34.1184 28.0629 35.1882C27.8974 35.5434 27.8376 35.9486 27.696 36.3238C27.4548 36.9645 27.05 37.3995 26.3483 37.5013C25.1999 37.669 24.5998 38.3595 24.4642 39.4912C24.3745 40.2376 24.0335 40.8044 23.3158 41.1118C22.7356 41.3593 22.602 41.8602 22.626 42.427C22.6579 43.1635 22.4864 43.8042 21.8644 44.2772C21.5872 44.4867 21.4636 44.8041 21.4457 45.1513C21.3699 46.6382 20.9094 48.0094 20.2076 49.3106C20.0142 49.6679 19.9145 50.0671 19.9025 50.4602C19.8268 52.6836 19.6952 54.9069 19.9982 57.1263C20.068 57.6392 20.2833 58.0464 20.6083 58.4535C21.1486 59.1301 21.6889 59.8606 20.9712 60.7647C20.718 61.084 20.9413 61.3155 21.1526 61.5391C21.4517 61.8584 21.8364 62.064 22.1794 62.3234C22.7037 62.7186 23.0167 63.3074 22.7256 63.8862C22.4605 64.4111 21.8504 64.1736 21.3699 64.0538C21.2423 64.0219 21.1127 63.984 20.9911 63.9341C19.5098 62.4152 17.3864 62.044 15.6599 60.9603C15.0877 60.601 14.3959 60.5911 13.726 60.623C12.4121 60.4374 11.1062 60.2917 9.78636 60.633C7.7707 61.1559 6.35714 62.7545 6.11192 64.8322C6.06207 65.2553 6.13584 65.6984 5.9245 66.0995C5.7989 66.2752 5.61348 66.337 5.41212 66.353C5.11505 66.375 4.7821 66.3969 4.61263 66.1035C4.4013 65.7363 4.78609 65.6026 4.96552 65.395C5.02932 65.3212 5.09711 65.2493 5.09312 65.0617C4.70833 64.908 4.4013 65.2493 4.05239 65.3012C3.66761 65.3591 3.27285 65.7363 2.90201 65.2713L2.90002 65.2673Z" fill="#FCBA6F"/>
<path d="M27.3612 25.0649C27.3313 25.5479 26.9066 25.5598 26.5936 25.6936C25.4632 26.1746 24.253 26.2045 23.0548 26.2923C21.5954 26.6735 20.3832 26.0608 19.2986 25.2265C17.7096 24.0031 17.0158 22.2548 16.7606 20.3148C16.6868 19.756 16.6808 19.1912 16.5871 18.6323C16.5133 18.1853 16.5692 17.7322 17.0756 17.5606C17.592 17.3849 17.893 17.7582 18.1123 18.1334C18.7084 19.1532 19.474 20.0075 20.4191 20.71C21.3521 21.4045 22.4128 21.8716 23.5971 22.5202C21.6093 21.185 20.2077 19.5943 19.3205 17.5666C18.9935 16.868 18.7882 16.1316 18.7005 15.3731C18.6187 14.6626 18.2379 14.3293 17.562 14.2136C16.8443 14.0898 16.1325 13.9441 15.3969 13.9501C13.8577 13.9641 13.3513 14.2934 12.8309 15.7763C12.1331 17.7582 11.8301 19.8338 11.5609 21.8995C10.9887 26.3083 11.2519 30.6911 12.1949 35.034C12.4063 36.2116 12.7013 37.3672 13.0662 38.5028C13.2476 39.0656 13.2775 39.5905 12.9545 40.1274C11.8141 42.0334 11.6068 44.2069 11.2778 46.3324C10.9788 48.2624 10.7575 50.2063 10.5481 52.1483C10.3587 53.9245 10.3168 55.7168 10.0596 57.4891C9.99386 57.9481 9.90414 58.3633 9.29406 58.2994C8.57432 58.0439 8.57432 57.3713 8.41881 56.7905C8.2314 55.3955 7.88649 54.0243 7.76088 52.5774C7.20862 54.0642 6.84975 55.5591 6.59854 57.0799C6.50882 57.3554 6.46695 57.6388 6.44502 57.9242C6.09412 59.6446 5.72528 61.357 4.73639 62.8619C4.65266 62.9896 4.88991 62.8439 4.97564 62.8758C5.23881 62.8459 5.43819 62.9317 5.55781 63.1752C5.73525 63.762 5.34648 64.0154 4.91782 64.219C4.24195 64.5383 3.55411 64.8317 2.87425 65.1351C2.39376 65.0133 1.69596 65.5462 1.44674 64.9076C1.19553 64.2629 1.99103 64.0833 2.35588 63.768C3.99672 62.3429 4.81216 60.4948 5.16704 58.4171C5.46809 56.6588 5.815 54.9125 6.2596 53.1701C5.58174 54.0363 5.00555 54.9704 4.10239 55.613C3.77741 55.8445 3.37667 56.1658 3.05967 55.7487C2.6988 55.2737 3.23711 55.1021 3.5262 54.8546C5.49401 53.1641 6.61847 50.9208 7.15279 48.4759C7.82667 45.3864 7.96424 42.229 7.21659 39.0995C6.74408 37.1197 6.9913 35.2855 8.23339 33.619C8.88534 32.7428 9.48346 31.8267 10.2172 30.769C8.02605 31.3338 6.01637 31.246 4.03261 30.5913C2.79052 30.1802 1.66805 29.5515 0.66919 28.7113C0.388074 28.4738 -0.0964019 28.2422 0.144839 27.7592C0.400036 27.2483 0.842644 27.6136 1.2075 27.6575C1.40089 27.7592 1.59827 27.7533 1.77571 27.6355C1.79963 27.6195 1.67203 27.5058 1.61422 27.4379C1.21946 27.1405 0.814732 26.8551 0.43393 26.5398C0.148827 26.3043 -0.150233 26.0029 0.073065 25.6077C0.292375 25.2206 0.685139 25.4541 0.976224 25.5339C2.94603 26.0847 4.90586 26.0688 6.86769 25.5C7.02719 25.4541 7.18469 25.4022 7.3422 25.3543C9.19038 24.7815 10.5182 23.9293 10.4783 21.6061C10.4464 19.734 10.9788 17.8639 11.4573 16.0318C12.171 13.3015 13.3493 12.4892 16.1266 12.7965C16.7845 12.8684 17.4524 12.9303 18.0884 13.0959C18.6546 13.2436 18.7523 13.068 18.7842 12.5431C18.8978 10.665 19.3843 8.87872 20.2974 7.22418C20.4649 6.92281 20.5626 6.46377 21.0491 6.56756C21.5674 6.67932 21.3721 7.14635 21.404 7.47765C21.5276 8.8448 21.8167 10.1561 22.672 11.4414C23.0348 10.2399 23.2202 9.10226 23.7964 8.10634C24.0457 7.67524 24.2749 7.23217 24.5521 6.82103C25.3775 5.5916 25.6107 5.60956 26.2607 6.90685C26.8807 8.14226 27.8278 8.99249 29.2114 9.42957C28.9881 6.07858 30.1943 3.2006 31.7614 0.428393C31.897 0.188894 32.0305 -0.0526011 32.3555 -0.000709637C32.6865 0.0531777 32.7084 0.314631 32.7503 0.594047C33.3504 4.59368 35.3361 6.48174 39.3635 6.80107C40.5298 6.89487 41.7081 6.81504 43.1436 6.81504C41.5247 6.02868 40.1689 5.29222 38.9488 4.34221C38.6696 4.12466 38.1293 3.92907 38.4045 3.43012C38.6736 2.94114 39.1103 3.25049 39.4612 3.3902C42.5574 4.62961 45.7873 5.09464 49.1028 5.08466C51.4933 5.07667 53.8918 5.01081 56.2583 5.37006C61.751 6.20232 64.8672 9.15215 66.199 14.6606C66.9766 15.9639 66.4881 17.3191 66.2768 18.6243C66.0196 20.217 65.3617 21.7079 64.7137 23.1848C64.6878 23.3165 64.9011 23.2327 64.7695 23.2247C66.0974 20.1711 66.8291 17.0017 66.6357 13.6507C65.7425 10.0662 63.6989 7.39183 60.3614 5.75925C60.0344 5.59958 59.7752 5.46586 59.853 5.03875C59.9248 4.63759 60.2139 4.55177 60.5189 4.62961C63.8983 5.51176 67.154 6.62144 69.2455 9.71298C69.9074 10.6929 70.3161 11.7787 70.3699 12.9682C70.3938 13.4931 70.5135 13.6308 71.0717 13.4871C72.4195 13.1398 73.7951 12.9043 75.1947 12.8824C77.2144 12.8524 78.0837 13.4711 78.7436 15.3911C78.8074 15.5787 78.8612 15.7723 78.937 15.9559C79.1224 16.407 78.9629 17.0856 79.3895 17.3051C79.7544 17.4947 80.2429 17.0975 80.6675 16.9239C80.8908 16.8321 81.1241 16.8042 81.3055 17.0177C81.485 17.2313 81.4032 17.4568 81.3075 17.6723C81.0384 18.2871 80.6954 18.8898 80.187 19.3009C79.4075 19.9276 79.7365 20.694 79.7963 21.4125C79.8322 21.8296 80.1811 21.6121 80.4063 21.5263C80.7253 21.4065 81.0364 21.4025 81.136 21.7718C81.2298 22.115 81.0065 22.3526 80.6635 22.4024C79.9059 22.5122 79.866 22.9872 79.9259 23.6219C79.9996 24.4142 79.9956 25.2166 79.9677 26.0129C79.9498 26.5298 80.1013 26.7394 80.6376 26.6755C81.0643 26.6236 81.4989 26.6356 81.9316 26.6356C82.2206 26.6356 82.5695 26.5578 82.7151 26.909C82.8905 27.3301 82.5277 27.4878 82.2725 27.6874C82.119 27.8071 81.9654 27.9249 81.6345 28.1804C82.408 28.2462 83.0082 28.3041 83.6083 28.346C84.027 28.374 84.3818 28.4797 84.1665 28.9947C84.0429 29.29 84.1865 29.3779 84.3499 29.5595C85.0517 30.3478 85.1933 31.2599 84.4476 31.9605C83.4488 32.9005 83.2913 34.2217 82.3742 35.4112C83.373 35.2735 84.1446 35.1698 84.9122 35.06C85.2232 35.0161 85.5282 34.9961 85.6758 35.3434C85.8113 35.6647 85.5581 35.8184 85.3588 35.994C84.8424 36.4531 84.33 36.9201 83.7 37.4909C84.344 37.6506 84.8663 37.7763 85.3847 37.908C85.6419 37.9739 85.931 38.0258 85.9409 38.3731C85.9509 38.6944 85.7077 38.8042 85.4525 38.9219C84.2503 39.4827 84.2522 39.4887 84.9959 40.6263C85.0876 40.7661 85.1753 40.9058 85.2571 41.0495C85.3966 41.291 85.4784 41.5484 85.295 41.7939C85.0856 42.0733 84.8244 41.9436 84.5752 41.8398C83.5664 41.4227 82.5556 41.0075 81.5468 40.5904C80.1252 40.3908 78.8333 39.824 77.5633 39.1854C76.5305 38.6664 75.446 38.3212 74.2936 38.379C76.5923 40.0056 79.0666 41.3848 81.7621 42.3507C82.1369 42.4845 82.5237 42.6002 82.741 42.9794C83.2394 43.1211 83.7419 43.2429 84.2303 43.4125C84.5653 43.5283 85.1414 43.4185 85.0617 44.0312C84.982 44.6559 84.4416 44.3086 83.9891 44.4104C84.8783 45.7716 85.7436 47.0789 86.5869 48.4021C86.8002 48.7354 87.2967 49.0886 86.872 49.5178C86.4912 49.9029 86.1582 49.4459 85.8333 49.2583C85.3787 48.9968 84.9241 48.7414 84.328 48.6097C84.4297 49.2663 84.5334 49.883 84.6151 50.5017C84.7427 51.4577 84.9082 52.4337 84.7487 53.3797C84.2243 56.4832 85.594 59.1356 86.6886 61.848C87.0634 62.776 87.7632 63.5125 88.5607 64.1312C88.7999 64.3168 89.087 64.5064 88.9614 64.8517C88.8099 65.2708 88.4471 65.175 88.1181 65.0912C87.6835 64.9954 87.2289 65.1431 86.8002 64.9834C85.907 64.6701 84.9002 64.4865 84.8065 63.251C85.0497 62.7281 85.4365 62.7421 85.913 62.9796C83.9033 59.0758 83.1756 54.8067 82.111 50.9627C81.796 52.9865 80.9187 55.1899 80.1531 57.4272C80.0196 57.8184 79.7684 58.1617 79.2819 58.0898C78.7017 58.004 78.6618 57.5031 78.7017 57.0879C78.941 54.6091 78.7635 52.1143 78.9788 49.6375C79.0765 48.5079 79.0426 47.3842 79.0785 46.2586C79.0945 45.7317 78.8433 45.4882 78.3388 45.3824C77.4616 45.1968 76.6203 44.9054 75.9763 44.2268C75.3403 43.8596 74.794 43.3786 74.3654 42.7898C74.17 42.5224 73.837 42.1571 74.2019 41.8278C74.5807 41.4865 74.8757 41.8079 75.0771 42.1312C75.2047 42.3388 75.3562 42.3907 75.5696 42.3507C76.3092 43.1471 77.2343 43.6301 78.2671 43.9175C78.608 44.0113 79.0087 44.2148 79.2061 43.7338C79.3975 43.2628 79.1922 42.8876 78.7456 42.6741C78.0677 42.3467 77.338 42.1013 76.9093 41.4107C75.1668 40.5046 73.5878 39.359 72.0945 38.0916C71.7695 37.8162 71.1634 37.6106 71.3927 37.0279C71.606 36.481 72.1723 36.9241 72.6587 36.7065C71.9689 36.3553 71.3429 36.0339 70.7128 35.7166C70.3081 35.513 70.019 35.2795 70.4098 34.8125C71.0677 34.5171 71.7516 34.5351 72.4454 34.6229C74.6445 34.9043 76.8456 35.1698 79.0347 35.525C80.7034 35.7944 80.7273 35.7485 81.6385 34.2197C81.3195 34.112 81.0583 34.2956 80.7891 34.3654C78.8034 34.8704 76.7957 34.8744 74.782 34.6049C74.2637 34.5351 73.7373 34.4073 73.3346 34.0142C71.3229 33.3755 70.1905 31.8487 69.375 30.0285C69.1518 29.5295 68.7351 29.2022 68.4559 28.7612C68.1968 28.35 67.81 27.9708 68.1649 27.4279C68.3722 27.0707 68.739 27.0208 69.0919 26.929C71.3927 26.3282 73.7134 26.1287 76.064 26.5937C76.6781 26.7274 77.2961 26.8511 77.9082 27.0048C78.5302 27.1625 78.9071 26.9749 78.8592 26.2903C78.6299 23.0511 78.6319 19.7899 77.8723 16.6046C77.8484 16.5088 77.8125 16.415 77.7826 16.3192C77.1227 14.3473 76.7558 14.0818 74.7003 14.1278C73.5659 14.1537 72.4693 14.4251 71.3628 14.6407C70.8444 14.7425 70.5653 15.0538 70.4417 15.5588C70.2742 16.2353 70.1367 16.9219 69.8276 17.5526C68.6653 19.8917 67.5249 22.2428 66.1651 24.4761C65.9418 24.8433 65.6986 25.1926 65.4235 25.5219C65.4614 25.8233 65.5172 26.1586 65.1523 26.2843C64.8513 26.3881 64.7317 26.0588 64.5223 25.9311C63.35 25.2186 63.5255 23.9213 63.1566 22.8635C62.2674 23.248 61.5071 22.8901 60.8758 21.7897C60.6146 22.0592 60.6904 22.4005 60.6764 22.7198C60.6664 22.9792 60.7382 23.2766 60.4132 23.4004C60.0743 23.5281 59.8371 23.3305 59.6536 23.083C59.0216 22.2228 58.2201 21.5303 57.4266 20.8317C56.5394 20.9974 55.6542 21.1211 54.7431 21.0972C49.8864 20.9774 45.7254 19.1433 42.1347 15.9499C41.1977 15.1157 40.2886 14.2315 39.5569 13.1917C39.1761 12.6109 38.6776 12.104 38.4264 11.4394C38.2888 11.0761 38.235 10.7049 38.6078 10.4554C39.0106 10.186 39.2997 10.4614 39.5449 10.7428C40.157 11.4454 40.6175 12.2617 41.2136 12.9762C42.5754 14.6886 44.2421 16.0557 46.1521 17.0876C49.5733 18.9337 50.4426 19.1592 54.9305 19.6861C53.8758 19.1453 52.869 18.78 51.8143 18.5325C51.3677 18.4268 50.8114 18.291 50.9969 17.6484C51.1544 17.1035 51.6368 17.0516 52.1453 17.1574C54.6354 17.6783 56.8345 18.798 58.7724 20.4326C59.2828 20.8637 59.6516 21.2169 60.0205 20.2529C60.2996 19.5245 60.9256 19.5464 61.3862 20.1951C61.5018 20.3567 61.5696 20.5483 61.6693 20.722C61.9923 21.2828 62.2375 22.0671 63.0629 21.2189C64.5423 21.3586 64.4525 20.1172 64.7117 19.263C65.5351 16.5467 65.2121 13.9441 63.7707 11.4893C61.6294 7.76904 58.1464 6.51567 54.141 6.35201C50.969 6.22228 47.789 6.32207 44.6269 5.95484C44.2282 5.90893 43.8394 5.84906 43.63 5.75126C45.1572 6.28016 46.8679 6.76714 48.6602 6.92481C52.3147 7.24614 55.4668 8.80488 58.3796 10.9344C58.8083 11.2478 59.223 11.5791 59.6596 11.8824C61.3184 13.2915 62.5705 14.97 63.0948 17.1255C63.1566 17.3829 63.2284 17.6424 63.2144 17.9118C63.1965 18.2292 63.1068 18.5086 62.7479 18.5864C62.4229 18.6563 62.1578 18.5485 61.9644 18.2811C61.7829 18.0316 61.7431 17.7282 61.6833 17.4368C61.3523 15.8322 60.5269 14.5549 59.1831 13.6148C57.7097 12.4892 56.3281 11.2558 54.6932 10.3317C52.0416 8.83282 49.1666 8.27 46.196 8.16222C43.4147 8.06243 40.6235 8.22808 37.8622 7.7431C37.5671 7.69121 37.274 7.63732 36.9869 7.55948C34.4649 6.87292 32.8081 5.24832 31.9209 2.64576C31.1433 4.10471 30.7944 5.51576 30.4774 6.93678C30.0348 9.51539 30.9619 11.7527 32.208 13.9082C33.7033 16.8221 35.6113 19.3428 38.6577 20.8178C39.4093 21.181 39.4372 21.5862 38.861 22.0671C38.5879 22.0532 38.3168 22.0352 38.1014 21.8356C36.2752 21.6181 35.1348 20.3268 34.0043 19.0974C32.0046 16.9219 30.6469 14.3373 29.5144 11.627C29.3908 11.3316 29.347 10.9743 28.9263 10.7588C28.6651 11.3396 28.7508 11.9224 28.8585 12.4852C29.5842 16.2892 31.4085 19.3568 34.8277 21.3447C35.2205 21.5722 35.5814 21.8496 35.376 22.3685C35.2125 22.7876 34.8736 22.8615 34.4788 22.6459C34.0442 22.618 33.8987 22.131 33.5079 22.0332C32.0106 21.4764 31.0357 20.2988 30.0966 19.0994C29.1875 17.9398 28.5834 16.6086 28.1129 15.2175C27.5187 13.8603 27.2296 12.4353 27.2715 10.9584C27.2934 10.202 27.102 9.59123 26.4461 9.16213C25.9696 8.84879 25.8021 8.24605 25.2419 7.84888C24.0457 9.96845 23.4475 12.1259 24.1593 14.5129C24.582 16.3531 25.6765 17.7861 26.8907 19.1712C28.1667 20.6242 29.6082 21.8795 31.1353 23.0511C31.5022 23.3325 31.8431 23.6538 32.1262 24.0231C32.4153 24.2206 32.7204 24.4921 32.4432 24.8234C32.0226 25.3283 31.6956 24.7436 31.3307 24.6178C30.4415 24.4562 29.7657 23.9013 29.1237 23.3385C26.6953 21.2069 24.3228 19.0215 23.0946 15.91C23.0328 15.7563 22.9312 15.6047 22.9192 15.445C22.7457 13.2835 21.2066 11.6869 20.5187 9.71697C19.7013 12.4952 19.5917 15.2374 21.0949 17.848C22.5085 20.3028 24.7255 21.8516 27.1997 23.083C27.3772 23.1708 27.5726 23.2287 27.7221 23.3664C27.9554 23.582 28.1089 23.8394 27.9952 24.1628C27.8796 24.4901 27.6264 24.5719 27.2795 24.546C24.4065 24.3324 21.7389 23.5481 19.4362 21.7458C19.0553 21.4484 18.6586 21.171 18.3575 20.8417C18.6945 22.7737 19.6933 24.1847 21.6472 24.8114C23.1066 25.2804 24.5341 25.0709 25.9536 24.6657C26.3444 24.5559 26.7232 24.4661 27.126 24.54C27.445 24.5979 27.4828 24.7875 27.3473 25.0489L27.3612 25.0649Z" fill="#070403"/>
<path d="M48.4634 131.796C45.3572 132.203 42.255 131.908 39.1547 131.71C38.2037 131.65 37.2328 131.662 36.3057 131.367C35.6717 130.667 35.0104 130.599 34.3219 131.161C27.3479 130.156 20.6828 128.124 14.3129 125.116C13.6649 124.811 13.0249 124.489 12.383 124.174C11.5416 123.216 11.2246 122.017 10.9913 120.827C10.4431 118.023 10.3434 115.189 10.7302 112.349C10.772 112.043 10.7361 111.652 11.2106 111.612C11.5715 112.105 11.7151 112.696 11.8347 113.269C11.9702 113.925 12.3311 114.131 12.9432 114.131C15.8899 114.129 18.8347 114.121 21.7814 114.133C22.7643 114.137 23.3265 113.684 23.5837 112.776C24.2157 112.301 24.2157 113.013 24.3593 113.253C24.9933 114.315 25.6851 115.227 26.8594 115.835C28.6358 116.756 30.3285 116.662 32.1228 116.027C34.3678 115.233 36.5669 114.325 38.7739 113.432C38.9593 113.357 39.1428 113.285 39.3481 113.315C39.4857 113.355 39.5674 113.448 39.6133 113.582C39.711 113.85 39.8525 114.063 40.1855 114.017C40.2852 114.003 40.3928 113.951 40.4148 113.854C40.4965 113.472 40.0858 113.506 39.9402 113.311C39.9024 113.259 39.8665 113.205 39.8545 113.137C40.1177 112.68 40.5404 112.634 41.0029 112.688C41.0647 112.708 41.1245 112.738 41.1784 112.774C41.601 113.041 41.7386 113.684 42.2191 113.778C42.7135 113.876 42.6796 113.001 43.2319 112.995C44.0134 113.983 44.2686 115.205 44.6674 116.35C46.1687 120.671 47.5483 125.034 49.1014 129.337C49.1812 129.557 49.2629 129.772 49.3187 129.998C49.6118 131.193 49.548 131.329 48.4674 131.796H48.4634Z" fill="#252944"/>
<path d="M48.4636 131.796C49.3449 131.357 49.301 130.627 49.0378 129.862C48.2982 127.713 47.5366 125.571 46.7889 123.424C45.6545 120.163 44.528 116.899 43.3916 113.638C43.3178 113.425 43.1942 113.229 43.0925 113.026C42.5084 112.129 41.7587 112.798 41.0789 112.812C40.6542 112.866 40.2415 112.954 39.8966 113.231C39.8228 113.411 39.7132 113.527 39.4979 113.441C37.1373 114.357 34.7488 115.205 32.4241 116.207C29.9878 117.257 27.7528 116.901 25.6594 115.455C24.6984 114.79 24.3017 113.636 23.7494 112.636C23.5281 112.527 23.4145 112.325 23.3148 112.113C21.9849 109.277 22.7884 105.443 25.147 103.374C25.8767 102.733 26.6842 102.208 27.6471 102.021C28.3689 101.881 28.7796 101.554 28.7198 100.775C28.969 98.3802 29.5093 96.0311 29.8402 93.6501C29.8941 92.5384 30.3327 91.5205 30.6038 90.4608C30.8949 89.3251 30.8371 89.1954 29.7645 88.6925C27.8724 87.8023 25.9565 86.9601 24.1541 85.8923C23.6537 85.5949 23.2171 85.7406 22.7545 86.0021C21.4207 86.7585 20.4857 87.9261 19.5367 89.0796C18.6893 90.1095 18.0015 91.2471 17.3376 92.3987C15.918 94.9773 14.6421 97.6178 13.709 100.416C12.6563 103.37 11.9465 106.395 11.6574 109.523C11.5916 110.233 11.6275 110.988 11.1849 111.625C10.8041 113.598 10.7104 115.594 10.842 117.592C10.9915 119.865 11.478 122.071 12.3792 124.174C11.1112 123.837 10.7383 122.847 10.4433 121.703C9.47431 117.951 9.84315 114.195 10.22 110.417C10.9696 102.869 13.4498 95.9433 17.5688 89.5986C18.7132 87.8363 20.0949 86.2536 21.8673 85.094C22.7027 84.5471 22.0448 84.4114 21.7158 84.2058C18.5298 82.22 15.5572 79.9507 12.8058 77.3961C9.83517 74.6359 7.04994 71.712 5.00238 68.1674C4.84886 67.9319 4.79304 67.6824 5.06418 67.5127C5.35327 67.3311 5.5985 67.5307 5.83775 67.6784C6.59736 68.3889 7.07386 69.317 7.6959 70.1353C11.2707 74.8374 15.6429 78.6714 20.4837 82.0024C25.6853 85.6089 31.4512 88.0338 37.3685 90.1554C39.4659 90.9078 41.4477 91.9117 43.1683 93.3727C43.5511 93.698 43.91 94.0373 44.1672 94.4724C44.3725 94.8177 44.6357 95.2088 44.215 95.5342C43.8422 95.8216 43.4514 95.618 43.1304 95.3466C42.6739 94.9594 42.2751 94.5143 41.8445 94.1012C41.6969 93.9694 41.5713 93.8138 41.2324 93.6182C41.4497 93.9135 41.5753 94.0712 41.7009 94.2289C43.4375 96.584 44.9686 99.0728 46.4779 101.817C48.5613 97.9551 51.1313 94.6021 53.7749 91.281C51.4802 92.1193 49.3209 93.1691 47.6024 94.9793C47.2574 95.3406 46.8188 95.9513 46.2825 95.4443C45.7781 94.9673 46.2785 94.4684 46.6214 94.0672C48.019 92.4406 49.7994 91.3709 51.7473 90.5486C54.3491 89.4489 57.0506 88.6066 59.6245 87.4351C62.8005 85.9881 65.9686 84.5312 68.7857 82.4276C68.9452 82.3078 69.1187 82.208 69.2981 82.1222C71.3556 80.8888 73.1819 79.344 75.0201 77.8192C77.6359 75.6497 79.9127 73.149 82.0739 70.5384C82.7518 69.7181 83.2761 68.7881 83.8683 67.9059C84.0158 67.6864 84.1334 67.4349 84.3647 67.2912C84.6418 67.1176 84.9469 67.1116 85.2021 67.3191C85.535 67.5906 85.4971 67.882 85.1722 68.1474C81.103 74.4183 75.682 79.3161 69.4257 83.5372C71.4354 84.4853 73.2636 85.5271 74.8187 86.9641C80.5009 92.2151 83.9201 98.6836 85.1104 106.328C85.7224 110.261 86.3584 114.193 86.1192 118.203C86.0773 118.907 85.87 119.412 85.1861 119.66C84.4863 119.534 84.6777 118.969 84.7096 118.564C85.1502 112.78 84.0756 107.172 82.7757 101.589C82.7538 101.494 82.7019 101.406 82.666 101.314C81.4499 98.0349 79.8768 94.9414 77.8492 92.0854C77.6757 91.8399 77.4524 91.6403 77.2431 91.4287C75.7079 89.6445 74.1927 87.8382 72.201 86.521C71.9797 86.3753 71.7663 86.2176 71.549 86.066C69.7128 84.7727 67.9025 84.148 65.9227 85.8823C65.3485 86.3873 64.567 86.7146 63.8433 87.0339C63.1614 87.3353 63.0837 87.7584 63.295 88.3831C63.5921 89.2633 63.8492 90.1554 64.0347 91.0675C64.7265 93.6621 65.2209 96.2966 65.5818 98.955C65.6934 99.7753 65.7792 100.602 65.8509 101.424C65.9147 102.142 66.2178 102.388 66.9116 102.406C67.8088 102.43 68.6781 102.657 69.4955 103.048C71.3477 104.142 72.9466 105.469 74.0133 107.413C75.3451 109.84 75.3132 112.221 74.085 114.642C72.8649 117.045 70.903 118.642 68.5704 119.907C65.8151 121.404 62.8404 122.35 59.9754 123.574C59.6704 123.703 59.3434 123.785 59.0603 123.961C58.6097 124.238 57.9498 124.228 57.6747 124.683C57.3975 125.144 57.888 125.607 57.9817 126.082C58.0973 126.673 57.8641 127.054 57.3258 127.258C55.4277 127.974 53.6792 129.01 51.839 129.846C51.219 130.128 50.6029 130.389 50.7744 131.277C50.8442 131.637 50.4953 131.667 50.26 131.764C49.6599 131.776 49.0618 131.788 48.4617 131.8L48.4636 131.796Z" fill="#040407"/>
<path d="M50.2598 131.762C50.3754 131.585 50.7084 131.515 50.5688 131.209C50.2 130.407 50.6625 130.106 51.3105 129.814C53.3002 128.918 55.1883 127.804 57.2359 127.032C57.8738 126.793 57.9117 126.487 57.6545 125.896C57.0664 124.541 57.1222 124.575 58.4859 123.955C61.8773 122.41 65.4879 121.372 68.7516 119.538C71.7921 117.827 74.1746 115.524 74.6929 111.898C75.1236 108.886 73.5884 106.629 71.4691 104.685C70.8869 104.152 70.0914 103.918 69.589 103.286C69.2321 102.39 69.916 102.416 70.4244 102.41C73.5047 102.374 76.587 102.34 79.6693 102.362C80.0341 102.364 80.401 102.338 80.7638 102.362C81.7547 102.424 82.3648 101.923 82.7496 101.066C83.3836 102.168 83.6228 103.404 83.8162 104.623C84.4542 108.655 85.2318 112.674 85.1381 116.788C85.1261 117.348 85.1221 117.901 85.0005 118.462C84.9168 118.847 84.7593 119.318 85.1839 119.658C80.4648 122.951 75.3549 125.479 69.9718 127.481C63.6038 129.848 57.0285 131.261 50.2578 131.764L50.2598 131.762Z" fill="#282C47"/>
<path d="M20.3399 82.1563C14.8053 78.4581 10.0144 73.9914 6.2263 68.4849C6.09671 68.2973 5.95516 68.1197 5.81759 67.9361C5.63616 67.7086 5.50258 67.3792 5.13374 67.4591C4.76889 67.5389 5.00215 67.9301 4.84066 68.1277C4.52765 67.7465 4.58148 67.1238 4.0332 66.8983C4.2884 66.6707 4.58547 66.7466 4.87057 66.7965C5.44875 66.9002 5.73585 66.6488 5.78968 66.0859C5.74781 64.4095 6.09272 62.8886 7.35675 61.6552C8.94774 60.1005 10.8876 60.0366 12.9073 60.2302C13.2024 60.2581 13.4954 60.314 13.7885 60.3559C15.1602 60.5096 16.2986 61.2481 17.4769 61.8688C18.7868 62.5593 20.0269 63.3776 21.2989 64.136C21.3886 64.1779 21.4723 64.2298 21.5541 64.2817C23.1092 65.1679 24.754 65.8484 26.4108 66.5111C26.7119 66.6308 27.2581 66.6468 27.1006 67.2495C26.6859 67.6207 26.2673 67.5229 25.8167 67.3034C23.494 66.1718 22.6726 66.6488 22.4473 69.2413C22.4094 69.6705 22.4672 70.1075 22.3755 70.5307C22.1981 71.341 21.7515 71.4567 21.0576 70.8739C21.0198 72.9755 21.0596 75.0672 21.0257 77.1588C21.0118 78.021 21.1813 78.7135 22.0326 79.1327C22.6466 79.434 22.8839 79.9729 22.6267 80.6315C22.3875 81.2423 22.7902 82.0406 22.1741 82.5016C21.4943 83.0106 21.0198 81.9448 20.3399 82.1544V82.1563Z" fill="#EEEEF0"/>
<path d="M85.1744 68.1423C85.2881 67.813 85.3499 67.4717 84.9412 67.3161C84.5624 67.1704 84.4487 67.4957 84.2852 67.7511C80.549 73.5849 75.5328 78.1334 69.9045 82.0652C69.7549 82.171 69.6293 82.3706 69.3921 82.2848C68.3553 82.5322 68.3095 82.5063 68.0483 81.4784C67.9666 81.1571 67.8888 80.8338 67.823 80.5085C67.6974 79.8818 67.843 79.3689 68.477 79.1234C69.2844 78.81 69.5336 78.2053 69.5177 77.395C69.4938 76.1356 69.5396 74.8743 69.4938 73.6129C69.4798 73.2277 69.5197 72.8205 68.8817 72.8485C68.3474 72.8724 68.1919 72.4074 68.15 71.9504C68.0882 71.2897 68.0962 70.6231 68.1281 69.9605C68.1779 68.8928 67.6695 67.9667 67.4342 66.9728C67.3425 66.5856 67.0056 66.5018 66.6427 66.5457C66.0167 66.6215 65.3967 66.7013 64.8344 67.0346C64.4995 67.2342 64.1406 67.4877 63.7658 67.0845C63.6521 66.4938 64.1067 66.374 64.4975 66.2263C65.5043 65.8451 66.4932 65.422 67.4841 65.0049C69.6453 63.8094 71.7248 62.4742 73.8461 61.2108C74.4043 60.8795 75.0144 60.8017 75.5846 60.5622C77.2972 60.1311 79.0198 59.9834 80.7603 60.3746C82.1101 60.3367 82.9554 61.1509 83.6632 62.1509C83.9084 62.4981 84.1437 62.8634 84.3331 63.2506C84.8056 64.2944 84.4308 65.452 84.7757 66.5078C85.1186 66.8171 85.5752 66.4579 85.9261 66.7033C85.6569 67.1724 85.7885 67.8529 85.1764 68.1423H85.1744Z" fill="#EEEEF0"/>
<path d="M82.7455 42.9976C79.4678 41.876 76.4074 40.3552 73.5205 38.0779C76.6447 37.9961 78.9494 39.7724 81.5512 40.6106C81.4655 40.7264 80.8036 40.3212 81.2661 40.9399C81.7725 41.6165 82.3647 42.2293 82.7455 42.9976Z" fill="#524944"/>
<path d="M5.79143 66.0853C6.31977 66.712 6.06258 67.0354 5.3568 67.0693C4.92018 67.0892 4.47557 66.9595 4.03496 66.8976C3.6402 66.6701 3.22351 66.4705 2.85467 66.2051C2.43798 65.9037 2.45194 65.5604 2.90053 65.267C3.50662 65.2571 4.06885 65.0834 4.60716 64.818C4.9441 64.6503 5.33088 64.2512 5.59406 64.826C5.81735 65.315 5.36478 65.5085 5.01388 65.7021C4.90423 65.762 4.80055 65.8319 4.70087 66.0833H5.79143V66.0853Z" fill="#1C120F"/>
<path d="M85.9231 66.7023C85.4725 66.7502 85.0737 67.1393 84.5793 66.9118C84.2284 66.2033 84.8106 65.5926 84.8086 64.904C84.8086 64.5508 85.3509 64.5069 85.7277 64.6166C86.1005 64.7264 86.4514 64.9539 86.8641 64.7823C87.3027 64.8262 87.7394 64.8721 88.1281 65.1096C87.6397 65.9818 86.7026 66.2332 85.9251 66.7023H85.9231Z" fill="#160E0C"/>
<path d="M66.6413 13.6602C67.0142 15.3327 66.8906 17.0151 66.5377 18.6537C66.1569 20.428 65.4471 22.1065 64.4961 23.6932C65.5488 20.7693 66.7151 17.8733 66.2047 14.67C66.8607 14.5543 66.5078 14.0014 66.6413 13.6602Z" fill="#434040"/>
<path d="M4.84279 68.1277C4.83083 67.8044 4.59756 67.3693 5.16378 67.3074C5.58246 67.2615 5.81972 67.497 5.81972 67.9361C5.48477 67.7924 5.01624 67.1757 5.00428 68.1676C4.94846 68.1656 4.89263 68.1517 4.84279 68.1277Z" fill="#1C120F"/>
<path d="M1.61961 27.4423C1.94259 27.4063 2.12602 27.6319 2.59654 27.8773C1.93063 27.9392 1.55182 27.9372 1.21289 27.6618C1.34846 27.59 1.56777 27.6698 1.61961 27.4423Z" fill="#7B7B7B"/>
<path d="M75.5819 60.5621C72.7568 61.8095 70.3643 63.8133 67.585 65.1385C67.1704 65.3481 66.7317 65.5517 66.2732 65.5097C65.6172 65.4519 65.1328 65.7073 64.6603 66.1105C64.1857 66.5156 63.6096 66.6474 62.9875 66.5715C62.4771 66.5096 62.2817 66.2821 62.509 65.7672C62.7901 65.1305 63.0653 64.4939 63.4341 63.9011C63.6773 63.5099 63.9904 63.0908 63.3603 62.7355C63.157 62.6198 62.9456 62.4561 63.0094 62.1907C63.0892 61.8494 63.4082 61.8075 63.6993 61.7157C64.8178 61.3624 65.9522 61.0511 66.9371 60.3565C67.1943 60.1749 67.286 59.9933 67.282 59.7159C68.225 58.2609 68.1194 56.8479 67.1026 55.4747C67.0826 54.844 66.6161 54.5946 66.1496 54.3251C65.6771 54.0537 65.041 53.8342 65.6651 53.0937C65.8844 52.8322 65.5415 52.7145 65.4119 52.5468C64.9254 51.9182 65.045 51.5449 65.8246 51.3653C66.2732 51.2615 66.7357 51.2076 67.1783 51.0719C68.1353 50.7785 68.2769 50.096 67.5252 49.4054C67.1843 49.0921 66.7218 48.9464 66.3928 48.6111C65.9881 47.6172 65.2624 46.735 65.3341 45.5734C65.364 45.0884 65.1647 44.7452 64.6882 44.5735C64.116 44.3679 63.7671 43.9468 63.5737 43.38C63.5318 43.2543 63.4919 43.0766 63.3883 43.0347C62.1163 42.5118 61.8531 40.985 60.6907 40.3503C60.0647 40.0091 59.8135 39.3784 59.6161 38.7337C59.2293 37.4764 58.5953 36.5064 57.114 36.4126C56.6714 36.3846 56.2926 36.1252 56.0493 35.744C55.6506 35.1153 55.0525 34.9736 54.3626 34.8638C52.9969 34.6463 51.6831 34.1733 50.3174 33.9238C49.6634 33.804 49.0215 33.6623 48.3516 33.6823C47.6837 33.7022 47.0337 33.6404 46.3917 33.4228C45.7517 33.2073 45.0519 33.1654 44.4259 33.3669C43.3194 33.7242 42.2009 33.6863 41.0764 33.6803C39.6609 33.6723 38.3111 33.8859 37.1229 34.7381C36.7002 35.0414 36.1938 35.0874 35.6934 35.0754C35.171 35.0614 34.8181 35.257 34.6028 35.754C33.9748 37.2009 32.9201 37.9713 31.2773 37.9354C30.402 37.9174 29.7361 38.2767 29.7541 39.3464C29.762 39.8434 29.447 40.2506 29.0264 40.4721C28.2667 40.8752 28.0076 41.486 27.9079 42.3122C27.7165 43.887 27.6467 43.9009 26.0437 43.9329C25.6231 43.9408 25.2303 44.0267 25.021 44.4218C24.8276 44.7871 25.1286 45.0425 25.314 45.308C25.7467 45.9247 25.9999 46.5414 25.3579 47.1821C24.1577 47.7189 22.9933 48.3117 22.1799 49.4014C22.0124 49.625 21.5618 49.8265 22.0423 50.1758C22.1261 50.2137 22.2018 50.2576 22.2796 50.3055C22.796 50.7187 23.2286 51.2296 23.8167 51.5569C24.1178 51.7246 24.4408 52.0379 24.2693 52.3513C23.725 53.3472 23.8407 54.5966 22.9395 55.4628C21.2688 57.0694 22.0383 59.9454 24.1357 60.7796C24.7618 61.0291 24.9332 61.6219 25.4376 61.9133C25.5373 61.9711 25.629 62.1727 25.5493 62.2685C24.8714 63.0748 25.6151 63.3004 26.0796 63.6816C26.4385 63.9769 26.7914 64.3661 26.604 64.8751C26.3946 65.4439 25.8763 65.3381 25.4117 65.2623C25.1446 65.2183 24.8754 65.2144 24.6342 65.3401C24.054 65.6435 23.5157 65.4778 23.0492 65.1425C22.5308 64.7713 21.9546 64.5577 21.3764 64.3322L21.3684 64.3222C21.2369 64.1246 20.8581 64.1007 20.9657 63.7374C21.1611 63.7694 21.3565 63.7973 21.5499 63.8332C21.9127 63.9031 22.4231 64.1685 22.5687 63.7195C22.6943 63.3263 22.5766 62.7335 22.0722 62.526C21.496 62.2905 21.1372 61.8015 20.6507 61.4702C20.3038 61.2327 20.252 60.8754 20.6148 60.6579C21.7473 59.9753 20.9039 59.0492 20.547 58.7818C19.6578 58.1172 19.6379 57.1871 19.6199 56.3808C19.5721 54.1655 19.3727 51.9361 19.7555 49.7228C19.8971 48.9025 20.5371 48.3396 20.6966 47.4774C20.8561 46.6152 21.2369 45.787 21.1671 44.8709C21.1451 44.5835 21.2448 44.2961 21.4921 44.1843C22.4132 43.7692 22.4291 42.9928 22.3573 42.1705C22.2975 41.484 22.5447 41.0329 23.2445 40.8313C23.8486 40.6577 24.0839 40.2206 24.1796 39.578C24.4368 37.8336 24.7598 37.5302 26.4644 37.2029C27.549 36.9954 27.539 36.0493 27.7225 35.2989C28.0434 33.9877 29.1739 33.3889 29.9734 32.4988C31.3331 32.878 32.1067 31.4949 33.3069 31.3751C33.5202 31.3532 33.7475 31.2115 33.921 31.0678C35.5718 29.6906 37.3821 28.7845 39.6031 29.2276C40.5042 29.4072 41.0226 28.6768 41.7503 28.4452C42.5498 28.1898 43.3274 28.1618 44.0969 28.2876C44.6253 28.3754 45.1456 28.4253 45.672 28.4153C46.2183 28.4073 46.611 28.6249 47.0895 28.9143C47.9428 29.4312 48.9856 29.529 50.0223 29.3414C51.2843 29.1118 52.5484 28.8165 53.8423 29.2116C54.0995 29.2895 54.3906 29.3194 54.552 29.529C55.3396 30.5468 56.5179 30.8582 57.6244 31.3252C58.6352 31.7503 59.7956 32.0996 59.65 33.6104C59.6022 34.1114 60.0607 34.2571 60.4415 34.3669C60.6907 34.4387 60.9699 34.4048 61.231 34.4427C62.0006 34.5505 62.6366 34.7241 62.8161 35.7041C62.9357 36.3567 63.3085 37.0093 64.0183 37.3347C64.1877 37.4125 64.415 37.5941 64.431 37.7458C64.5566 38.9393 65.9103 39.2207 66.2493 40.2466C66.2871 40.3603 66.4068 40.4881 66.5164 40.528C67.7505 40.9631 67.8502 42.1546 68.1732 43.1405C68.3586 43.7013 68.8152 44.0406 68.9906 44.5935C69.499 46.1921 69.6366 47.7968 69.3555 49.4533C69.2478 50.092 69.5389 50.8244 68.7175 51.2356C68.5121 51.3394 68.6058 51.6467 68.8949 51.7625C69.8021 52.1297 69.6864 52.6446 69.0285 53.1336C68.4543 53.5607 68.6058 53.7244 69.1581 53.9998C69.8081 54.3211 69.8081 55.1694 69.1402 55.4488C68.5381 55.7003 68.548 55.9677 68.8531 56.4088C68.871 56.4367 68.9189 56.4667 68.9149 56.4846C68.4902 57.7719 69.7961 58.8736 69.3036 60.1749C69.2139 60.4144 69.1501 60.7178 69.2139 60.9513C69.4452 61.7895 69.4771 62.4801 68.4543 62.8273C68.229 62.9032 67.9718 63.2744 68.2051 63.5778C68.4065 63.8372 68.7893 63.8273 69.0325 63.6616C70.1749 62.8852 71.4947 62.4641 72.6252 61.5959C73.3569 61.0331 74.3797 60.2587 75.5819 60.5561V60.5621Z" fill="#FAC37E"/>
<path d="M8.62641 56.7597C8.94341 57.1769 8.76398 57.7956 9.19462 58.1668C9.78078 58.3464 9.89243 58.2885 9.98813 57.7058C10.2453 56.137 10.2473 54.5444 10.3869 52.9637C10.4786 51.9378 10.7796 50.9459 10.8674 49.936C10.971 48.7305 11.0767 47.5251 11.1804 46.3196C11.304 44.8746 11.9121 43.5733 12.2311 42.1922C12.5879 40.6394 13.7264 39.1925 12.6856 37.4262C12.2889 36.7516 12.4185 35.7776 11.9858 35.0272C11.0986 31.6303 10.8355 28.1695 11.0448 24.6768C11.2282 21.6252 11.6429 18.6015 12.574 15.6756C13.1003 14.0191 13.8121 13.5461 15.5088 13.6479C15.7739 13.6639 16.0371 13.6858 16.3023 13.7098C18.5233 13.8994 18.5791 13.9453 19.1373 16.0748C19.2709 16.5857 19.4125 17.0947 19.55 17.6056C19.1613 17.8431 18.7765 17.6356 18.3937 17.5837C16.5914 17.3402 15.3752 18.1904 14.9086 19.9806C14.478 21.6352 14.4341 23.3157 14.4601 25.0081C14.468 25.4911 14.5777 26.01 14.2069 26.4332C13.6247 27.3373 14.2547 28.2214 14.2547 29.1175C14.2547 30.4967 14.8728 31.7939 14.799 33.193C14.7691 33.7339 14.8847 34.2807 15.5626 34.4085C16.2544 34.5382 16.6093 34.181 16.7788 33.5463C16.9004 33.0892 17.3988 32.8537 17.5822 32.5623C18.0448 31.8279 19.0815 31.4467 19.231 30.9198C19.5022 29.9638 20.3136 30.0496 20.7682 29.5626C20.8838 29.4389 21.0713 29.4069 21.2228 29.5207C21.3823 29.6404 21.2726 29.8221 21.2965 29.9698C21.5637 31.6323 20.1023 32.5324 19.5959 33.8516C19.4484 34.2348 19.0117 34.2428 18.6349 34.2189C18.0647 34.181 17.7417 34.4025 17.7776 35.0172C17.7976 35.3325 17.7437 35.6519 17.4586 35.8095C16.398 36.3963 16.3481 37.53 16.0012 38.4899C15.8397 38.935 15.8916 39.4499 15.2595 38.8352C14.8628 38.448 14.6136 38.6177 14.5896 39.1486C14.5817 39.3142 14.5259 39.5298 14.6056 39.6395C15.4928 40.861 14.5338 41.6593 13.9556 42.5335C13.4971 43.228 13.1661 43.8108 14.1969 44.3657C14.791 44.685 14.8409 46.5251 14.2407 46.8884C13.4971 47.3374 13.2977 47.9801 13.2718 48.6906C13.1901 51.0716 13.0146 53.4566 13.3655 55.8317C13.4114 56.141 13.4652 56.4664 13.7523 56.5981C14.9585 57.1509 14.5797 58.2107 14.5398 59.1188C14.5159 59.6816 14.0454 59.975 13.4791 59.9471C13.0206 59.9251 12.5521 59.8792 12.1134 59.7535C10.6201 59.3244 9.40795 60.2844 8.07016 60.5818C7.26669 60.7614 6.95367 61.7473 6.41935 62.368C6.15818 62.6714 5.93288 62.9947 5.56604 63.1803C5.3866 63.1164 5.20517 63.0526 5.02574 62.9907C4.80443 62.1964 5.45638 61.6675 5.64778 60.9969C5.93288 59.999 6.3396 59.035 6.22397 57.9652C6.19606 57.6698 6.23394 57.3884 6.39543 57.133C6.76626 56.3925 6.75031 55.5563 6.96763 54.7799C7.05934 54.4486 7.08925 53.9935 7.60363 54.0614C8.10605 54.1292 8.2177 54.5683 8.17184 54.9595C8.09409 55.6361 8.0263 56.2748 8.6284 56.7637L8.62641 56.7597Z" fill="#F9B163"/>
<path d="M38.8752 22.0883C39.3537 21.5015 39.0228 21.264 38.4805 21.0045C35.45 19.5456 33.5001 17.0668 32.0866 14.099C32.0965 13.8954 32.0168 13.7158 31.955 13.5282C31.7038 12.7758 32.0846 12.2169 32.8382 12.3786C34.5708 12.7498 36.3133 12.5283 38.0498 12.5842C38.6539 12.6041 39.2241 12.652 39.6946 13.0791C41.3734 15.0011 43.1817 16.7774 45.3947 18.0886C48.7382 20.0685 52.3349 21.0604 56.2406 20.8908C56.6373 20.8728 57.0321 20.1942 57.4428 20.8549C55.3494 22.0883 53.2221 21.2999 51.1008 20.9586C50.2933 20.8289 49.5058 20.5355 48.5687 20.6613C49.6413 21.4157 50.8954 21.5494 52.0378 22.1881C50.8874 22.5813 49.7949 22.6531 48.7163 22.7329C45.4087 22.9784 42.1051 23.0603 38.8752 22.0883Z" fill="#584944"/>
<path d="M84.0979 63.1685C83.6234 62.9131 83.5676 62.3642 83.2725 61.979C82.6246 61.1268 81.6855 60.7656 80.7565 60.3744C80.573 60.1049 80.2959 59.9712 79.9949 59.9732C78.372 59.9812 76.7391 59.8235 75.1481 60.3225C74.9348 60.3903 74.6856 60.3764 74.4583 60.3504C74.1891 60.3185 73.7326 60.5221 73.7046 60.1309C73.6747 59.7197 74.0934 59.5242 74.4862 59.5721C75.2976 59.6698 75.3933 59.2467 75.3873 58.5701C75.3614 55.2211 75.3774 51.8721 75.3714 48.5212C75.3714 48.2258 75.3714 47.9144 75.2817 47.639C75.0823 47.0223 75.1521 46.5353 75.7582 46.198C76.129 45.9924 76.2446 45.8108 75.8 45.4935C75.188 45.0564 74.9866 44.6193 76.0293 44.5275C76.0134 44.4337 75.9994 44.3399 75.9835 44.2461C76.9524 44.6552 77.8835 45.1742 78.9641 45.254C79.5821 45.2999 79.3628 45.7729 79.3529 46.0823C79.2392 49.4991 79.1056 52.914 78.9781 56.3288C78.9661 56.6282 78.9302 56.9256 78.9382 57.225C78.9442 57.5004 78.8126 57.8656 79.2352 57.9614C79.6759 58.0612 79.8054 57.7299 79.9111 57.4026C80.4574 55.6981 81.0156 53.9977 81.536 52.2853C81.7453 51.5927 81.869 50.8722 82.0623 50.034C83.6115 54.6284 84.0441 59.4902 86.6679 63.6296C86.0478 63.8192 85.5753 62.3941 84.8695 63.412C84.8276 63.5916 84.8217 63.8092 84.5784 63.8291C84.078 63.8691 84.403 63.2863 84.0999 63.1705L84.0979 63.1685Z" fill="#F9B568"/>
<path d="M76.1964 26.8661C73.475 26.3871 70.8173 26.7722 68.1777 27.4488C67.1808 26.9339 66.0543 26.6046 65.4323 25.5448C65.3486 25.4251 65.3446 25.3033 65.4263 25.1816C67.0213 22.7786 68.2454 20.1701 69.5792 17.6234C70.3947 17.1703 71.248 16.865 72.193 16.7732C73.6305 16.6334 74.747 17.2601 75.2992 18.4596C76.5314 21.132 76.6869 23.9801 76.1944 26.8661H76.1964Z" fill="#FEFEFE"/>
<path d="M14.2031 26.4353C14.2829 24.4894 14.1393 22.5494 14.4763 20.5915C14.9787 17.6776 16.8488 16.5959 19.5483 17.6058C20.1504 18.5917 20.6847 19.6215 21.5181 20.4518C22.3276 21.2601 23.2128 21.9826 24.0661 22.747C21.5081 21.9986 19.3569 20.6893 17.9314 18.3622C17.734 18.0389 17.6224 17.5259 17.0861 17.7375C16.6235 17.9211 16.8408 18.3682 16.8747 18.7075C16.9465 19.4339 17.0123 20.1644 17.1538 20.8789C17.8377 24.3357 19.5643 25.9084 23.0573 26.2936C23.2507 26.5431 23.5796 26.2936 23.8568 26.557C21.7733 27.8104 19.9092 29.3033 18.2344 31.0317C17.5705 31.7163 16.8468 32.3489 16.3743 33.2031C16.2327 33.4586 16.0533 33.7899 15.7263 33.744C15.3415 33.6901 15.2857 33.279 15.2159 32.9696C14.7893 31.0656 14.6019 29.1257 14.3686 27.1917C14.3367 26.9343 14.4045 26.6548 14.2031 26.4333V26.4353Z" fill="#FEFDFD"/>
<path d="M27.3623 25.0651C27.1729 24.3686 26.7523 24.6859 26.3495 24.8197C24.3 25.5042 22.2763 25.6918 20.3185 24.5103C18.7056 23.5383 18.3048 21.9257 17.9141 20.0017C20.464 22.8797 23.658 23.8597 27.0453 24.4145C27.3583 24.4664 27.785 24.5343 27.8668 24.0912C27.9485 23.6461 27.5637 23.5204 27.2148 23.3587C24.5751 22.1472 22.3162 20.4548 20.8129 17.9221C19.6127 15.9003 19.0983 12.3956 20.5119 8.9209C20.9106 9.29412 20.9385 9.81303 21.0801 10.2361C21.3174 10.9387 21.6005 11.5893 22.075 12.1621C22.5295 12.711 22.709 13.3436 22.8286 14.0602C23.2134 16.3554 24.4276 18.2514 25.9667 19.9419C27.5757 21.7102 29.3062 23.3487 31.3418 24.6301C30.01 24.7338 28.6622 24.6819 27.3584 25.0611L27.3623 25.0651Z" fill="#544A44"/>
<path d="M34.4933 22.6644C34.8023 22.6005 35.201 22.6783 35.2888 22.2353C35.3665 21.8541 35.0675 21.7303 34.7983 21.5906C32.1147 20.1935 30.4081 17.9522 29.3375 15.18C28.8211 13.8448 28.4323 12.4757 28.5081 11.0207C28.5201 10.7792 28.3745 10.39 28.7274 10.3541C29.0624 10.3202 29.4053 10.4379 29.5528 10.889C30.2965 13.1762 31.4648 15.2538 32.8245 17.2237C34.1962 19.2096 35.843 20.8941 38.1179 21.856C38.078 22.4688 38.6801 22.5446 38.9752 22.8739C39.2324 23.1593 39.659 23.2631 39.9082 23.78C37.9624 23.792 36.1142 23.8559 34.4953 22.6644H34.4933Z" fill="#544A45"/>
<path d="M28.3212 15.2874C29.1486 17.1156 29.9799 18.9458 31.5012 20.3309C32.1551 20.9276 32.8489 21.4785 33.5248 22.0513C33.1181 22.0413 32.8808 22.163 33.0981 22.6181C33.3174 23.0751 33.5427 23.5302 33.766 23.9852C33.1998 24.2507 32.6615 23.7278 32.1411 24.0391C30.7356 23.2448 29.5134 22.181 28.371 21.0773C26.7182 19.4806 25.1152 17.8002 24.2201 15.6047C24.0965 15.2994 23.919 15.014 23.9629 14.6647C23.9948 14.6567 24.0406 14.6308 24.0566 14.6428C25.3684 15.5848 26.796 15.7544 28.3192 15.2854L28.3212 15.2874Z" fill="#544842"/>
<path d="M73.3457 34.0339C74.0575 33.968 74.6735 34.3592 75.3753 34.4271C77.71 34.6546 79.9788 34.473 82.3235 33.5908C82.0045 34.5867 81.3784 35.1895 80.882 35.8561C80.5909 36.2493 80.0745 36.0038 79.6638 35.9459C77.078 35.5827 74.4961 35.1955 71.9102 34.8422C71.4217 34.7763 70.9173 34.8302 70.4209 34.8282C70.9632 34.3333 71.649 34.2894 72.3289 34.2215C72.6718 34.1856 73.0546 34.3492 73.3457 34.0339Z" fill="#564E48"/>
<path d="M76.9209 41.4268C77.5868 41.778 78.2328 42.1812 78.9266 42.4686C79.6942 42.7879 79.6324 43.3627 79.4629 43.9455C79.2615 44.638 78.7292 44.3686 78.3205 44.203C77.2837 43.7838 76.0277 43.6701 75.5791 42.3668C75.8702 41.8299 76.7793 42.1772 76.9209 41.4268Z" fill="#524644"/>
<path d="M20.9644 63.7487C21.0801 63.9562 21.3871 64.0321 21.3672 64.3334C20.1889 63.9562 19.2379 63.1639 18.2071 62.5332C16.7956 61.669 15.3342 60.9405 13.791 60.3577C15.1069 60.1402 16.0619 61.0363 17.1684 61.4594C18.568 61.9963 19.9756 62.5272 20.9644 63.7507V63.7487Z" fill="#FAC581"/>
<path d="M74.5554 43.6108C74.1168 43.5948 73.8835 43.3893 73.5266 43.3733C73.0561 43.3533 72.765 42.545 73.0581 42.1798C73.2714 41.9143 73.4509 42.0441 73.6044 42.2616C73.9214 42.7107 74.2384 43.1617 74.5554 43.6108Z" fill="#F9B568"/>
<path d="M64.0153 11.4718C65.6362 14.0684 65.7418 16.8286 64.8865 19.6846C64.6772 20.3812 64.408 21.0598 64.1229 21.8701C63.5647 21.1077 63.0942 21.3052 62.6456 21.884C62.3266 22.2952 62.1252 22.1175 61.9458 21.7284C61.7245 21.2494 61.4414 20.7983 61.224 20.3173C61.1104 20.0658 60.915 19.966 60.6877 19.9381C60.4006 19.9042 60.3109 20.1437 60.2252 20.3692C60.0737 20.7644 59.9082 21.1536 59.7208 21.6086C58.0839 20.0718 56.3294 18.7905 54.24 18.0461C53.5263 17.7906 52.7766 17.6349 52.0489 17.4114C51.6442 17.2857 51.2773 17.3036 51.1697 17.7547C51.0501 18.2536 51.5026 18.2177 51.8117 18.2896C53.0358 18.577 54.2181 18.9741 55.3266 19.5789C55.4343 19.6367 55.5778 19.6846 55.512 19.992C54.4035 19.9321 53.2751 19.8842 52.1566 19.6567C47.9777 18.8065 44.4149 16.8386 41.4861 13.7311C41.3047 13.5395 41.0934 13.3658 41.0635 13.0765C41.8031 12.0805 42.7721 11.881 43.9643 12.0726C45.669 12.346 47.4035 12.2222 49.1181 12.1644C51.1836 12.0945 53.2372 12.352 55.3286 11.869C56.4371 11.6135 57.7609 12.2701 58.7598 13.1104C58.9552 13.274 59.1027 13.5315 59.4197 13.4836C60.9011 14.4935 61.6886 15.9365 62.0076 17.6629C62.0814 18.068 62.1013 18.563 62.6575 18.4392C63.2337 18.3135 62.9725 17.8106 62.9107 17.4493C62.5379 15.23 61.1443 13.6433 59.6131 12.1444C59.3121 11.5916 59.5992 11.2543 60.1036 11.2622C61.4075 11.2822 62.7293 11.0766 64.0133 11.4738L64.0153 11.4718Z" fill="#594B45"/>
<path d="M59.4228 13.4818C59.1816 13.7692 59.0041 13.5516 58.8586 13.388C57.9594 12.3681 56.5419 12.6016 55.4613 11.9809C55.1403 11.7973 54.7974 12.4939 54.2551 12.4879C50.9774 12.4519 47.6977 12.4759 44.418 12.4599C44.0292 12.4599 43.6425 12.3042 43.2517 12.2803C42.6635 12.2444 42.0435 12.1605 41.7404 12.893C41.6208 13.1824 41.3477 13.2123 41.0686 13.0766C40.3628 12.4998 39.98 11.6776 39.4576 10.9611C39.2822 10.7216 39.1027 10.4262 38.7439 10.6238C38.387 10.8213 38.4967 11.1267 38.6581 11.3961C38.9971 11.961 39.35 12.5178 39.6969 13.0786C39.6789 13.1425 39.663 13.2064 39.645 13.2682C38.4907 12.5378 37.2087 12.9768 35.9866 12.8751C34.9398 12.7872 33.8852 12.9868 32.8404 12.6415C32.2523 12.4479 31.8416 12.7034 32.1725 13.4139C32.3001 13.6894 32.3739 13.8989 32.0868 14.0965C30.6553 11.8871 29.7203 9.554 30.3104 6.84766C30.7151 7.27077 30.6055 7.74578 30.45 8.30062C31.0142 7.68191 31.714 7.60008 32.4457 7.60607C33.7935 7.61805 35.1392 7.60807 36.485 7.51227C36.6584 7.50029 36.806 7.48033 36.9116 7.33065C39.4596 7.86154 42.0435 7.83359 44.6274 7.83759C47.9389 7.84357 51.1788 8.24274 54.1933 9.75558C56.1312 10.7275 57.79 12.0847 59.4248 13.4798L59.4228 13.4818Z" fill="#685A51"/>
<path d="M76.1953 26.8658C76.1295 25.319 76.0557 23.7723 75.9999 22.2255C75.958 21.0539 75.7008 19.9263 75.2443 18.8585C74.5843 17.3198 73.0272 16.6871 71.3665 17.1661C70.7783 17.3357 70.2619 17.8147 69.5801 17.6231C69.8173 16.7609 70.0805 15.9047 70.2799 15.0345C70.3616 14.6793 70.5391 14.5376 70.8601 14.4677C72.3853 14.1324 73.9184 13.847 75.4855 13.8251C76.8073 13.8051 77.2739 14.1344 77.7743 15.4477C78.6057 17.6211 78.7353 19.9203 78.9147 22.2035C79.0343 23.7264 79.0264 25.2572 79.1041 26.784C79.132 27.3448 78.9845 27.5883 78.3884 27.4206C77.6626 27.2191 76.927 27.0514 76.1953 26.8678V26.8658Z" fill="#F9B060"/>
<path d="M64.0153 11.4716C63.9734 11.5534 63.9056 11.7111 63.8956 11.7071C62.7293 11.3 61.5131 11.6792 60.3348 11.4756C59.8364 11.3898 59.5832 11.6233 59.6171 12.1422C57.8188 10.9068 56.0802 9.58555 54.0725 8.67346C52.0529 7.75538 49.9336 7.30033 47.7484 7.07879C46.0219 6.90516 44.4089 6.36828 42.6465 5.54001C43.442 5.38035 43.9863 5.6418 44.5345 5.71564C47.236 6.08487 49.9515 5.97111 52.661 6.025C54.9617 6.06891 57.2166 6.27248 59.3679 7.20254C61.4234 8.09068 63.0024 9.4658 64.0173 11.4736L64.0153 11.4716Z" fill="#6F6357"/>
<path d="M28.3205 15.2889C26.7016 16.2588 25.2661 15.9255 23.9642 14.6682C23.1428 12.2592 23.8067 10.0478 24.8873 7.90231C25.1266 7.42531 25.4176 7.08602 25.7705 7.86439C25.9181 8.18971 26.1135 8.57091 26.3986 8.73856C27.5031 9.39519 27.6247 10.3652 27.5649 11.5247C27.4971 12.822 27.9676 14.0535 28.3205 15.2909V15.2889Z" fill="#60524A"/>
<path d="M80.601 29.0542C78.9841 29.5312 77.3353 29.4434 75.6905 29.4294C75.3575 29.4274 74.8651 29.2498 74.8053 29.7846C74.7435 30.3435 75.2598 30.3375 75.6346 30.4233C76.8628 30.7027 78.1009 30.9003 79.4666 30.8085C76.5278 32.4431 71.3282 31.4611 69.3105 28.2598C73.1983 26.751 76.8867 28.0383 80.601 29.0542Z" fill="#695C53"/>
<path d="M10.4828 32.125C10.7858 34.536 11.3361 36.6715 11.9083 38.8011C12.0399 39.2941 11.9043 39.7052 11.5115 39.9168C11.1367 40.1183 10.9313 39.6773 10.7499 39.4378C10.1378 38.6294 9.74109 37.7433 9.9285 36.6855C9.9943 36.3123 10.0222 35.8832 9.49985 35.8632C9.05924 35.8473 9.03332 36.2404 9.01139 36.5837C8.90772 38.1624 9.40615 39.5136 10.5186 40.6412C10.72 40.8448 11.0609 40.9925 10.9872 41.3478C10.9094 41.717 10.8576 42.2579 10.6163 42.3876C10.3113 42.5512 10.0043 42.0942 9.76901 41.8288C7.47821 39.2521 7.07349 36.4041 9.76502 32.9713C9.94645 32.7398 10.1438 32.5222 10.4828 32.123V32.125Z" fill="#6D5B34"/>
<path d="M63.7247 6.73145C66.3404 7.78325 68.5515 9.20627 69.2911 12.0862C69.5723 13.1859 69.5384 14.3296 69.2353 15.4313C68.8067 16.998 68.1089 18.4569 67.2536 19.8959C68.6791 14.7946 67.3951 10.4517 63.7227 6.73145H63.7247Z" fill="#5D554D"/>
<path d="M80.1953 53.3847C80.1554 50.7981 80.1415 48.2175 80.3388 45.6389C80.3867 45.0102 80.3708 44.3775 80.3727 43.7469C80.3727 43.2898 80.5482 43.1501 80.9888 43.3297C81.8262 43.671 82.6895 43.8686 83.158 44.8466C83.6245 45.8165 84.3323 46.6707 84.9324 47.5729C84.8287 47.6527 84.7789 47.7245 84.737 47.7205C84.3024 47.6707 83.8598 47.1038 83.467 47.5369C83.1241 47.9141 83.3593 48.477 83.4291 48.9679C83.5647 49.91 83.8438 50.84 83.7063 52.0395C83.0723 50.5347 82.9546 49.1116 82.5619 47.7665C82.4462 47.3693 82.53 46.7905 81.9338 46.8144C81.3437 46.8364 81.3955 47.3992 81.3776 47.8124C81.2958 49.7363 80.8034 51.5705 80.1953 53.3867V53.3847Z" fill="#524642"/>
<path d="M36.9098 7.33026C37.0215 7.57375 37.2189 7.84518 36.7065 7.84918C35.3288 7.85716 33.9511 7.89708 32.5755 7.86913C31.7879 7.85317 31.0642 7.95895 30.3086 8.63353C30.3086 7.933 30.3086 7.39014 30.3086 6.84727C30.4741 5.17876 31.136 3.67989 31.9454 1.98145C32.7689 4.69976 34.306 6.53792 36.9078 7.33026H36.9098Z" fill="#786C5F"/>
<path d="M2.83027 26.912C5.20281 27.0018 7.44575 26.5668 9.52122 25.3852C9.99374 25.1158 10.213 25.2256 10.1492 25.7724C10.0197 26.8961 10.0456 28.0217 10.1692 29.1394C10.233 29.7182 9.94389 29.8659 9.46141 29.9756C7.17261 30.4985 5.00743 30.1992 2.67676 28.9757C4.22389 29.0436 5.51184 29.1474 6.77387 28.852C7.57734 28.6644 8.37682 28.4628 9.1783 28.2652C9.48733 28.1894 9.78838 28.0676 9.70465 27.6824C9.6249 27.3092 9.29992 27.3152 8.98691 27.3411C7.43977 27.4769 5.89463 27.6884 4.33753 27.427C3.81717 27.3391 3.31076 27.2374 2.82828 26.91L2.83027 26.912Z" fill="#81745C"/>
<path d="M83.5363 38.5432C82.1786 39.116 83.0499 39.6988 83.656 40.4752C80.1231 39.1061 76.9212 37.681 73.5039 36.0924C76.9889 36.1003 80.161 37.8866 83.3848 36.0205C83.4207 36.5714 83.1835 36.6851 83.0279 36.8388C81.8935 37.9644 81.9154 38.0702 83.5363 38.5412V38.5432Z" fill="#534A43"/>
<path d="M71.4668 31.3882C73.2492 32.3981 75.1273 32.5438 77.0513 32.448C79.0171 32.3502 80.7536 31.5479 82.5241 30.8074C82.9268 30.6398 83.4671 29.9133 83.8559 30.5839C84.2048 31.1846 83.6086 31.7016 83.1122 32.0209C80.961 33.402 78.5645 33.7453 76.0743 33.5317C74.597 33.406 73.0837 33.3062 71.9214 32.1766C71.738 31.9989 71.4728 31.8812 71.4648 31.3862L71.4668 31.3882Z" fill="#5C524B"/>
<path d="M8.89802 41.9863C9.30274 42.4593 9.67956 42.9603 10.1202 43.3954C10.4312 43.7027 10.4352 44.038 10.3794 44.4013C9.96067 47.1136 9.4423 49.814 9.37053 52.5702C9.36256 52.8576 9.31271 53.157 9.08343 53.4184C8.49528 49.6782 8.62886 45.9421 8.58301 42.2119C8.68868 42.136 8.79235 42.0602 8.89802 41.9863Z" fill="#634C21"/>
<path d="M11.9867 35.0252C12.0026 34.8935 11.9727 34.7059 12.0465 34.644C12.2558 34.4704 12.3276 34.6899 12.3595 34.8336C12.4772 35.3466 12.6666 35.8675 12.6566 36.3804C12.6406 37.1648 13.1271 37.7635 13.2786 38.486C13.4561 39.3342 13.3664 40.0487 12.8041 40.7014C12.6586 40.869 12.6008 41.0387 12.8041 41.2143C13.0234 41.4039 13.0175 41.6274 12.84 41.827C11.9927 42.779 11.9428 44.0524 11.56 45.174C11.1852 46.2737 10.8164 47.6029 11.1035 48.6487C11.5501 50.2713 10.5692 51.5307 10.5273 53.0076C10.4834 54.5384 10.5392 56.1111 10.1903 57.634C10.0907 58.069 9.9192 58.4662 9.50849 58.6778C9.29915 58.7855 9.12968 58.6099 9.01006 58.4502C8.83461 58.2167 9.02601 58.1908 9.19548 58.1648C9.86936 58.1589 9.85141 57.6799 9.88929 57.1969C10.2382 52.7621 10.5692 48.3254 11.3985 43.9466C11.6697 42.5096 11.9309 41.0646 12.8141 39.8412C13.1171 39.422 12.9297 39.0089 12.8241 38.6017C12.515 37.4162 12.1123 36.2547 11.9867 35.0272V35.0252Z" fill="#FCBA6F"/>
<path d="M8.62751 56.7593C7.93768 56.7273 7.72634 56.3182 7.81407 55.6955C7.84596 55.4699 7.91575 55.2504 7.95961 55.0269C8.02939 54.6816 8.03338 54.3263 7.61469 54.2285C7.1661 54.1248 7.1681 54.5658 7.11227 54.8073C6.90293 55.7214 6.74543 56.6475 6.56599 57.5835C6.35067 57.4658 6.44437 57.2742 6.39453 57.1285C6.54007 55.3103 7.12224 53.6058 7.91176 51.8994C8.15101 53.518 8.38826 55.1386 8.62751 56.7573V56.7593Z" fill="#FCBA6F"/>
<path d="M84.0977 63.168C84.3788 63.17 84.3788 64.0801 84.8693 63.4095C85.2999 64.2078 86.0516 64.5411 86.863 64.7826C86.4363 65.1319 85.9957 64.8584 85.5611 64.8125C85.2979 64.7846 84.8214 64.8664 84.9131 65.0061C85.4255 65.7905 84.4147 66.2415 84.5782 66.9121C84.2492 66.7645 84.3429 66.4711 84.3569 66.2216C84.4147 65.1897 84.2831 64.1779 84.0957 63.168H84.0977Z" fill="#D5B388"/>
<path d="M6.22077 57.9629C6.70724 58.9708 6.19087 59.8968 5.93567 60.8209C5.72832 61.5713 5.33356 62.2679 5.02254 62.9904C4.76535 63.2798 4.47825 63.4634 4.05957 63.2818C5.43325 61.7669 5.7981 59.8529 6.22077 57.9629Z" fill="#FCBA6F"/>
<path d="M11.1884 111.624C11.4476 108.918 11.621 106.202 12.4903 103.587C12.8611 102.476 12.913 101.26 13.5689 100.238C13.7463 100.238 13.866 100.114 14.0095 100.039C14.6495 99.7073 14.9206 99.8231 14.8469 100.51C14.7671 101.26 15.1579 101.358 15.7102 101.37C16.703 101.39 17.6959 101.362 18.6888 101.382C20.7702 101.424 22.8597 101.246 24.9351 101.563C26.3407 101.779 27.6626 101.454 28.9326 100.863C29.094 101.713 28.7132 102.05 27.8859 102.248C25.7526 102.759 24.3849 104.14 23.5176 106.166C22.5626 108.399 23.1687 110.499 23.7509 112.636C23.6452 114.127 23.3461 114.425 21.8748 114.427C18.7905 114.435 15.7062 114.417 12.6239 114.439C11.944 114.443 11.5492 114.291 11.5811 113.504C11.6071 112.858 10.985 112.323 11.1884 111.624Z" fill="#31314A"/>
<path d="M44.5037 129.791C43.9514 129.747 43.6683 129.39 43.6842 128.755C43.7002 128.1 44.0391 127.795 44.6791 127.807C45.4048 127.821 45.6421 128.326 45.656 128.919C45.672 129.587 45.2094 129.811 44.5056 129.793L44.5037 129.791Z" fill="#04030C"/>
<path d="M41.0791 112.812C41.3861 112.638 41.6732 112.405 42.0022 112.305C42.6083 112.121 43.1207 112.193 43.0928 113.025C42.9572 113.321 42.8336 113.624 42.6821 113.909C42.4348 114.376 42.1378 114.313 41.8626 113.941C41.5895 113.574 41.3403 113.189 41.0811 112.81L41.0791 112.812Z" fill="#31314A"/>
<path d="M39.4973 113.443C39.6309 113.373 39.7625 113.303 39.8961 113.233C40.3068 113.289 40.869 113.221 40.8271 113.834C40.8012 114.219 40.3686 114.425 39.9938 114.341C39.5651 114.245 39.1325 114.034 39.4973 113.445V113.443Z" fill="#31314A"/>
<path d="M63.815 66.9304C63.9446 67.13 64.1759 67.2118 64.3194 67.0581C64.9694 66.3536 65.8785 66.4235 66.692 66.2099C67.2941 66.0502 67.633 66.3057 67.7945 66.8845C68.2511 68.5111 68.5521 70.1497 68.4106 71.8541C68.3647 72.403 68.4823 72.9299 69.2419 72.5646C69.7503 72.3211 69.6307 72.7961 69.6865 72.9558C69.9198 73.6284 69.7743 74.3349 69.7902 75.0275C69.8141 75.9895 69.7942 76.9515 69.7962 77.9134C69.7962 78.586 69.5131 79.101 68.8512 79.2606C68.0337 79.4562 67.8264 79.8833 68.1434 80.6357C68.2192 80.8154 68.2531 81.0209 68.261 81.2165C68.2929 81.949 68.584 82.3861 69.3915 82.2843C66.353 84.6134 62.9298 86.246 59.4567 87.7888C56.6117 89.0521 53.6071 89.9243 50.792 91.2655C49.3107 91.97 47.9868 92.9021 46.8564 94.0976C46.673 94.2912 46.4816 94.4828 46.344 94.7063C46.1845 94.9678 46.0928 95.3031 46.3938 95.5047C46.657 95.6803 46.8903 95.4827 47.0677 95.2592C47.5841 94.6045 48.1922 94.0417 48.8481 93.5288C50.463 92.2674 52.3511 91.5649 54.291 90.8983C51.5317 94.5307 48.6846 98.0833 46.5135 102.324C44.9424 99.4803 43.2736 96.8399 41.4972 94.2692C41.3178 93.8302 41.4753 93.7284 41.886 93.8821C42.4443 94.2513 42.9068 94.7243 43.3514 95.2173C43.5607 95.4488 43.786 95.7142 44.0951 95.4548C44.44 95.1674 44.2207 94.878 43.9974 94.6005C42.6018 92.8662 40.7077 91.8503 38.724 90.9901C35.3267 89.5172 31.7599 88.4554 28.4224 86.8308C25.6172 85.4656 22.8718 83.9967 20.3418 82.1546C20.6668 81.7414 20.9778 81.5838 21.3287 82.1446C21.4683 82.3681 21.7115 82.5957 21.9926 82.43C22.2598 82.2723 22.3794 81.9849 22.2358 81.6516C22.1242 81.3922 22.1362 81.1247 22.2717 80.8812C22.7761 79.9831 22.3834 79.4363 21.54 79.1489C21.0017 78.9652 20.7844 78.5781 20.7784 78.105C20.7525 75.8438 20.7605 73.5825 20.7784 71.3232C20.7784 71.0678 20.91 70.8143 21.0077 70.469C21.2489 70.7484 21.3187 71.2194 21.7633 71.0837C22.2338 70.94 22.2179 70.5069 22.1441 70.1696C21.865 68.8843 22.7961 67.8345 22.7961 66.6071C22.7961 66.3616 23.1051 66.18 23.3184 66.2778C24.102 66.637 25.0789 66.3077 25.7588 66.9564C26.1874 67.3635 26.634 67.3396 27.1245 67.142C27.3119 67.11 27.4993 67.0941 27.6887 67.124C29.3515 67.2897 30.9624 67.1759 32.4178 66.2379C32.6271 66.1141 32.8465 66.0183 33.0698 65.9245C34.591 65.2878 35.9686 64.3917 37.3642 63.5275C38.6941 62.7132 40.0677 62.0307 41.5949 61.6215C43.9994 60.9769 46.3619 61.2144 48.7544 61.6495C49.9267 61.863 50.8877 62.5136 51.9504 62.9547C53.5035 63.8708 55.0526 64.7969 56.6117 65.707C56.9546 65.9085 57.3095 66.0682 57.6823 66.1979C58.3363 66.5791 59.0002 66.9284 59.7897 66.9104C60.631 67.0941 61.4624 67.0561 62.3098 66.9104C62.8002 66.8266 63.3206 66.5751 63.817 66.9264L63.815 66.9304Z" fill="#FBFCFC"/>
<path d="M54.6143 106.869C58.0335 105.49 61.5106 104.248 65.1771 103.769C69.1705 103.248 73.0304 106.216 73.6644 110.204C74.0252 112.477 73.0603 114.355 71.6128 116.014C70.4604 117.333 69.023 118.295 67.4699 119.069C65.3007 120.151 63.0438 121.031 60.7729 121.874C60.3881 121.965 60.2346 121.702 60.0851 121.43C59.784 120.62 59.2776 119.894 59.0763 119.039C58.9606 118.596 58.9208 118.117 58.6416 117.74C58.2668 117.229 58.0475 116.403 57.0905 116.924C56.8273 117.068 56.5143 116.904 56.2751 116.696C55.1127 115.329 54.5365 113.687 54.086 111.99C53.9903 111.627 54.07 111.294 54.2415 110.946C54.7738 109.863 55.1147 108.749 54.5385 107.557C54.4249 107.322 54.2913 107.066 54.6143 106.869Z" fill="#FEFEFE"/>
<path d="M39.1546 112.401C36.5229 113.581 33.8613 114.686 31.098 115.525C28.5599 116.293 26.3011 115.339 25.0909 112.988C24.2854 111.423 23.8567 109.753 24.0701 107.986C24.415 105.136 26.6679 103.12 29.6744 102.849C32.4358 102.602 35.0874 103.166 37.7072 103.919C39.3301 104.384 40.9171 104.971 42.52 105.503C42.5479 105.521 42.6018 105.545 42.5998 105.555C42.4343 106.224 42.8011 106.775 43.0205 107.346C43.5528 108.737 43.0045 109.549 41.5032 109.421C40.8353 109.363 40.5901 109.673 40.297 110.172C39.8724 110.896 39.9701 111.888 39.1506 112.401H39.1546Z" fill="#FEFEFE"/>
<path d="M82.7517 101.065C82.4108 101.459 83.1803 101.95 82.8155 102.117C82.2413 102.385 81.6412 102.684 80.9414 102.672C78.8839 102.636 76.8243 102.72 74.7708 102.64C73.2914 102.582 71.8201 102.963 70.3407 102.668C69.8921 102.578 69.5392 102.714 69.5911 103.287C68.4527 102.971 67.3362 102.554 66.122 102.634C65.815 102.654 65.6315 102.526 65.6076 102.183C65.3644 98.4588 64.6885 94.8065 63.8133 91.186C63.7913 91.0922 63.8033 90.9885 63.8013 90.8887C64.6446 91.4635 65.6036 91.3876 66.5526 91.3836C70.1653 91.3717 73.7759 91.4255 77.3866 91.2639C78.5629 92.4035 79.3783 93.8165 80.1359 95.2276C81.1447 97.1037 82.1994 98.9758 82.7477 101.065H82.7517Z" fill="#444556"/>
<path d="M48.9782 108.69C49.4627 108.665 49.4248 109.108 49.5384 109.377C51.3228 113.586 53.0912 117.799 54.8657 122.013C55.3422 123.144 55.7907 124.288 56.3031 125.4C56.5583 125.95 56.5902 126.244 55.9124 126.503C54.0602 127.214 52.2918 128.122 50.5433 129.06C50.0189 129.341 49.8415 129.255 49.6501 128.689C47.7939 123.194 45.9078 117.71 44.0218 112.225C43.9041 111.88 43.8383 111.596 44.2132 111.369C45.6845 110.477 47.132 109.545 48.6951 108.816C48.7848 108.774 48.8765 108.734 48.9762 108.688L48.9782 108.69Z" fill="#FEFEFE"/>
<path d="M28.933 100.863C28.2491 101.334 27.7028 101.973 26.694 101.881C23.1272 101.56 19.5445 101.67 15.9677 101.66C15.048 101.657 14.632 101.213 14.7197 100.327C14.7336 100.177 14.6858 100.063 14.5522 100.005C14.3947 99.9374 14.3249 100.069 14.2352 100.167C14.0378 100.382 13.8803 101.061 13.5713 100.237C14.4067 97.4166 15.6886 94.8001 17.174 92.2754C18.1349 92.6805 19.1378 92.7863 20.1725 92.7783C22.6128 92.7584 25.0532 92.7704 27.4955 92.7723C28.4345 92.7723 29.3297 92.942 30.1272 93.4749C29.7304 95.9357 29.3317 98.3986 28.935 100.859L28.933 100.863Z" fill="#414254"/>
<path d="M30.1261 93.4779C26.4337 92.7135 22.6935 93.2683 18.9852 93.0408C18.385 93.0029 17.448 93.2883 17.1729 92.2784C18.5306 89.7377 20.1854 87.4525 22.5958 85.788C23.2079 85.3649 23.7242 85.291 24.3961 85.7161C26.3061 86.9216 28.3856 87.7998 30.4411 88.7219C30.9615 88.9554 31.1628 89.1809 31.0253 89.8435C30.7741 91.0689 30.152 92.2006 30.1241 93.4759L30.1261 93.4779Z" fill="#53535C"/>
<path d="M77.3884 91.2615C76.5331 91.9441 75.5004 91.6088 74.5793 91.6407C71.4292 91.7505 68.2711 91.6587 65.117 91.7026C64.4292 91.7126 64.0205 91.515 63.8012 90.8863C63.5061 89.9083 63.225 88.9264 62.908 87.9544C62.7624 87.5074 62.8083 87.2719 63.2868 87.0244C64.7861 86.248 66.2535 85.4117 67.7109 84.5555C68.1674 84.2861 68.5403 84.3021 69.0108 84.4957C72.1748 85.8049 74.7029 87.9225 76.8282 90.567C77.0136 90.7985 77.201 91.028 77.3884 91.2595V91.2615Z" fill="#59595F"/>
<path d="M62.1074 88.8643C63.4193 93.2312 64.2367 97.4663 64.4401 101.817C64.47 102.466 64.3563 102.843 63.6167 102.969C61.3976 103.348 59.2783 104.122 57.1251 104.751C56.4033 104.963 56.3675 104.751 56.4193 104.144C56.5808 102.266 56.7144 100.386 56.826 98.5041C56.8559 98.0032 57.0074 97.8316 57.4859 98.0451C57.5438 98.0711 57.6175 98.0631 57.6813 98.077C59.3959 98.4622 59.5175 98.3744 60.0339 96.684C60.7696 94.281 61.3298 91.8361 61.8422 89.3772C61.8662 89.2595 61.9539 89.1557 62.1074 88.8623V88.8643Z" fill="#3D3E51"/>
<path d="M55.67 99.3218C55.5264 101.206 55.3669 103.09 55.2493 104.976C55.2234 105.381 55.0519 105.547 54.707 105.685C53.4151 106.201 52.1391 106.754 50.8492 107.277C50.2092 107.537 48.5823 106.876 48.2932 106.243C47.9343 105.459 47.6353 104.647 47.2425 103.882C47.0292 103.469 47.2026 103.18 47.3701 102.864C48.3311 101.052 49.3598 99.2799 50.5999 97.6394C51.8839 98.6393 53.2795 98.4856 54.705 98.0425C54.7987 98.0126 54.9024 98.0066 55.0001 98.0425C55.1696 98.1024 55.4686 98.3499 55.2254 97.8629C55.1755 97.7631 55.2792 97.6094 55.4487 97.6074C55.6042 97.6074 55.7119 97.7032 55.7158 97.8409C55.7338 98.3359 55.8016 98.8349 55.668 99.3238L55.67 99.3218Z" fill="#FBFDFE"/>
<path d="M61.1963 88.083C60.3689 90.9311 60.0141 93.7591 59.0551 96.4455C58.8178 97.1121 58.6045 97.3277 57.8788 97.0702C56.2599 96.4974 54.6091 96.0144 52.9603 95.5235C52.4877 95.3837 52.2325 95.268 52.6433 94.767C53.9053 93.2362 55.1494 91.6875 56.4034 90.1507C56.4832 90.0529 56.5809 89.9491 56.6945 89.9032C58.1519 89.3064 59.6133 88.7217 61.1963 88.083Z" fill="#FBFCFD"/>
<path d="M42.693 98.0666C44.5053 100.478 45.8112 103.164 47.1749 106.152C44.0986 104.924 41.2157 103.918 38.3048 102.994C38.0815 101.36 38.261 99.7152 38.2072 98.0766C38.2012 97.875 38.2151 97.6675 38.4584 97.6016C38.6697 97.5457 38.8412 97.6076 38.9548 97.8112C39.2519 98.3441 39.7264 98.3161 40.2467 98.2562C41.0582 98.1644 41.8776 98.1285 42.693 98.0646V98.0666Z" fill="#FBFCFD"/>
<path d="M33.9254 95.8585C34.2404 96.3056 34.1068 96.8245 34.1188 97.3075C34.1347 98.0379 34.384 98.3692 35.1595 98.1697C35.7596 98.016 36.6129 97.6248 36.9299 97.8763C37.3925 98.2415 37.0735 99.1157 37.1014 99.7703C37.1333 100.501 37.1014 101.231 37.1174 101.962C37.1273 102.461 37.0256 102.708 36.4275 102.535C34.5116 101.984 32.5358 101.802 30.556 101.678C30.231 101.658 29.904 101.622 29.9758 101.203C30.2809 99.419 30.3985 97.6008 30.9149 95.8545C31.2877 96.0601 31.6685 96.2437 32.0672 96.4033C33.2635 96.8823 33.2595 96.8923 33.9254 95.8585Z" fill="#3C3D4F"/>
<path d="M59.2456 119.002C59.5307 119.824 60.1328 120.515 60.2424 121.409C59.5028 121.265 59.4031 120.562 59.104 120.056C58.6754 119.327 58.3185 118.75 57.2558 118.702C56.5381 118.67 55.936 117.834 55.5512 117.136C55.2162 116.525 54.8753 115.926 54.4407 115.299C54.8554 116.79 54.961 118.287 55.6788 119.634C55.9699 120.179 55.8522 120.253 55.4196 120.634C53.8047 116.808 52.1937 112.978 50.5669 109.158C50.3974 108.759 50.4672 108.576 50.8659 108.402C52.104 107.861 53.3082 107.238 54.6161 106.871C54.5962 107.029 54.6261 107.151 54.7078 107.312C55.3917 108.639 55.2302 109.915 54.3729 111.112C54.1675 111.398 54.2493 111.681 54.327 111.964C54.7856 113.631 55.4076 115.226 56.4583 116.621C56.6537 117.026 57.1043 117.17 57.3675 117.509C57.4372 117.599 57.5409 117.742 57.6845 117.577C58.46 116.681 58.5816 117.613 58.8867 118.012C59.11 118.303 59.0641 118.696 59.2476 119.006L59.2456 119.002Z" fill="#F8C172"/>
<path d="M41.23 95.8889C39.336 96.2701 37.5217 96.6354 35.7074 97.0046C35.4064 97.0665 35.1432 97.1702 35.0914 96.6733C34.878 94.5976 34.6288 92.5239 34.3936 90.4463C37.3901 90.8395 39.6809 92.6577 41.23 95.8889Z" fill="#FBFCFD"/>
<path d="M39.1553 112.401C39.5301 111.501 39.9109 110.603 40.2818 109.699C40.4991 109.17 40.7722 108.905 41.4082 109.182C41.9087 109.398 42.429 109.326 42.8278 108.829C43.2165 108.344 43.0491 107.905 42.7998 107.458C42.4549 106.839 42.2974 106.2 42.5207 105.504C44.4845 106.097 46.3467 106.947 48.4002 107.729C45.3239 109.506 42.445 111.354 39.1533 112.399L39.1553 112.401Z" fill="#F5BD70"/>
<path d="M55.4178 120.632C55.8345 119.987 55.4357 119.418 55.1566 118.919C54.7459 118.185 54.3731 117.494 54.6003 116.616C54.6821 116.301 54.4708 116.047 54.2574 115.834C53.9524 115.528 54.0461 115.171 54.0939 114.798C54.4987 114.814 54.6681 115.119 54.8177 115.389C55.4178 116.464 56.1375 117.452 56.8891 118.422C57.0805 118.668 57.2839 118.55 57.5092 118.496C58.1332 118.348 58.532 118.574 58.8729 119.155C59.3175 119.911 59.6205 120.759 60.2386 121.408C60.4121 121.566 60.4938 121.833 60.7709 121.871C59.5946 122.36 58.4064 122.821 57.248 123.348C56.6997 123.597 56.5044 123.418 56.3289 122.915C56.0578 122.14 55.7228 121.39 55.4158 120.63L55.4178 120.632Z" fill="#F9B364"/>
<path d="M33.9246 95.8573C33.8149 97.0767 33.4062 97.3601 32.3735 96.7654C31.883 96.4839 31.0197 96.7474 30.9141 95.8533C31.0237 93.8614 31.6159 91.9614 32.0425 90.0294C32.0944 89.7959 32.1362 89.4586 32.5429 89.5884C32.8898 89.6981 33.2627 89.768 33.3045 90.245C33.472 92.1191 33.9385 93.9612 33.9226 95.8553L33.9246 95.8573Z" fill="#494855"/>
<path d="M55.6716 99.3225C55.534 98.8175 55.7553 98.2767 55.4543 97.5841V98.4822C55.1512 98.4643 55.0754 98.0711 54.6787 98.2807C54.0806 98.598 53.3708 98.616 52.685 98.6798C51.7439 98.7676 51.1259 98.3286 50.6035 97.638C50.6693 97.5242 50.7491 97.4165 50.7989 97.2947C51.2375 96.2609 51.9473 96.1012 52.9222 96.5702C53.3947 96.7958 53.9271 96.9016 54.4335 97.0532C55.5313 97.3792 55.944 98.135 55.6716 99.3205V99.3225Z" fill="#DAE9F7"/>
<path d="M42.6933 98.0669C42.4261 98.4201 42.0653 98.484 41.6446 98.476C41.0524 98.4641 40.4603 98.4182 39.8761 98.6257C39.4116 98.7914 39.1285 98.4601 38.7676 98.1986C38.5204 98.021 38.971 97.6318 38.5443 97.7296C38.2353 97.7995 38.325 98.1028 38.323 98.3184C38.3131 99.8771 38.3111 101.436 38.3071 102.995C37.9921 101.296 38.1795 99.5797 38.1237 97.8733C38.1117 97.514 38.3908 97.4721 38.662 97.4262C39.6409 97.2606 40.6118 97.043 41.5967 96.9313C42.3703 96.8435 42.462 97.552 42.6933 98.0649V98.0669Z" fill="#D8E4F2"/>
<path d="M41.8859 93.8813C41.6267 93.8813 41.4831 93.995 41.4971 94.2685C41.2499 93.9691 41.0026 93.6677 40.6816 93.2785C41.2897 93.2486 41.6027 93.534 41.8859 93.8813Z" fill="#ACACAC"/>
<path d="M27.5347 67.2894C27.3692 67.3214 27.2296 67.2835 27.124 67.1438C25.4373 66.2197 23.5333 65.7726 21.8825 64.7607C21.6851 64.641 21.4658 64.5791 21.3721 64.3416C22.0639 64.2199 22.5683 64.5971 23.0827 64.9663C23.5293 65.2876 23.9839 65.5311 24.5222 65.102C24.8372 64.8505 25.208 64.9224 25.5629 65.0541C25.856 65.1639 26.1789 65.2258 26.3823 64.9444C26.6355 64.5971 26.3305 64.3217 26.1411 64.0702C25.9636 63.8367 25.7423 63.6511 25.4433 63.5373C24.8412 63.3118 24.4863 62.9805 25.1921 62.4356C25.3197 62.3378 25.525 62.1143 25.3296 62.0863C24.6916 61.9965 24.7195 61.1962 24.0177 61.0864C22.8873 60.9108 21.8346 58.879 21.8565 57.6756C21.8745 56.6138 22.1117 55.8134 22.9371 55.081C23.2083 54.8395 23.8882 54.3146 23.4316 53.63C23.4216 53.614 23.4615 53.5721 23.4655 53.5402C23.629 52.5516 23.3379 51.6754 22.5922 50.9117C22.4327 50.748 22.3011 50.5564 22.1556 50.3768C22.361 50.1413 22.6441 50.1333 22.9232 50.1094C24.1513 50.1333 25.2539 50.5465 26.2806 51.1931C26.8189 51.8437 27.6045 52.181 28.2345 52.7199C28.4618 52.9135 28.9064 53.1969 28.8286 53.3306C28.4339 54.0032 29.3211 53.7358 29.3211 54.105C29.0419 54.5321 28.5794 54.4144 28.1727 54.4263C27.0482 54.4623 25.9158 54.3405 24.8093 54.6379C24.3647 54.7577 23.8802 54.7996 23.6649 55.3065C23.4874 55.6677 23.1744 55.9252 22.9471 56.2465C22.1038 57.4341 22.3211 58.8571 23.4994 59.7293C24.6498 60.5815 25.9935 60.8868 27.3772 61.0804C27.7261 61.1283 28.1169 61.0605 28.3701 61.4018C28.4518 61.4297 28.2086 61.6433 28.4897 61.5834C29.2872 61.4157 30.0926 61.4596 30.8961 61.5694C31.7773 61.6832 32.4791 61.9905 32.6705 62.9944C32.7443 63.3816 33.1749 63.4834 33.478 63.677C34.1479 64.1061 34.2236 64.4873 33.6534 65.0122C33.167 65.4633 32.7543 65.9782 32.2758 66.4332C30.8104 67.3613 29.1636 67.2735 27.5327 67.2835L27.5347 67.2894Z" fill="#FAC581"/>
<path d="M63.8155 66.9296C62.4259 67.1212 61.0522 67.6241 59.6307 67.1332C58.1733 66.8019 57.1585 65.6662 55.8506 65.0455C55.2106 64.7422 55.2584 64.1554 55.8286 63.7023C56.0858 63.4988 56.3969 63.3531 56.5544 63.0437C57.1724 61.8203 58.2271 61.4371 59.5131 61.491C60.3624 61.5269 61.2177 61.4052 62.059 61.6087C62.063 61.5369 61.9454 61.5189 61.9793 61.4291C62.083 61.2275 62.2724 61.1417 62.4698 61.1337C64.0946 61.0659 65.57 60.509 66.9935 59.7746C67.1131 59.7127 67.2467 59.7107 67.3803 59.7446C67.6275 59.9043 67.6754 60.2416 67.474 60.3134C66.7702 60.5669 66.3894 61.3373 65.5361 61.3772C64.7725 61.4131 64.1784 62.1775 63.3251 62.0298C63.2792 62.0219 63.1576 62.1656 63.1596 62.2374C63.1636 62.431 63.3231 62.5048 63.4925 62.5408C64.3239 62.7224 64.2561 63.0996 63.8534 63.7243C63.345 64.5147 62.9682 65.3908 62.5096 66.281C63.4347 66.4007 64.2143 66.4426 64.8224 65.6563C65.1274 65.2631 65.576 65.0236 66.1382 65.281C66.6367 65.5086 67.0952 65.1094 67.5877 65.1334C66.7662 65.6862 65.8192 65.9596 64.9181 66.3368C64.5353 66.4965 64.0548 66.4845 63.8175 66.9236L63.8155 66.9296Z" fill="#FBCA8A"/>
<path d="M21.9753 50.3699C21.1021 50.4078 21.4171 49.9029 21.6863 49.6015C22.6432 48.5258 23.5903 47.4101 25.1474 47.1866C25.9249 46.7155 25.9528 46.0549 25.6298 45.3005C25.255 44.4263 25.3786 44.2986 26.3117 44.2627C27.0932 44.2307 27.7811 44.4303 28.5128 44.8016C27.6595 44.129 28.1081 43.2767 28.0602 42.5044C28.0004 41.5444 28.4131 40.9336 29.2923 40.5724C29.727 40.3928 30.1038 40.0615 30.3151 39.6523C30.7816 38.7562 31.5612 38.2912 32.4524 37.9818C33.6008 37.5826 34.6335 36.8622 35.9115 36.8182C36.717 36.7923 36.9801 36.1536 37.1895 35.489C37.5184 34.4412 37.7178 34.2875 38.7526 34.4592C40.3834 34.7306 41.9924 34.3654 43.6113 34.3474C44.8693 34.3334 46.1274 34.3993 47.3814 34.1838C48.0693 34.066 48.773 34.1498 49.4549 34.3215C50.2225 34.5151 50.9681 34.7566 51.7895 34.4851C52.2342 34.3394 52.6309 34.6009 52.8402 35.042C53.0117 35.4012 53.2051 35.7485 53.3845 36.1037C53.7753 36.8761 54.3435 37.2374 55.2208 37.1515C55.9066 37.0857 56.5266 37.3152 57.0849 37.7204C57.352 37.914 57.6132 38.1854 57.9382 38.2173C59.8582 38.4089 59.9499 39.9577 60.2689 41.3288C60.3426 41.6481 60.2928 41.9914 60.2988 42.3227C60.3048 42.5543 60.2469 42.8856 60.4164 42.9893C61.2996 43.5322 61.7303 44.5341 62.5796 45.087C62.8906 45.2885 63.2435 45.4262 63.3591 45.8035C63.5625 46.4641 64.033 46.8752 64.6252 47.1267C65.4067 47.46 65.963 48.0727 66.6049 48.5836C67.2748 48.9648 68.0643 49.1564 68.2478 50.1304C68.3594 50.7192 68.2338 51.0205 67.7035 51.1742C67.1672 51.3279 66.6269 51.4656 66.0786 51.5694C65.7915 51.6233 65.4107 51.5315 65.313 51.8768C65.1974 52.2759 65.5742 52.4276 65.8553 52.5953C65.9949 52.6791 66.1384 52.7549 66.282 52.8328C66.1863 53.2619 65.632 53.214 65.5662 53.6351C65.9968 54.1001 66.6927 54.1879 67.1193 54.7048C67.3506 54.9843 67.5081 55.1519 67.1452 55.4034C66.4454 55.577 65.959 55.1 65.4067 54.8286C65.2811 54.3197 64.8485 54.4713 64.5275 54.4534C63.6801 54.4055 62.8288 54.4713 61.9815 54.4214C61.0265 54.3636 60.8331 54.0283 61.1581 53.0763C61.2159 52.9984 61.2837 52.9286 61.3594 52.8647C62.0453 52.4296 62.783 52.0783 63.411 51.5534C64.2882 50.9786 65.2691 50.6872 66.2859 50.4757C66.5631 50.4178 66.9977 50.4837 67.0635 50.1623C67.1412 49.7791 66.6947 49.6654 66.4315 49.4937C63.9852 47.8891 61.3156 47.1586 58.3848 47.466C56.6303 47.7713 55.5098 46.6257 54.6206 45.4881C53.6776 44.2826 52.4475 43.8056 51.1476 43.3426C50.6332 43.159 50.1547 42.9873 49.8297 42.5243C49.734 42.3886 49.6124 42.2229 49.4569 42.209C47.9755 42.0772 46.6218 41.3528 45.1305 41.2889C44.8653 41.2769 44.5663 41.2889 44.3669 41.4625C42.9912 42.666 41.1989 42.4445 39.5959 42.8417C38.7865 43.0432 38.0627 43.1909 37.6181 43.9653C37.2971 44.5261 36.7947 44.8295 36.1448 44.8195C35.6623 44.8115 35.429 45.055 35.2974 45.4881C35.0363 46.3363 34.4361 46.6956 33.5629 46.6657C33.0007 46.6477 32.4384 46.6557 31.8782 46.5659C30.5065 46.3483 29.2305 46.8712 27.9186 47.1087C27.0972 47.4999 26.212 47.7294 25.3687 48.0647C24.7865 48.2942 24.2562 48.5916 23.7298 48.915C22.8964 49.0986 22.412 49.7053 21.9813 50.3739L21.9753 50.3699Z" fill="#FBC785"/>
<path d="M66.6058 48.5837C65.593 47.995 64.5742 47.4142 63.5674 46.8154C63.366 46.6957 63.2504 46.4861 63.2165 46.2366C63.1946 46.075 63.1667 45.7975 63.0869 45.7776C61.9306 45.4802 61.7033 44.123 60.7283 43.6919C60.1541 43.4385 59.9747 43.1311 60.0246 42.5723C60.1342 41.3828 59.867 40.2671 59.3287 39.2093C59.1932 38.9419 59.0636 38.5846 58.7187 38.6365C57.8474 38.7643 57.3031 38.1994 56.691 37.7703C56.3222 37.5129 55.9294 37.4111 55.4788 37.4031C53.6785 37.3752 53.2618 37.0858 52.6777 35.3195C52.4903 34.7506 52.1752 34.4852 51.6748 34.7367C51.0707 35.042 50.5882 34.9183 49.9841 34.7227C48.8118 34.3435 47.5937 34.5211 46.3675 34.557C44.1844 34.6229 41.9893 34.9742 39.8241 34.7646C38.3248 34.6189 37.3359 34.7087 37.0767 36.4311C36.9551 37.2374 36.0998 37.1516 35.6114 37.1516C34.3673 37.1516 33.494 38.0198 32.3875 38.3112C31.5601 38.5287 30.8902 39.0177 30.5014 39.8819C30.328 40.2671 29.8854 40.6763 29.4866 40.786C28.398 41.0894 28.2246 41.8059 28.3263 42.7599C28.3542 43.0174 28.3263 43.2988 28.2445 43.5443C28.083 44.0332 28.1947 44.3246 28.727 44.3925C28.9304 44.4184 29.1816 44.4504 29.1935 44.6759C29.2095 44.9573 28.9084 45.0192 28.7031 45.093C28.5256 45.1569 28.2126 45.2307 28.1409 45.1469C27.6245 44.5382 26.9785 44.5282 26.2648 44.5841C26.0554 44.6001 25.7962 44.2448 25.6048 44.602C25.4732 44.8495 25.7045 45.0212 25.854 45.1988C26.4143 45.8614 26.0375 46.9132 25.1463 47.1886C25.7384 46.532 25.5849 45.9293 25.0107 45.3605C24.7216 45.0731 24.3647 44.7517 24.6259 44.3386C24.8871 43.9275 25.3038 43.6121 25.8481 43.6021C27.5627 43.5702 27.6265 43.5742 27.7042 41.9336C27.7421 41.1493 28.0152 40.7102 28.6991 40.4048C29.2912 40.1414 29.6043 39.6664 29.5345 38.9698C29.4627 38.2573 29.7558 37.8522 30.5293 37.7883C31.0178 37.7484 31.4923 37.5907 31.9987 37.6027C33.486 37.6386 33.9745 36.4551 34.449 35.3993C34.6584 34.9343 34.8418 34.7766 35.2884 34.8165C36.1836 34.8963 36.9153 34.6728 37.6549 34.0581C38.1593 33.637 38.9907 33.4973 39.6905 33.4514C41.461 33.3336 43.2433 33.1939 44.9998 33.1201C47.0892 33.0322 49.2345 33.4573 51.3399 33.8346C52.5919 34.0601 53.7204 34.7965 55.0522 34.6728C55.3134 34.6489 55.7679 34.8085 55.8437 35.0001C56.2584 36.0399 57.1277 36.1856 58.0627 36.3513C59.245 36.5609 59.5102 37.6266 59.8112 38.5467C60.0824 39.381 60.4771 40.0136 61.2607 40.4467C61.7411 40.7122 61.9465 41.3728 62.2874 41.6822C63.1507 42.4645 63.683 43.652 64.5962 44.167C65.4415 44.642 65.6847 45.0431 65.603 45.8634C65.5512 46.3903 65.6608 46.8434 66.0994 47.1926C66.546 47.5479 66.0735 48.2484 66.5999 48.5837H66.6058Z" fill="#FAC581"/>
<path d="M65.4165 54.7439C66.0544 54.8018 66.5369 55.2649 67.145 55.4026C68.5865 56.8895 68.6543 58.1448 67.3803 59.7475C66.0804 60.7793 64.5392 61.1505 62.9422 61.3761C62.6213 61.422 62.3023 61.4799 61.9833 61.5317C60.2687 61.6834 58.564 61.6894 56.9232 61.0787C56.1257 60.7813 55.4797 60.2524 55.057 59.506C54.3293 58.2247 54.7739 56.7657 56.1576 55.9275C57.7187 54.9814 59.4373 54.5124 61.2496 54.3967C62.3401 54.3268 63.4367 54.3807 64.5293 54.3727C64.8861 54.3707 65.1732 54.4945 65.4185 54.7419L65.4165 54.7439Z" fill="black"/>
<path d="M21.9746 50.3708C22.0025 49.3449 22.7203 49.0096 23.5536 48.7881C23.6593 49.4287 22.7801 49.6922 22.9575 50.3608C22.6904 50.3668 22.4232 50.3728 22.158 50.3788L22.0663 50.3708H21.9746Z" fill="#FBEECD"/>
<path d="M22.613 61.4638C22.3777 61.3401 22.0188 61.2982 22.0368 60.907C22.0448 60.7373 22.1943 60.5936 22.3817 60.6256C22.6907 60.6775 22.9619 60.8092 22.9399 61.1944C22.93 61.374 22.8642 61.5217 22.613 61.4638Z" fill="#FCBA6F"/>
<path d="M56.308 67.2346C56.286 68.4501 56.8104 68.8133 57.9249 68.4002C58.852 68.0569 59.8129 67.8194 60.7899 68.2326C61.0511 68.3423 61.3561 68.4301 61.3581 68.8313C61.3601 70.8391 61.7827 72.825 61.6292 74.8427C61.5415 75.9863 61.5315 77.1359 61.5236 78.2796C61.5176 79.2056 61.4638 80.5867 60.0083 80.9639C59.3564 81.1316 59.4122 81.7603 59.4302 82.2991C59.4541 83.0077 59.3903 83.4368 58.5429 83.8759C57.7096 84.3089 56.9599 85.245 56.3738 86.0553C55.979 86.6022 55.7657 86.8776 55.0918 86.9235C54.2484 86.9814 53.3473 86.9335 52.9465 88.093C52.7631 88.6259 51.9357 88.7876 51.2758 88.594C50.5042 88.3685 50.0277 88.6539 49.8822 89.4103C49.7765 89.9611 49.5333 89.9631 49.0089 90.015C46.435 90.2765 43.8452 89.8174 41.2832 90.2545C40.9184 90.3164 40.7629 90.1847 40.6871 89.7995C40.404 88.3665 40.083 88.2307 38.7652 88.9153C38.0414 89.2905 37.6148 89.1149 37.5271 88.2846C37.4154 87.2268 36.8352 86.8476 35.8563 86.8955C35.0827 86.9335 34.2932 87.0333 34.1995 85.9016C34.1776 85.6282 33.9124 85.4306 33.6473 85.3827C33.1209 85.2869 32.7002 85.1532 32.6703 84.4886C32.6564 84.1892 32.3334 84.1433 32.0583 84.0874C31.2309 83.9198 30.9139 83.4128 31.0734 82.5726C31.2588 81.5966 31.1172 80.7684 29.9688 80.4829C29.6698 80.4091 29.606 80.1656 29.5322 79.8882C28.7407 76.8406 28.964 73.7291 28.9381 70.6335C28.9281 69.5738 29.5043 68.7734 30.3197 68.2944C31.183 67.7895 31.9685 68.3543 32.6344 68.9491C32.8876 69.1746 33.1309 69.44 33.4997 69.2764C33.8446 69.1227 33.8885 68.7754 33.9204 68.4361C33.9802 67.8154 33.6812 67.0949 34.0799 66.59C34.5165 66.0391 35.2801 66.4742 35.8743 66.3126C36.5162 66.1369 37.1762 65.9573 37.5669 65.3546C38.1192 64.5064 38.8828 64.1611 39.8737 64.3068C40.1947 64.3547 40.41 64.201 40.4917 63.9296C40.6831 63.2929 41.2254 63.1312 41.7458 62.9237C42.936 62.4507 44.1143 61.9736 45.4541 62.1313C46.0223 62.1972 46.5287 62.271 47.0451 62.5744C48.0021 63.1352 49.1106 63.233 50.1932 63.3388C50.7116 63.3887 51.1143 63.5244 51.4792 63.9495C52.1351 64.7139 52.7711 65.5582 53.9434 65.5701C54.083 65.5701 54.2804 65.6879 54.3481 65.8096C54.6691 66.3685 55.1536 66.5501 55.7637 66.5501C56.1884 66.5501 56.4914 66.6978 56.31 67.2346H56.308Z" fill="#FEFEFE"/>
<path d="M65.4156 54.7438C62.5008 54.2548 59.6757 54.6121 56.9722 55.7717C55.9295 56.2187 54.9186 56.8075 54.9944 58.2145C55.0702 59.6376 55.9275 60.4199 57.1716 60.887C58.7267 61.4697 60.3635 61.4278 61.9824 61.5316C62.1758 61.5556 62.3672 61.5795 62.5606 61.6035C62.5606 61.6534 62.5626 61.7053 62.5646 61.7551C61.488 61.7551 60.4134 61.7591 59.3367 61.7551C58.1664 61.7492 57.1735 62.0106 56.7967 63.3119C56.703 63.6332 56.3382 63.6592 56.0989 63.8228C55.8976 63.9605 55.5327 63.9645 55.5786 64.3278C55.6184 64.6431 55.8158 64.8806 56.1248 64.9804C57.4706 65.4135 58.3598 66.585 59.6318 67.1339C58.8483 67.1818 58.2023 66.8724 57.6321 66.3635C56.1388 65.5712 54.817 64.5114 53.3635 63.6572C52.9329 63.4037 52.5361 63.1063 52.2112 62.7171C51.312 61.6414 51.3 61.4618 52.1753 60.3401C52.5979 59.7972 52.8312 59.1825 52.911 58.5139C52.9867 57.8812 52.8531 57.3224 52.2271 56.9871C51.4535 56.574 51.1764 55.9313 51.3379 55.0711C51.4735 54.3446 51.1545 53.9575 50.4168 53.8277C49.5615 53.678 48.7042 53.6241 47.8409 53.6261C47.0195 53.6281 46.6187 53.211 46.6227 52.3927C46.6227 52.2929 46.6227 52.1931 46.6148 52.0933C46.5749 51.5565 46.7723 50.9218 45.9867 50.7082C45.1753 50.4887 44.1984 50.7082 43.8574 51.3549C43.4886 52.0574 42.9543 52.2829 42.2325 52.235C41.5666 52.1911 41.0822 52.4167 40.7971 53.0593C40.5738 53.5623 40.1152 53.7658 39.5889 53.8118C38.9868 53.8656 38.4046 54.0033 37.8523 54.2349C37.308 54.4624 37.0827 54.8516 37.6549 55.2607C38.3428 55.7517 38.2092 56.2307 37.7646 56.7616C37.3619 57.2406 37.1804 57.7914 37.1725 58.4141C37.1665 58.9909 37.3539 59.4061 37.8842 59.7254C39.1981 60.5197 39.238 60.883 38.2551 61.9807C37.9401 62.3319 37.7048 62.7291 37.5433 63.1702C37.5094 63.264 37.4655 63.3498 37.4137 63.4356C36.5464 64.198 35.5296 64.7469 34.5228 65.2758C34.0284 65.5352 33.5259 65.7488 33.1212 66.14C32.9318 66.2118 32.7444 66.2857 32.555 66.3575C32.4693 66.4314 32.3875 66.4234 32.3157 66.3376C32.4812 65.7408 32.862 65.3357 33.3585 64.9704C34.0742 64.4455 34.0383 64.1322 33.2329 63.8308C32.6846 63.6252 32.3217 63.3857 32.3078 62.7331C32.2878 61.829 31.3727 62.1064 30.9281 61.7531C30.9142 61.2981 31.291 61.358 31.5521 61.3001C32.1323 61.1744 32.7145 61.0626 33.2967 60.9468C33.6894 60.869 33.9705 60.7013 34.1001 60.3142C34.2198 60.0866 34.3872 59.909 34.6245 59.8052C35.2704 59.6974 35.5556 59.3641 35.3502 58.6896C35.2645 58.4041 35.2445 58.1028 35.1967 57.8074C35.1887 57.7076 35.1967 57.6118 35.2186 57.514C35.2884 57.3184 35.3841 57.1468 35.5875 57.059C36.1935 57.0151 36.2872 56.6618 36.1158 56.1628C35.729 55.0332 35.6792 54.0073 36.8993 53.3108C37.1346 53.1771 37.2084 52.8877 37.2921 52.6342C37.4237 52.245 37.637 51.764 37.9859 51.7121C39.0167 51.5605 39.4334 50.6843 40.1152 50.1235C41.3374 49.1196 42.7489 48.9639 44.2482 49.2014C45.4684 49.395 46.7025 49.405 47.9147 49.2493C49.4199 49.0557 50.367 49.862 51.1605 50.9078C51.5353 51.4028 51.8483 51.798 52.5062 51.6722C53.204 51.5385 53.4513 51.0415 53.535 50.3869C53.6407 49.5786 53.8101 48.7883 54.8847 48.7803C55.0861 49.1874 54.7711 49.4668 54.6315 49.7862C53.7423 51.8359 54.8947 53.7519 57.1217 53.8916C58.3 53.9654 59.4284 53.8137 60.4273 53.1012C60.7204 52.8917 61.0374 52.6701 61.4142 52.9615C60.9556 54.0433 61.0294 54.159 62.1698 54.169C63.0929 54.177 64.018 54.163 64.9411 54.2009C65.2422 54.2129 65.5372 54.3566 65.8662 54.4464C65.6808 54.5662 65.5492 54.652 65.4176 54.7378L65.4156 54.7438Z" fill="#FAE0AB"/>
<path d="M37.3064 63.3495C37.2905 62.6191 37.7331 62.0981 38.1936 61.6371C38.8575 60.9725 38.8336 60.4915 38.0082 60.0285C36.7502 59.322 36.5089 57.8291 37.4819 56.6954C37.8866 56.2244 38.4309 55.7873 37.3543 55.454C37.0811 55.3702 36.8519 55.0828 36.9575 54.7355C37.0532 54.4242 37.1689 54.0989 37.5497 53.9951C38.0282 53.8654 38.5047 53.6119 38.9792 53.6159C39.9162 53.6219 40.5482 53.3844 40.8453 52.3884C41.0008 51.8695 41.6109 51.9514 42.0734 51.9793C42.8051 52.0232 43.4092 52.0072 43.6724 51.0812C43.8558 50.4325 45.1637 50.211 46.1685 50.4266C47.0338 50.6122 46.8703 51.2389 46.8723 51.8136C46.8783 53.3704 46.8763 53.3824 48.4693 53.3644C49.1033 53.3584 49.7154 53.4582 50.3354 53.554C51.6094 53.7516 51.8746 54.019 51.5855 55.2305C51.4021 56.0009 51.6613 56.5158 52.3232 56.7294C53.2722 57.0387 53.2702 57.8071 53.1984 58.4897C53.1107 59.3359 52.8435 60.1861 52.1278 60.7749C51.6174 61.194 51.6234 61.5333 52.0421 62.0982C52.5804 62.8206 53.2383 63.3156 53.9999 63.7267C55.0984 64.3175 55.8919 65.3693 57.1261 65.7665C57.3354 65.8343 57.463 66.1557 57.6285 66.3592C56.8689 66.3812 56.3585 65.8303 55.7803 65.4891C54.5183 64.7466 53.1585 64.1479 52.048 63.1599C51.4419 62.6989 51.1688 61.9365 50.5069 61.5074C50.1999 61.3078 50.2298 60.8887 50.5208 60.6352C50.9136 60.2959 50.776 59.9906 50.6365 59.5814C50.2617 58.4857 49.9646 57.368 49.504 56.2983C49.2189 55.6337 48.868 55.2305 48.0965 55.3622C47.62 55.4441 47.1913 55.2684 46.7507 55.1068C44.5337 54.2905 41.5192 55.0948 40.4924 57.4678C40.1236 58.32 40.0677 59.1323 40.3489 59.9726C40.6021 60.729 40.4465 61.3437 39.8544 61.8507C39.0928 62.4993 38.4648 63.3775 37.3044 63.3475L37.3064 63.3495Z" fill="#F9E1AB"/>
<path d="M37.3065 63.3491C38.5186 63.0717 39.2204 62.1097 40.0399 61.3054C40.3868 60.9661 40.2671 60.6069 40.1435 60.2057C39.4497 57.9644 40.4207 56.0943 42.5998 55.0784C44.1808 54.342 45.6881 54.338 47.2372 55.0465C47.5562 55.1922 47.8692 55.1842 48.2022 55.0964C48.9977 54.8828 49.3446 55.29 49.6895 55.9805C50.3375 57.2798 50.3714 58.8026 51.2167 60.0121C51.4719 60.3773 51.2227 60.4711 50.9794 60.5909C50.3016 60.9222 50.2796 61.3154 50.9715 61.5888C51.7231 61.8862 51.7012 62.6346 52.0501 63.1635C51.755 63.1496 51.4579 63.1775 51.1968 62.9779C49.7374 61.8523 47.9689 61.7565 46.2523 61.5629C43.2298 61.2236 40.4207 61.8882 37.8607 63.5607C37.7012 63.6645 37.4919 63.6904 37.3065 63.7543C37.1888 63.6206 37.1928 63.4868 37.3065 63.3531V63.3491Z" fill="#FAEBBD"/>
<path d="M45.9316 95.1763C45.9515 95.7711 45.9894 96.1263 45.5309 96.1982C45.0843 96.266 44.9547 95.9487 44.9028 95.6094C44.8291 95.1244 44.538 94.7811 44.2369 94.4319C44.0156 94.1744 43.9857 93.891 44.2668 93.6515C44.5021 93.4499 44.7513 93.4918 44.9806 93.6814C45.5368 94.1385 45.8997 94.6993 45.9336 95.1763H45.9316Z" fill="#131313"/>
<path d="M37.3069 63.3516C37.3069 63.4853 37.3069 63.619 37.3069 63.7527C36.031 64.7586 34.6174 65.523 33.1201 66.1417C33.2916 65.6368 33.6524 65.3933 34.1549 65.2117C35.3132 64.7905 36.2523 63.9703 37.305 63.3516H37.3069Z" fill="#F9E1AB"/>
<path d="M32.3142 66.3389C32.3939 66.3449 32.4737 66.3528 32.5534 66.3588C31.5167 67.2729 30.2646 67.4485 28.9547 67.3727C28.4822 67.3448 27.9878 67.6282 27.5332 67.2909C27.92 66.9915 28.3706 67.1252 28.7813 67.1492C30.0433 67.221 31.1797 66.7999 32.3122 66.3409L32.3142 66.3389Z" fill="#F9E1AB"/>
<path d="M59.2462 119.001C59.0668 118.66 58.8834 118.32 58.7059 117.979C58.5703 117.718 58.4527 117.35 58.1437 117.354C57.7489 117.36 57.9383 117.843 57.713 118.115C57.2545 117.638 56.5806 117.378 56.459 116.618C56.5806 116.668 56.7002 116.762 56.8238 116.764C57.2645 116.772 57.7689 116.235 58.0899 116.584C58.6999 117.247 59.316 117.981 59.2482 119.003L59.2462 119.001Z" fill="#F5E9CB"/>
<path d="M54.8744 48.7999C54.1247 49.1632 53.734 49.6861 53.7938 50.5962C53.8376 51.2708 53.387 51.8256 52.7052 51.9453C51.9835 52.0731 51.2777 52.0831 50.9766 51.0931C50.7015 50.189 49.0148 49.4466 48.0897 49.5224C46.8077 49.6282 45.5118 49.698 44.2299 49.4625C42.6448 49.1731 41.2133 49.4546 39.9673 50.5403C39.4589 50.9814 39.5147 52.2547 38.3105 51.6959C37.511 52.584 36.9587 53.6518 36.1632 54.5559C35.8183 54.9471 36.253 55.6915 36.4364 56.2603C36.548 56.6076 36.6318 57.0167 36.3845 57.3121C36.0715 57.6873 35.8403 57.0527 35.5153 57.1585C35.1783 56.899 35.3757 56.2044 34.9849 56.1645C34.0459 56.0687 33.3082 55.1526 32.2735 55.5299C30.5469 55.2744 28.8662 54.7355 27.0858 54.8393C26.2265 54.8892 25.3752 54.9072 24.5438 55.1626C24.2348 55.2564 23.9138 55.3961 23.5928 55.1866C23.5609 54.3403 24.3105 54.518 24.7352 54.3942C26.1507 53.9851 27.6201 54.2226 29.2669 54.1448C28.4655 53.9212 28.595 53.1568 27.981 52.8095C27.333 52.4423 26.5435 52.109 26.1487 51.3626C26.4737 51.0991 26.7788 51.2608 27.0698 51.4204C27.7397 51.7857 28.4694 52.0731 29.0676 52.5401C30.1063 53.3504 31.2607 53.568 32.5307 53.5081C33.9661 53.4402 35.1803 52.6758 35.4036 51.636C35.7067 50.2309 34.9929 48.6083 33.6711 48.0655C32.0781 47.4128 30.4432 46.8121 28.6529 47.1673C28.3299 47.2312 27.987 47.2711 27.7298 46.9717C27.7896 46.8939 27.8494 46.7502 27.9112 46.7482C29.2191 46.7123 30.4532 46.0257 31.775 46.2592C32.2376 46.3411 32.6902 46.351 33.1487 46.395C34.2453 46.4987 35.0607 46.2772 35.1305 44.95C35.1524 44.5229 35.4953 44.481 35.8741 44.5548C36.6258 44.6985 37.1581 44.4011 37.4592 43.6886C37.7323 43.042 38.3005 42.6308 38.9226 42.6548C40.3401 42.7127 41.5902 41.8844 42.9997 41.9962C43.245 42.0161 43.4403 41.9063 43.6258 41.7467C44.7024 40.8206 45.7132 40.7428 46.8995 41.4154C47.5434 41.7806 48.321 41.5631 49.0108 41.7926C49.1922 41.8525 49.5332 41.7507 49.583 41.8425C50.3825 43.2934 52.0054 43.2435 53.2535 43.8363C54.3101 44.3373 54.7228 45.3751 55.5303 46.0776C56.4255 46.856 57.2648 47.349 58.4411 47.2013C58.4571 47.347 58.4053 47.4727 58.2717 47.5186C57.1891 47.8878 56.1105 48.2591 55.1375 48.8818C55.0618 48.9316 54.9501 48.8618 54.8684 48.8039L54.8744 48.7999Z" fill="#FAD9A0"/>
<path d="M23.595 55.1886C26.5956 54.029 29.5543 54.548 32.507 55.4082C33.9205 55.496 35.055 56.3821 35.2862 57.5756C35.3002 57.6395 35.3141 57.7034 35.3281 57.7672C35.5035 58.6095 35.5195 59.4058 34.6821 59.9467C34.4848 59.9686 34.3791 60.1043 34.2854 60.26C34.2415 60.5534 34.0421 60.769 33.7969 60.8428C32.0305 61.3837 30.2441 61.7968 28.374 61.5294C27.1458 61.3018 25.8938 61.1861 24.7175 60.725C22.8992 60.0125 22.1456 58.9727 22.2154 57.3601C22.2592 56.3522 22.9331 55.7834 23.595 55.1906V55.1886Z" fill="#010000"/>
<path d="M27.7332 46.9732C29.7788 46.598 31.7226 46.9313 33.6246 47.7316C35.104 48.3543 36.0291 50.0787 35.7001 51.7871C35.5107 52.7711 34.0234 53.6512 32.6816 53.8029C30.9251 54.0045 29.5674 53.2241 28.1798 52.3499C27.5498 51.9528 26.9397 51.4578 26.1502 51.362C25.1453 50.8391 24.1126 50.404 22.9562 50.3581C22.5774 50.1046 22.6711 49.8232 22.9104 49.5378C23.1217 49.2844 23.337 49.0369 23.5523 48.7854C24.7745 47.7875 26.2957 47.4741 27.7312 46.9712L27.7332 46.9732Z" fill="#FEFEFD"/>
<path d="M28.3722 61.5292C29.9792 61.4074 31.62 61.5092 33.1472 60.8486C33.538 60.6789 33.9048 60.4554 34.2836 60.2578C34.2996 60.8386 34.0484 61.0721 33.4423 61.1978C32.6029 61.3695 31.7237 61.3875 30.9262 61.7547H27.9336C28.0413 61.4972 28.2446 61.603 28.3722 61.5292Z" fill="#F9E1AB"/>
<path d="M54.8738 48.8008C55.9424 47.9924 57.2065 47.6212 58.4466 47.1981C61.4212 46.8868 64.1227 47.6512 66.6029 49.2837C66.7126 49.3556 66.8541 49.3935 66.9438 49.4833C67.207 49.7548 67.7353 49.9204 67.6456 50.3475C67.5679 50.7148 67.0734 50.5571 66.7644 50.6249C65.604 50.8864 64.4517 51.1598 63.4209 51.7925C62.7072 52.1039 62.0552 52.523 61.4172 52.9641H61.4132C61.1321 52.9341 60.9148 53.0459 60.6855 53.2095C58.9291 54.4629 57.0749 54.5268 55.1848 53.5568C54.0464 52.972 53.6656 50.6629 54.481 49.4714C54.6286 49.2538 54.8499 49.0862 54.8738 48.7968V48.8008Z" fill="#FEFEFD"/>
<path d="M61.417 52.9655C61.9334 52.3149 62.6112 51.9417 63.4207 51.792C62.8305 52.3169 62.1926 52.756 61.417 52.9655Z" fill="#FAE0AB"/>
<path d="M61.0058 56.0533C61.0158 56.5623 60.7625 56.8317 60.308 56.8616C59.8554 56.8896 59.5464 56.672 59.5364 56.1811C59.5264 55.714 59.7876 55.4366 60.2382 55.3987C60.7067 55.3588 60.9719 55.6082 61.0058 56.0553V56.0533Z" fill="#E3E3E5"/>
<path d="M46.8309 75.2469C49.5663 76.2069 52.2399 76.8316 54.9474 77.3166C55.1746 77.3565 55.4119 77.3705 55.6312 77.4383C56.1934 77.612 56.4347 78.0171 56.333 78.5859C56.2393 79.1168 55.8804 79.4182 55.3441 79.3483C54.3273 79.2166 53.3045 79.0869 52.3057 78.8534C50.0807 78.3345 47.8218 77.9173 45.7423 76.9174C45.3715 76.7398 45.1103 76.8795 44.8132 77.0052C42.0499 78.1788 39.1331 78.7815 36.2003 79.3124C35.5285 79.4342 34.7908 79.4761 34.6592 78.544C34.5356 77.6579 35.1636 77.4503 35.8873 77.3286C38.2439 76.9334 40.5487 76.3227 42.8375 75.6401C43.5472 75.4285 43.4695 75.1831 43.0787 74.708C42.341 73.8139 41.6412 72.8858 40.9414 71.9598C40.7241 71.6724 40.5128 71.365 40.3772 71.0337C39.4122 68.6587 40.4629 66.8824 43.0069 66.5092C44.4304 66.2996 45.854 66.2717 47.2675 66.5052C50.4535 67.0281 51.0556 69.4251 49.5304 71.7662C48.7568 72.9537 47.7959 74.0155 46.8309 75.2469Z" fill="black"/>
<path d="M45.853 85.2841C45.0156 85.362 44.3098 85.1883 43.6958 84.7712C43.0937 84.3621 43.1714 83.6376 43.8333 83.3661C44.8282 82.957 45.847 83.0787 46.816 83.426C47.1928 83.5617 47.5676 83.925 47.44 84.4379C47.3303 84.881 47.0113 85.1843 46.5568 85.2761C46.3036 85.326 46.0304 85.2861 45.853 85.2861V85.2841Z" fill="#E6E6E6"/>
<path d="M35.2851 57.5733C34.7867 56.302 33.5506 55.9766 32.5059 55.4058C32.7212 55.0845 33.0003 55.2023 33.3014 55.2522C33.9015 55.3519 34.2982 55.8729 35.0239 55.8469C35.656 55.825 35.4865 56.6512 35.5144 57.1582C35.5044 57.3338 35.4646 57.4915 35.2831 57.5733H35.2851Z" fill="#F9E1AB"/>
<path d="M34.6807 59.9441C35.0635 59.2675 35.3187 58.553 35.3266 57.7646C35.6337 58.1339 35.5878 58.6189 35.6636 59.038C35.7872 59.7226 35.3785 60.0419 34.6807 59.9441Z" fill="#F9E1AB"/>
<path d="M25.7951 55.4027C26.4251 55.3908 26.6863 55.6582 26.6843 56.1232C26.6803 56.5863 26.3972 56.8537 25.9307 56.8537C25.4701 56.8537 25.1611 56.6102 25.1631 56.1372C25.1631 55.6622 25.508 55.4666 25.7971 55.4027H25.7951Z" fill="#E0E0DF"/>
<path d="M43.0476 69.5526C42.4735 69.4927 42.0508 69.0975 42.0627 68.3531C42.0727 67.7044 42.298 67.1855 43.0875 67.1875C43.893 67.1915 44.4592 67.7084 44.4433 68.4329C44.4293 69.1055 43.9169 69.5705 43.0476 69.5526Z" fill="#F3F3F3"/>
</g>
<defs>
<clipPath id="clip0_1_3433">
<rect width="89" height="132" fill="white"/>
</clipPath>
</defs>
</svg>
