<svg width="213" height="57" viewBox="0 0 213 57" fill="none" xmlns="http://www.w3.org/2000/svg">
<g id="Group 1000004050">
<path id="Vector" d="M38.423 0.0038832C40.709 0.671524 43.1676 0.734369 45.4732 1.3863C56.1543 4.41818 65.7532 14.1186 61.8439 26.0105C57.5738 38.9981 36.6193 39.9995 25.4794 37.9023L15.6845 34.36C30.0279 47.269 50.2491 46.3146 65.0945 34.7605C65.4043 34.5209 65.8473 33.7041 66.263 34.36C62.9222 43.9583 55.6407 51.373 45.8614 54.3774L36.8585 56.1604H28.2321C17.4411 56.4078 4.58379 49.6803 2.9526 37.977C-0.0627369 16.3101 31.5807 13.3724 46.0575 18.9846C32.4394 10.1717 14.2101 11.8172 1.59197 21.7062L0 21.9929V21.2074C0.890094 15.2733 5.62288 9.6101 10.3321 6.0284C15.8923 1.80262 21.2799 0.475203 27.8399 0H38.427L38.423 0.0038832Z" fill="#C0F326"/>
<path id="Vector_2" d="M212.913 25.9227V29.85L194.876 30.2467C196.233 34.0679 199.476 35.0537 203.271 34.5274C204.577 34.3468 207.33 32.5991 207.561 32.6384C207.804 32.6816 210.823 35.6978 210.906 36.0159C211.251 37.3472 208.063 39.0439 207.024 39.468C198.966 42.7552 188.246 38.3448 187.799 28.8878C187.163 15.4015 204.204 10.8183 211.274 21.477L212.909 25.9266L212.913 25.9227ZM194.876 25.9227H206.247C205.099 19.5526 195.684 19.4152 194.876 25.9227Z" fill="white"/>
<path id="Vector_3" d="M154.87 22.7742C151.835 21.9377 149.772 20.838 146.451 21.2111C143.848 21.5056 141.954 23.5871 144.855 24.7732C148.674 26.3402 155.987 25.0952 157.524 30.5424C159.759 38.4755 150.572 40.9458 144.498 40.447C143.267 40.3449 137.17 38.8918 136.625 38.1142C135.739 36.8457 138.346 34.0652 138.421 32.5964C140.805 34.2262 148.275 36.2841 150.392 34.1869C153.674 30.939 143.432 30.4481 141.734 29.859C134.88 27.483 135.139 19.8248 141.354 16.8793C144.871 15.2141 149.925 15.3398 153.623 16.3805C159.065 17.9122 155.807 18.7055 154.874 22.7663L154.87 22.7742Z" fill="white"/>
<path id="Vector_4" d="M185.073 30.2443H167.428C167.82 34.1873 172.134 34.9846 175.431 34.529C176.733 34.3483 179.49 32.6007 179.721 32.64C180.325 32.746 182.709 35.7936 183.493 36.3316C177.302 43.6364 162.919 41.068 160.48 31.5011C155.492 11.9235 187.826 9.61026 185.065 30.2443H185.073ZM178.407 25.9243C177.682 19.4207 167.997 19.5738 167.036 25.9243H178.407Z" fill="white"/>
<path id="Vector_5" d="M116.453 30.2437C116.845 34.1867 121.158 34.984 124.456 34.5284C125.758 34.3478 128.514 32.6002 128.745 32.6394C129.349 32.7455 131.733 35.793 132.518 36.331C125.589 44.1385 110.269 40.6393 109.042 29.6114C107.399 14.8527 128.102 10.4737 133.11 22.7819C133.572 23.9247 135.019 30.2399 133.506 30.2399H116.449L116.453 30.2437ZM127.432 25.9237C126.495 19.5929 116.833 19.4005 116.061 25.9237H127.432Z" fill="white"/>
<path id="Vector_6" d="M106.258 30.2449H88.6129C89.307 34.3057 93.4987 35.1069 97.0198 34.5414C98.302 34.3332 100.588 32.4128 101.302 32.6249C101.666 32.7348 103.85 35.9356 104.682 36.3322C97.161 44.5442 81.3275 39.9061 81.202 28.0417C81.0217 10.6359 109.313 12.034 106.254 30.2449H106.258ZM99.5921 25.9249C98.7059 19.3506 89.5344 19.6373 88.2208 25.9249H99.5921Z" fill="white"/>
</g>
</svg>
