<svg width="191" height="59" viewBox="0 0 191 59" fill="none" xmlns="http://www.w3.org/2000/svg">
<path d="M10.2768 24.0892H10.5691L37.7508 24.3809C38.0373 24.6666 38.0139 24.6725 38.0577 25.0807C38.2916 27.1716 38.2185 31.4291 38.0607 33.5929C38.0256 34.0682 38.1367 34.2023 37.7508 34.5872L17.2301 34.806C14.0326 34.7593 11.481 34.7564 10.5661 34.8759H10.2768C10.2476 42.8457 10.3002 50.8242 10.2768 58.791H0.044171C0.161082 46.6483 -0.101968 34.4823 0.0470938 22.3396C0.102626 17.7525 -0.379631 15.0435 1.2162 10.6751C2.08134 8.30433 2.19825 7.94857 3.8467 6.00935C5.48637 4.07889 6.30767 3.37027 8.52313 2.21841C10.9461 0.958645 12.7611 0.357926 15.5378 0.177127H30.5988C34.3838 0.279191 38.163 0.35501 41.8427 0.177127C41.9333 0.203372 42.059 0.142134 42.135 0.177127C42.4068 0.30252 42.3834 0.279191 42.4331 0.599963C42.8657 3.48691 42.0999 7.37992 42.4273 10.3835C38.8381 10.3602 35.2606 10.3631 31.6919 10.3923C26.2819 10.4302 20.8981 10.5235 15.5378 10.6751C14.8714 10.7218 14.3745 10.8909 13.7841 10.9667C9.02585 13.2442 10.3265 19.6655 10.2768 24.0892Z" fill="url(#paint0_linear_1_3722)"/>
<path d="M30.6001 0.178299H15.5391C19.6222 -0.0899831 23.8397 -0.00541581 28.0719 0.108313C28.9137 0.131641 29.7583 0.15497 30.6001 0.178299Z" fill="url(#paint1_linear_1_3722)"/>
<path d="M41.8416 0.175781C38.1618 0.353664 34.3826 0.277845 30.5977 0.175781H41.8416Z" fill="url(#paint2_linear_1_3722)"/>
<path d="M176.582 31.6699C173.984 31.7866 171.38 31.8682 168.767 31.9149C166.312 31.9615 163.851 31.9761 161.384 31.9615C163.628 31.944 165.867 31.9178 168.1 31.874C170.938 31.8274 173.765 31.7574 176.582 31.6699Z" fill="url(#paint3_linear_1_3722)"/>
<path d="M158.88 48.7959L158.754 48.5859C158.959 48.6297 158.997 48.6997 158.88 48.7959Z" fill="url(#paint4_linear_1_3722)"/>
<path d="M85.0709 48.8484L84.5156 48.5859C84.7085 48.6384 84.9803 48.7172 85.0709 48.8484Z" fill="url(#paint5_linear_1_3722)"/>
<path d="M103.526 10.487C101.968 10.5016 100.372 10.4491 98.7705 10.3879C100.244 10.3791 102.082 10.42 103.526 10.487Z" fill="url(#paint6_linear_1_3722)"/>
<path d="M106.142 10.9672C105.698 10.8768 105.517 10.7748 105.59 10.6581C105.593 10.6523 105.596 10.6465 105.602 10.6406C105.607 10.6435 105.613 10.6435 105.619 10.6435C105.648 10.6494 105.675 10.6523 105.701 10.6581C105.862 10.6873 106.005 10.8127 106.142 10.9672Z" fill="url(#paint7_linear_1_3722)"/>
<path d="M106.143 10.3828V10.966C105.699 10.8756 105.518 10.7736 105.591 10.6569C105.594 10.6511 105.597 10.6453 105.603 10.6394C105.208 10.5811 104.451 10.5257 103.527 10.4849C104.413 10.4761 105.287 10.4441 106.143 10.3828Z" fill="url(#paint8_linear_1_3722)"/>
<path d="M106.142 10.3828V10.966C105.698 10.8756 105.517 10.7736 105.59 10.6569C105.593 10.6511 105.596 10.6453 105.602 10.6394C105.672 10.5607 105.853 10.4761 106.142 10.3828Z" fill="url(#paint9_linear_1_3722)"/>
<path d="M106.143 0.175995C101.768 0.158498 97.3634 0.106008 92.9909 0.175995C87.0343 0.272227 82.7203 -0.1127 78.2251 4.54433C73.0927 9.8604 74.3466 15.8647 74.2852 22.6301V43.1507C74.3056 48.2685 74.3203 53.3834 74.2852 58.4982C74.3758 58.5915 74.4635 58.7286 74.5775 58.7898C77.8393 58.9969 81.2911 58.9065 84.5149 58.7898H97.6674C99.3509 58.9969 101.105 58.9969 102.928 58.7898C110.606 57.8013 115.999 53.0218 116.373 45.0841V0.175995C112.968 0.164331 109.548 0.190576 106.143 0.175995ZM105.559 46.8338C104.98 47.697 103.25 48.4726 102.198 48.5834C96.6707 49.1754 90.15 48.1431 84.5149 48.5834C84.7078 48.6359 84.9796 48.7147 85.0702 48.8459L84.5149 48.5834C84.5149 42.1738 84.4827 35.7467 84.5149 29.3371C84.5383 24.6772 84.1174 19.1278 84.5032 14.5991C84.5704 13.8088 84.7195 13.1177 85.0994 12.4237C85.8623 11.0327 87.2448 10.5369 88.7558 10.3853C91.9183 10.0704 95.3584 10.2512 98.7722 10.3853C100.245 10.3766 102.084 10.4174 103.528 10.4844C104.413 10.4757 105.287 10.4436 106.143 10.3824V10.9656C106.143 22.1926 106.132 33.4284 106.158 44.6613C106.126 45.2037 105.828 46.4284 105.559 46.8338Z" fill="url(#paint10_linear_1_3722)"/>
<path d="M74.2852 58.4998V43.1523C74.306 48.2701 74.321 53.385 74.2852 58.4998Z" fill="url(#paint11_linear_1_3722)"/>
<path d="M85.0709 48.8484L84.5156 48.5859C84.7085 48.6384 84.9803 48.7172 85.0709 48.8484Z" fill="url(#paint12_linear_1_3722)"/>
<path d="M103.526 10.487C101.968 10.5016 100.372 10.4491 98.7705 10.3879C100.244 10.3791 102.082 10.42 103.526 10.487Z" fill="url(#paint13_linear_1_3722)"/>
<path d="M106.143 10.3828L105.62 10.6423L105.594 10.6569H105.591C105.591 10.6569 105.597 10.6453 105.603 10.6394C105.208 10.5811 104.451 10.5257 103.527 10.4849C104.413 10.4761 105.287 10.4441 106.143 10.3828Z" fill="url(#paint14_linear_1_3722)"/>
<path d="M74.2877 22.6328V43.1535C74.2609 36.3123 74.2251 29.4682 74.2877 22.6328Z" fill="url(#paint15_linear_1_3722)"/>
<path d="M74.2852 58.4998V43.1523C74.306 48.2701 74.321 53.385 74.2852 58.4998Z" fill="url(#paint16_linear_1_3722)"/>
<path d="M85.0709 48.8484L84.5156 48.5859C84.7085 48.6384 84.9803 48.7172 85.0709 48.8484Z" fill="url(#paint17_linear_1_3722)"/>
<path d="M10.3205 55.2479L10.2767 58.791C10.3001 50.8242 10.2475 42.8457 10.2767 34.8789C10.3761 41.6676 10.3907 48.4563 10.3205 55.2479Z" fill="url(#paint18_linear_1_3722)"/>
<path d="M63.2225 22.9411V23.0694L63.1786 32.8384C63.1728 33.1854 63.1757 33.5324 63.1786 33.8794V36.6293C63.1027 38.7202 62.8162 40.8519 62.1411 42.7415C58.8062 52.0672 51.0258 57.7012 41.2579 58.7918C35.9004 59.0688 30.5401 59.0688 25.1826 58.7918V48.5854C30.4173 48.3638 35.6783 48.2675 40.9656 48.2938C41.8687 48.2734 42.5906 48.0372 43.3038 48.0022C46.0834 47.1973 48.6992 45.3048 50.4383 43.0185C52.3732 40.4757 52.6157 38.2449 52.9489 35.1713C52.9636 35.0488 53.4283 34.556 53.2617 34.1856L53.2295 0.632852C53.2441 0.557033 54.5857 0.192519 54.7026 0.177939C56.4417 -0.0495179 59.2767 0.134197 61.1327 0.177939L63.1816 0.46955C63.1056 7.95229 63.202 15.4496 63.2225 22.9411Z" fill="url(#paint19_linear_1_3722)"/>
<path d="M54.7029 0.175781C54.586 0.190362 53.2444 0.554876 53.2298 0.630695L53.262 34.1835C53.4286 34.5538 52.9638 35.0466 52.9492 35.1691C53.1363 23.6738 53.183 12.1406 53.0895 0.572372C53.4929 0.312839 54.0306 0.181613 54.7029 0.175781Z" fill="url(#paint20_linear_1_3722)"/>
<path d="M63.3259 0.39449L63.2236 22.939C63.2031 15.4475 63.1067 7.95014 63.1827 0.467392L61.1338 0.175781L63.3259 0.39449Z" fill="url(#paint21_linear_1_3722)"/>
<path d="M37.7482 24.3818L10.5664 24.0902C12.627 24.0815 14.6846 24.0786 16.7451 24.0873H17.2742C24.1076 24.1077 30.9323 24.2069 37.7482 24.3818Z" fill="url(#paint22_linear_1_3722)"/>
<path d="M63.1936 34.9492C63.1996 35.512 63.1996 36.0719 63.1787 36.6289L63.1936 34.9492Z" fill="url(#paint23_linear_1_3722)"/>
<path d="M63.4749 0.174497L63.1943 34.9491C63.1885 34.5934 63.1827 34.2376 63.1797 33.8789V32.8379C63.2236 29.5835 63.2294 26.3262 63.2236 23.0689V22.9406C63.2031 15.4491 63.1067 7.95177 63.1827 0.469024L61.1338 0.177413C61.9112 0.19491 62.6975 0.162832 63.4749 0.174497Z" fill="url(#paint24_linear_1_3722)"/>
<path d="M53.262 34.1864C53.4286 34.5567 52.9638 35.0496 52.9492 35.172V0.175781L54.7029 0.178697C54.586 0.193278 53.2444 0.557792 53.2298 0.633611L53.262 34.1864Z" fill="url(#paint25_linear_1_3722)"/>
<path d="M37.7482 24.383L10.5664 24.0914H16.7451L17.2742 24.0885L37.0467 24.0768C37.4296 24.0273 37.5231 24.1585 37.7482 24.383Z" fill="url(#paint26_linear_1_3722)"/>
<path d="M10.566 34.877V35.1627L10.3205 55.2489L10.2767 58.792C10.3001 50.8252 10.2475 42.8467 10.2767 34.8799H10.566V34.877Z" fill="url(#paint27_linear_1_3722)"/>
<path d="M17.2293 34.8054L10.6327 34.8753H10.5654C11.4803 34.7558 14.0318 34.7587 17.2293 34.8054Z" fill="url(#paint28_linear_1_3722)"/>
<path d="M35.5747 10.4567L15.5391 10.6754C20.8994 10.5238 26.2832 10.4305 31.6932 10.3926C32.988 10.4188 34.2828 10.4451 35.5747 10.4567Z" fill="url(#paint29_linear_1_3722)"/>
<path d="M42.4262 10.3828C40.161 10.4703 37.8725 10.482 35.5723 10.4557L42.4262 10.3828Z" fill="url(#paint30_linear_1_3722)"/>
<path d="M180.383 21.4634C180.283 15.3833 180.269 9.29738 180.342 3.21145L180.383 0.175781C180.336 7.26485 180.447 14.3743 180.383 21.4634Z" fill="url(#paint31_linear_1_3722)"/>
<path d="M165.476 0.175781V10.3822C162.641 10.5017 159.797 10.5834 156.944 10.633C154.729 10.668 152.505 10.6825 150.277 10.6738C148.787 10.7496 148.205 10.7963 146.77 11.257C141.638 12.9046 138.075 17.585 137.71 22.9215C137.362 27.9955 137.441 33.2416 137.581 38.5139L137.417 58.498C137.131 58.7838 137.125 58.7605 136.716 58.8042C134.81 59.0171 129.649 59.0288 127.772 58.7896C127.442 58.3026 127.486 57.7544 127.468 57.2004C127.284 51.1465 127.477 45.0168 127.48 38.9601C127.483 34.7871 127.407 30.5908 127.48 26.4208C127.506 24.9715 127.401 23.4901 127.48 22.0466C128.044 11.7352 138.008 0.175781 148.67 0.175781H165.476Z" fill="url(#paint32_linear_1_3722)"/>
<path d="M127.48 38.9631C127.243 34.7989 127.173 30.5822 127.48 26.4238C127.407 30.5939 127.483 34.7902 127.48 38.9631Z" fill="url(#paint33_linear_1_3722)"/>
<path d="M127.773 58.7905L127.44 58.6593C127.148 52.2438 127.235 45.493 127.481 38.9609C127.478 45.0177 127.285 51.1474 127.469 57.2012C127.487 57.7553 127.443 58.3035 127.773 58.7905Z" fill="url(#paint34_linear_1_3722)"/>
<path d="M137.708 22.9258C137.723 28.9709 137.708 35.0101 137.653 41.0436C137.606 46.8671 137.527 52.6876 137.416 58.5023L137.58 38.5182C137.439 33.2459 137.36 27.9998 137.708 22.9258Z" fill="url(#paint35_linear_1_3722)"/>
<path d="M180.382 0.175781C180.335 7.26485 180.446 14.3743 180.382 21.4634H180.09C175.615 21.5246 171.12 21.3817 166.645 21.4634C164.897 21.4955 162.988 21.3293 161.273 21.4984C154.375 22.1866 148.661 28.1384 148.22 35.0117L148.231 58.7896H177.459C183.401 57.8856 190.612 52.6046 190.612 46.1045V0.175781H180.382ZM180.09 31.6698C180.008 36.5047 180.423 41.7916 180.09 46.542C178.979 47.4051 177.968 48.5133 176.436 48.5832H158.753C158.958 48.627 158.996 48.697 158.879 48.7932C158.847 48.8194 158.806 48.8457 158.753 48.8749V48.5832C158.753 44.4132 158.385 39.3362 158.742 35.2945C158.791 34.7171 158.856 34.5188 159.046 34.0027C159.391 33.0695 160.405 32.1335 161.384 31.9614L167.563 31.8418L176.582 31.6698" fill="url(#paint36_linear_1_3722)"/>
<path d="M158.88 48.7959C158.847 48.8221 158.807 48.8484 158.754 48.8775V48.5859C158.959 48.6297 158.997 48.6997 158.88 48.7959Z" fill="url(#paint37_linear_1_3722)"/>
<path d="M176.582 31.6699C173.984 31.7866 171.38 31.8682 168.767 31.9149C166.312 31.9615 163.851 31.9761 161.384 31.9615L167.563 31.842L176.582 31.6699Z" fill="url(#paint38_linear_1_3722)"/>
<path d="M180.383 21.4646H180.091C180.173 21.2109 180.272 21.2138 180.383 21.4646Z" fill="url(#paint39_linear_1_3722)"/>
<path d="M137.712 22.9258L137.583 38.5182C137.443 33.2459 137.364 27.9998 137.712 22.9258Z" fill="url(#paint40_linear_1_3722)"/>
<path d="M137.723 57.7999C137.773 58.1819 137.641 58.2752 137.416 58.4997L137.58 38.5156C137.603 39.3555 137.626 40.1982 137.653 41.041C137.816 46.6837 137.989 52.3292 137.723 57.7999Z" fill="url(#paint41_linear_1_3722)"/>
<path d="M180.383 21.4634H180.091L180.342 3.21145L180.383 0.175781C180.336 7.26485 180.447 14.3743 180.383 21.4634Z" fill="url(#paint42_linear_1_3722)"/>
<path d="M127.773 58.7905L127.44 58.6593C127.148 52.2438 127.235 45.493 127.481 38.9609C127.478 45.0177 127.285 51.1474 127.469 57.2012C127.487 57.7553 127.443 58.3035 127.773 58.7905Z" fill="url(#paint43_linear_1_3722)"/>
<path d="M127.48 38.9631C127.243 34.7989 127.173 30.5822 127.48 26.4238C127.407 30.5939 127.483 34.7902 127.48 38.9631Z" fill="url(#paint44_linear_1_3722)"/>
<path d="M158.88 48.7959C158.847 48.8221 158.807 48.8484 158.754 48.8775V48.5859C158.959 48.6297 158.997 48.6997 158.88 48.7959Z" fill="url(#paint45_linear_1_3722)"/>
<path d="M176.581 31.6699C173.983 31.7866 171.379 31.8682 168.766 31.9149C168.544 31.9003 168.321 31.8857 168.099 31.874C167.921 31.8624 167.74 31.8507 167.562 31.842L176.581 31.6699Z" fill="url(#paint46_linear_1_3722)"/>
<defs>
<linearGradient id="paint0_linear_1_3722" x1="20.0177" y1="-3.71378" x2="38.5874" y2="59.9347" gradientUnits="userSpaceOnUse">
<stop stop-color="#AAAAF4"/>
<stop offset="0.495" stop-color="#F2FAFD"/>
<stop offset="1" stop-color="#A4A6F1"/>
</linearGradient>
<linearGradient id="paint1_linear_1_3722" x1="22.6213" y1="-0.0117998" x2="22.6219" y2="0.198254" gradientUnits="userSpaceOnUse">
<stop stop-color="#AAAAF4"/>
<stop offset="0.495" stop-color="#F2FAFD"/>
<stop offset="1" stop-color="#A4A6F1"/>
</linearGradient>
<linearGradient id="paint2_linear_1_3722" x1="35.885" y1="0.168711" x2="35.8852" y2="0.294578" gradientUnits="userSpaceOnUse">
<stop stop-color="#AAAAF4"/>
<stop offset="0.495" stop-color="#F2FAFD"/>
<stop offset="1" stop-color="#A4A6F1"/>
</linearGradient>
<linearGradient id="paint3_linear_1_3722" x1="168.531" y1="31.6503" x2="168.532" y2="32.0002" gradientUnits="userSpaceOnUse">
<stop stop-color="#AAAAF4"/>
<stop offset="0.495" stop-color="#F2FAFD"/>
<stop offset="1" stop-color="#A4A6F1"/>
</linearGradient>
<linearGradient id="paint4_linear_1_3722" x1="158.844" y1="48.572" x2="158.898" y2="48.8067" gradientUnits="userSpaceOnUse">
<stop stop-color="#AAAAF4"/>
<stop offset="0.495" stop-color="#F2FAFD"/>
<stop offset="1" stop-color="#A4A6F1"/>
</linearGradient>
<linearGradient id="paint5_linear_1_3722" x1="84.7768" y1="48.5686" x2="84.8074" y2="48.8747" gradientUnits="userSpaceOnUse">
<stop stop-color="#AAAAF4"/>
<stop offset="0.495" stop-color="#F2FAFD"/>
<stop offset="1" stop-color="#A4A6F1"/>
</linearGradient>
<linearGradient id="paint6_linear_1_3722" x1="101.007" y1="10.3799" x2="101.007" y2="10.501" gradientUnits="userSpaceOnUse">
<stop stop-color="#AAAAF4"/>
<stop offset="0.495" stop-color="#F2FAFD"/>
<stop offset="1" stop-color="#A4A6F1"/>
</linearGradient>
<linearGradient id="paint7_linear_1_3722" x1="105.841" y1="10.619" x2="105.888" y2="10.9982" gradientUnits="userSpaceOnUse">
<stop stop-color="#AAAAF4"/>
<stop offset="0.495" stop-color="#F2FAFD"/>
<stop offset="1" stop-color="#A4A6F1"/>
</linearGradient>
<linearGradient id="paint8_linear_1_3722" x1="104.757" y1="10.3442" x2="104.79" y2="11.0298" gradientUnits="userSpaceOnUse">
<stop stop-color="#AAAAF4"/>
<stop offset="0.495" stop-color="#F2FAFD"/>
<stop offset="1" stop-color="#A4A6F1"/>
</linearGradient>
<linearGradient id="paint9_linear_1_3722" x1="105.841" y1="10.3442" x2="105.984" y2="11.0003" gradientUnits="userSpaceOnUse">
<stop stop-color="#AAAAF4"/>
<stop offset="0.495" stop-color="#F2FAFD"/>
<stop offset="1" stop-color="#A4A6F1"/>
</linearGradient>
<linearGradient id="paint10_linear_1_3722" x1="94.0273" y1="-3.75105" x2="112.846" y2="59.9687" gradientUnits="userSpaceOnUse">
<stop stop-color="#AAAAF4"/>
<stop offset="0.495" stop-color="#F2FAFD"/>
<stop offset="1" stop-color="#A4A6F1"/>
</linearGradient>
<linearGradient id="paint11_linear_1_3722" x1="74.2953" y1="42.1366" x2="74.4155" y2="42.1374" gradientUnits="userSpaceOnUse">
<stop stop-color="#AAAAF4"/>
<stop offset="0.495" stop-color="#F2FAFD"/>
<stop offset="1" stop-color="#A4A6F1"/>
</linearGradient>
<linearGradient id="paint12_linear_1_3722" x1="84.7768" y1="48.5686" x2="84.8074" y2="48.8747" gradientUnits="userSpaceOnUse">
<stop stop-color="#AAAAF4"/>
<stop offset="0.495" stop-color="#F2FAFD"/>
<stop offset="1" stop-color="#A4A6F1"/>
</linearGradient>
<linearGradient id="paint13_linear_1_3722" x1="101.007" y1="10.3799" x2="101.007" y2="10.501" gradientUnits="userSpaceOnUse">
<stop stop-color="#AAAAF4"/>
<stop offset="0.495" stop-color="#F2FAFD"/>
<stop offset="1" stop-color="#A4A6F1"/>
</linearGradient>
<linearGradient id="paint14_linear_1_3722" x1="104.757" y1="10.3647" x2="104.765" y2="10.6874" gradientUnits="userSpaceOnUse">
<stop stop-color="#AAAAF4"/>
<stop offset="0.495" stop-color="#F2FAFD"/>
<stop offset="1" stop-color="#A4A6F1"/>
</linearGradient>
<linearGradient id="paint15_linear_1_3722" x1="74.2693" y1="21.2748" x2="74.4629" y2="21.2763" gradientUnits="userSpaceOnUse">
<stop stop-color="#AAAAF4"/>
<stop offset="0.495" stop-color="#F2FAFD"/>
<stop offset="1" stop-color="#A4A6F1"/>
</linearGradient>
<linearGradient id="paint16_linear_1_3722" x1="74.2953" y1="42.1366" x2="74.4155" y2="42.1374" gradientUnits="userSpaceOnUse">
<stop stop-color="#AAAAF4"/>
<stop offset="0.495" stop-color="#F2FAFD"/>
<stop offset="1" stop-color="#A4A6F1"/>
</linearGradient>
<linearGradient id="paint17_linear_1_3722" x1="84.7768" y1="48.5686" x2="84.8074" y2="48.8747" gradientUnits="userSpaceOnUse">
<stop stop-color="#AAAAF4"/>
<stop offset="0.495" stop-color="#F2FAFD"/>
<stop offset="1" stop-color="#A4A6F1"/>
</linearGradient>
<linearGradient id="paint18_linear_1_3722" x1="10.3129" y1="33.2964" x2="10.8493" y2="33.3066" gradientUnits="userSpaceOnUse">
<stop stop-color="#AAAAF4"/>
<stop offset="0.495" stop-color="#F2FAFD"/>
<stop offset="1" stop-color="#A4A6F1"/>
</linearGradient>
<linearGradient id="paint19_linear_1_3722" x1="43.0704" y1="-3.83379" x2="63.6418" y2="58.8439" gradientUnits="userSpaceOnUse">
<stop stop-color="#AAAAF4"/>
<stop offset="0.495" stop-color="#F2FAFD"/>
<stop offset="1" stop-color="#A4A6F1"/>
</linearGradient>
<linearGradient id="paint20_linear_1_3722" x1="53.7739" y1="-2.14008" x2="63.0092" y2="0.0445818" gradientUnits="userSpaceOnUse">
<stop stop-color="#AAAAF4"/>
<stop offset="0.495" stop-color="#F2FAFD"/>
<stop offset="1" stop-color="#A4A6F1"/>
</linearGradient>
<linearGradient id="paint21_linear_1_3722" x1="62.1646" y1="-1.33068" x2="72.2673" y2="3.26161" gradientUnits="userSpaceOnUse">
<stop stop-color="#AAAAF4"/>
<stop offset="0.495" stop-color="#F2FAFD"/>
<stop offset="1" stop-color="#A4A6F1"/>
</linearGradient>
<linearGradient id="paint22_linear_1_3722" x1="23.3483" y1="24.0622" x2="23.3491" y2="24.4154" gradientUnits="userSpaceOnUse">
<stop stop-color="#AAAAF4"/>
<stop offset="0.495" stop-color="#F2FAFD"/>
<stop offset="1" stop-color="#A4A6F1"/>
</linearGradient>
<linearGradient id="paint23_linear_1_3722" x1="63.1873" y1="34.8381" x2="63.2891" y2="34.8433" gradientUnits="userSpaceOnUse">
<stop stop-color="#AAAAF4"/>
<stop offset="0.495" stop-color="#F2FAFD"/>
<stop offset="1" stop-color="#A4A6F1"/>
</linearGradient>
<linearGradient id="paint24_linear_1_3722" x1="62.2347" y1="-2.12968" x2="74.0598" y2="1.62788" gradientUnits="userSpaceOnUse">
<stop stop-color="#AAAAF4"/>
<stop offset="0.495" stop-color="#F2FAFD"/>
<stop offset="1" stop-color="#A4A6F1"/>
</linearGradient>
<linearGradient id="paint25_linear_1_3722" x1="53.7739" y1="-2.14027" x2="63.0093" y2="0.0442263" gradientUnits="userSpaceOnUse">
<stop stop-color="#AAAAF4"/>
<stop offset="0.495" stop-color="#F2FAFD"/>
<stop offset="1" stop-color="#A4A6F1"/>
</linearGradient>
<linearGradient id="paint26_linear_1_3722" x1="23.3483" y1="24.0455" x2="23.3492" y2="24.4185" gradientUnits="userSpaceOnUse">
<stop stop-color="#AAAAF4"/>
<stop offset="0.495" stop-color="#F2FAFD"/>
<stop offset="1" stop-color="#A4A6F1"/>
</linearGradient>
<linearGradient id="paint27_linear_1_3722" x1="10.4079" y1="33.2943" x2="12.0619" y2="33.3917" gradientUnits="userSpaceOnUse">
<stop stop-color="#AAAAF4"/>
<stop offset="0.495" stop-color="#F2FAFD"/>
<stop offset="1" stop-color="#A4A6F1"/>
</linearGradient>
<linearGradient id="paint28_linear_1_3722" x1="13.6991" y1="34.7688" x2="13.6994" y2="34.8865" gradientUnits="userSpaceOnUse">
<stop stop-color="#AAAAF4"/>
<stop offset="0.495" stop-color="#F2FAFD"/>
<stop offset="1" stop-color="#A4A6F1"/>
</linearGradient>
<linearGradient id="paint29_linear_1_3722" x1="24.9605" y1="10.3739" x2="24.9615" y2="10.7071" gradientUnits="userSpaceOnUse">
<stop stop-color="#AAAAF4"/>
<stop offset="0.495" stop-color="#F2FAFD"/>
<stop offset="1" stop-color="#A4A6F1"/>
</linearGradient>
<linearGradient id="paint30_linear_1_3722" x1="38.7952" y1="10.3772" x2="38.7955" y2="10.4776" gradientUnits="userSpaceOnUse">
<stop stop-color="#AAAAF4"/>
<stop offset="0.495" stop-color="#F2FAFD"/>
<stop offset="1" stop-color="#A4A6F1"/>
</linearGradient>
<linearGradient id="paint31_linear_1_3722" x1="180.346" y1="-1.23303" x2="180.943" y2="-1.21882" gradientUnits="userSpaceOnUse">
<stop stop-color="#AAAAF4"/>
<stop offset="0.495" stop-color="#F2FAFD"/>
<stop offset="1" stop-color="#A4A6F1"/>
</linearGradient>
<linearGradient id="paint32_linear_1_3722" x1="145.299" y1="-3.71498" x2="165.76" y2="58.8556" gradientUnits="userSpaceOnUse">
<stop stop-color="#AAAAF4"/>
<stop offset="0.495" stop-color="#F2FAFD"/>
<stop offset="1" stop-color="#A4A6F1"/>
</linearGradient>
<linearGradient id="paint33_linear_1_3722" x1="127.372" y1="25.594" x2="128.504" y2="25.6813" gradientUnits="userSpaceOnUse">
<stop stop-color="#AAAAF4"/>
<stop offset="0.495" stop-color="#F2FAFD"/>
<stop offset="1" stop-color="#A4A6F1"/>
</linearGradient>
<linearGradient id="paint34_linear_1_3722" x1="127.499" y1="37.6486" x2="130.333" y2="37.9975" gradientUnits="userSpaceOnUse">
<stop stop-color="#AAAAF4"/>
<stop offset="0.495" stop-color="#F2FAFD"/>
<stop offset="1" stop-color="#A4A6F1"/>
</linearGradient>
<linearGradient id="paint35_linear_1_3722" x1="137.556" y1="20.5713" x2="139.208" y2="20.6366" gradientUnits="userSpaceOnUse">
<stop stop-color="#AAAAF4"/>
<stop offset="0.495" stop-color="#F2FAFD"/>
<stop offset="1" stop-color="#A4A6F1"/>
</linearGradient>
<linearGradient id="paint36_linear_1_3722" x1="168.154" y1="-3.70328" x2="186.783" y2="59.8932" gradientUnits="userSpaceOnUse">
<stop stop-color="#AAAAF4"/>
<stop offset="0.495" stop-color="#F2FAFD"/>
<stop offset="1" stop-color="#A4A6F1"/>
</linearGradient>
<linearGradient id="paint37_linear_1_3722" x1="158.844" y1="48.5666" x2="158.944" y2="48.8777" gradientUnits="userSpaceOnUse">
<stop stop-color="#AAAAF4"/>
<stop offset="0.495" stop-color="#F2FAFD"/>
<stop offset="1" stop-color="#A4A6F1"/>
</linearGradient>
<linearGradient id="paint38_linear_1_3722" x1="168.531" y1="31.6503" x2="168.532" y2="32.0002" gradientUnits="userSpaceOnUse">
<stop stop-color="#AAAAF4"/>
<stop offset="0.495" stop-color="#F2FAFD"/>
<stop offset="1" stop-color="#A4A6F1"/>
</linearGradient>
<linearGradient id="paint39_linear_1_3722" x1="180.228" y1="21.2629" x2="180.258" y2="21.4816" gradientUnits="userSpaceOnUse">
<stop stop-color="#AAAAF4"/>
<stop offset="0.495" stop-color="#F2FAFD"/>
<stop offset="1" stop-color="#A4A6F1"/>
</linearGradient>
<linearGradient id="paint40_linear_1_3722" x1="137.58" y1="21.8939" x2="138.951" y2="21.9967" gradientUnits="userSpaceOnUse">
<stop stop-color="#AAAAF4"/>
<stop offset="0.495" stop-color="#F2FAFD"/>
<stop offset="1" stop-color="#A4A6F1"/>
</linearGradient>
<linearGradient id="paint41_linear_1_3722" x1="137.625" y1="37.1931" x2="140.071" y2="37.45" gradientUnits="userSpaceOnUse">
<stop stop-color="#AAAAF4"/>
<stop offset="0.495" stop-color="#F2FAFD"/>
<stop offset="1" stop-color="#A4A6F1"/>
</linearGradient>
<linearGradient id="paint42_linear_1_3722" x1="180.238" y1="-1.23303" x2="181.97" y2="-1.1129" gradientUnits="userSpaceOnUse">
<stop stop-color="#AAAAF4"/>
<stop offset="0.495" stop-color="#F2FAFD"/>
<stop offset="1" stop-color="#A4A6F1"/>
</linearGradient>
<linearGradient id="paint43_linear_1_3722" x1="127.499" y1="37.6486" x2="130.333" y2="37.9975" gradientUnits="userSpaceOnUse">
<stop stop-color="#AAAAF4"/>
<stop offset="0.495" stop-color="#F2FAFD"/>
<stop offset="1" stop-color="#A4A6F1"/>
</linearGradient>
<linearGradient id="paint44_linear_1_3722" x1="127.372" y1="25.594" x2="128.504" y2="25.6813" gradientUnits="userSpaceOnUse">
<stop stop-color="#AAAAF4"/>
<stop offset="0.495" stop-color="#F2FAFD"/>
<stop offset="1" stop-color="#A4A6F1"/>
</linearGradient>
<linearGradient id="paint45_linear_1_3722" x1="158.844" y1="48.5666" x2="158.944" y2="48.8777" gradientUnits="userSpaceOnUse">
<stop stop-color="#AAAAF4"/>
<stop offset="0.495" stop-color="#F2FAFD"/>
<stop offset="1" stop-color="#A4A6F1"/>
</linearGradient>
<linearGradient id="paint46_linear_1_3722" x1="171.803" y1="31.6537" x2="171.805" y2="31.9423" gradientUnits="userSpaceOnUse">
<stop stop-color="#AAAAF4"/>
<stop offset="0.495" stop-color="#F2FAFD"/>
<stop offset="1" stop-color="#A4A6F1"/>
</linearGradient>
</defs>
</svg>
