<svg width="22" height="22" viewBox="0 0 22 22" fill="none" xmlns="http://www.w3.org/2000/svg">
<path d="M21.923 21.3438C20.9311 19.9932 19.9392 18.6431 18.9474 17.2925C17.0273 14.6791 15.1087 12.0643 13.184 9.45412C13.0745 9.30566 13.0768 9.22303 13.2038 9.08998C13.597 8.67729 13.9747 8.24919 14.3588 7.82716C16.1537 5.8538 17.9486 3.88044 19.7431 1.90661C20.1547 1.45377 20.5644 0.999059 21.0118 0.504668C20.404 0.504668 19.8499 0.511204 19.2962 0.500467C19.1353 0.497666 19.0312 0.552754 18.9245 0.670399C16.7395 3.0812 14.5495 5.48686 12.3659 7.89906C12.2238 8.05592 12.1633 8.06665 12.0304 7.88412C10.2726 5.47612 8.5061 3.07513 6.74328 0.671333C6.66719 0.567693 6.59615 0.5 6.44948 0.5C4.37956 0.506536 2.30964 0.504202 0.239718 0.506069C0.192966 0.506069 0.132464 0.476191 0.0935039 0.550419C0.127422 0.597571 0.162257 0.647524 0.198008 0.696076C1.2953 2.18999 2.3926 3.68389 3.48944 5.1778C5.13905 7.42521 6.78866 9.67261 8.43964 11.9186C8.51206 12.0176 8.56477 12.0801 8.44927 12.2066C6.30785 14.553 4.1733 16.9055 2.03692 19.256C1.37414 19.9853 0.710905 20.7135 0 21.495C0.599067 21.495 1.13213 21.4862 1.66519 21.4997C1.85908 21.5048 1.98833 21.4437 2.11942 21.299C4.50469 18.6641 6.89591 16.0348 9.28393 13.4018C9.37881 13.2972 9.42968 13.2599 9.53327 13.4036C10.0343 14.0997 10.5476 14.786 11.055 15.4769C12.4947 17.4377 13.9344 19.3989 15.3713 21.362C15.4419 21.4582 15.5171 21.4992 15.6381 21.4992C17.7002 21.4946 19.7628 21.4955 21.8249 21.4927C21.8813 21.4927 21.9468 21.5202 22 21.4572C21.9743 21.4194 21.95 21.3807 21.923 21.3438ZM18.9776 20.0385C18.1297 20.0413 17.2822 20.0352 16.4347 20.0436C16.2587 20.0455 16.1464 19.9955 16.0378 19.8471C13.8349 16.8382 11.6261 13.8341 9.41868 10.8285C7.2846 7.92286 5.15051 5.01721 3.01642 2.11109C2.98983 2.07514 2.96692 2.03639 2.91375 1.95563C3.76857 1.95563 4.57665 1.97804 5.38289 1.94582C5.75782 1.93089 5.98333 2.0462 6.20884 2.35618C8.49923 5.50273 10.8066 8.63574 13.1098 11.7725C15.089 14.4667 17.069 17.1604 19.0487 19.855C19.084 19.9031 19.1179 19.9526 19.1513 19.9997C19.0995 20.0758 19.0326 20.0385 18.9776 20.0385Z" fill="#FFFFFF"/>
</svg>
