<svg width="307" height="189" viewBox="0 0 307 189" fill="none" xmlns="http://www.w3.org/2000/svg">
<path d="M122.564 153.112C122.601 160.398 120.688 167.604 116.956 174.237C113.224 180.871 107.761 186.774 100.942 191.542C86.3089 202.33 67.0781 208.126 47.275 207.718C22.1353 207.718 2.28582 200.649 -12.2733 186.511C-26.8173 172.453 -34.5878 154.625 -34.1552 136.307C-34.1552 92.4493 -19.2646 59.4456 10.5168 37.2956C40.2981 15.1455 73.2652 2.88268 109.418 0.506965V48.6152C91.1994 50.1827 73.9518 56.0381 59.816 65.4547C52.5411 69.8519 46.5482 75.4843 42.2595 81.9552C37.9707 88.4261 35.4904 95.578 34.9934 102.907C40.9976 100.544 47.6024 99.3479 54.2806 99.4134C75.8743 99.4134 92.6533 104.363 104.618 114.262C110.661 119.445 115.362 125.552 118.444 132.223C121.526 138.895 122.927 145.997 122.564 153.112ZM306.355 153.112C306.401 160.399 304.491 167.608 300.759 174.242C297.026 180.876 291.559 186.778 284.733 191.542C270.1 202.33 250.869 208.126 231.066 207.718C205.984 207.718 186.293 200.649 171.993 186.511C157.624 172.387 149.958 154.587 150.371 136.307C150.371 92.4493 165.103 59.4456 194.567 37.2956C224.031 15.1455 256.955 2.83606 293.339 0.367188V48.4754C275.16 50.1036 257.973 56.0075 243.91 65.4547C236.58 69.8258 230.533 75.4478 226.198 81.9209C221.863 88.394 219.347 95.5593 218.828 102.907C224.816 100.544 231.407 99.3469 238.072 99.4134C259.636 99.4134 276.415 104.363 288.409 114.262C294.453 119.443 299.151 125.551 302.226 132.223C305.301 138.896 306.69 145.998 306.312 153.112H306.355Z" fill="#F3F5F7" fill-opacity="0.1"/>
</svg>
