<svg width="42" height="17" viewBox="0 0 42 17" fill="none" xmlns="http://www.w3.org/2000/svg">
<g filter="url(#filter0_i_1_5511)">
<path d="M14.352 16.5L13.584 14.196H7.584L6.84 16.5H0.192L6.624 0.636H14.352L20.784 16.5H14.352ZM10.56 5.22L8.88 10.308H12.264L10.56 5.22ZM35.0166 11.34H28.2006V16.5H22.1286V0.636H35.0166C39.6246 0.636 41.1126 1.284 41.1126 4.428V7.548C41.1126 10.716 39.5286 11.34 35.0166 11.34ZM35.0886 6.324V5.724C35.0886 5.004 34.8006 4.668 33.8886 4.668H28.2006V7.428H33.8886C34.8486 7.428 35.0886 7.14 35.0886 6.324Z" fill="white"/>
</g>
<defs>
<filter id="filter0_i_1_5511" x="0.191895" y="0.635742" width="40.9209" height="16.8643" filterUnits="userSpaceOnUse" color-interpolation-filters="sRGB">
<feFlood flood-opacity="0" result="BackgroundImageFix"/>
<feBlend mode="normal" in="SourceGraphic" in2="BackgroundImageFix" result="shape"/>
<feColorMatrix in="SourceAlpha" type="matrix" values="0 0 0 0 0 0 0 0 0 0 0 0 0 0 0 0 0 0 127 0" result="hardAlpha"/>
<feOffset dy="1"/>
<feGaussianBlur stdDeviation="3"/>
<feComposite in2="hardAlpha" operator="arithmetic" k2="-1" k3="1"/>
<feColorMatrix type="matrix" values="0 0 0 0 0.978271 0 0 0 0 0.595272 0 0 0 0 0.434506 0 0 0 1 0"/>
<feBlend mode="normal" in2="shape" result="effect1_innerShadow_1_5511"/>
</filter>
</defs>
</svg>
