<svg width="308" height="119" viewBox="0 0 308 119" fill="none" xmlns="http://www.w3.org/2000/svg">
<g filter="url(#filter0_i_1_2751)">
<path d="M106.64 119L100.88 101.72H55.88L50.3 119H0.44L48.68 0.0199976H106.64L154.88 119H106.64ZM78.2 34.4L65.6 72.56H90.98L78.2 34.4ZM261.624 80.3H210.504V119H164.964V0.0199976H261.624C296.184 0.0199976 307.344 4.88 307.344 28.46V51.86C307.344 75.62 295.464 80.3 261.624 80.3ZM262.164 42.68V38.18C262.164 32.78 260.004 30.26 253.164 30.26H210.504V50.96H253.164C260.364 50.96 262.164 48.8 262.164 42.68Z" fill="white"/>
</g>
<defs>
<filter id="filter0_i_1_2751" x="0.439941" y="0.0195312" width="306.904" height="122.98" filterUnits="userSpaceOnUse" color-interpolation-filters="sRGB">
<feFlood flood-opacity="0" result="BackgroundImageFix"/>
<feBlend mode="normal" in="SourceGraphic" in2="BackgroundImageFix" result="shape"/>
<feColorMatrix in="SourceAlpha" type="matrix" values="0 0 0 0 0 0 0 0 0 0 0 0 0 0 0 0 0 0 127 0" result="hardAlpha"/>
<feOffset dy="4"/>
<feGaussianBlur stdDeviation="3"/>
<feComposite in2="hardAlpha" operator="arithmetic" k2="-1" k3="1"/>
<feColorMatrix type="matrix" values="0 0 0 0 0.978271 0 0 0 0 0.595272 0 0 0 0 0.434506 0 0 0 1 0"/>
<feBlend mode="normal" in2="shape" result="effect1_innerShadow_1_2751"/>
</filter>
</defs>
</svg>
