<svg width="48" height="42" viewBox="0 0 48 42" fill="none" xmlns="http://www.w3.org/2000/svg">
<g clip-path="url(#clip0_18_291)">
<path d="M1.07324 17.1685L6.47394 8.20507L16.8913 8.16797C17.3771 9.64213 18.35 10.7995 19.4147 11.8869H13.0382C12.3418 11.8869 12.2888 13.314 12.7516 13.314H34.2455C34.3057 13.314 34.4361 13.4167 34.588 13.4139C36.114 13.391 35.5538 11.8869 34.962 11.8869H28.5854C29.6573 10.7938 30.6374 9.65783 31.1088 8.16797L40.8069 8.17368L46.7822 17.1671H1.07324V17.1685Z" fill="white"/>
<path d="M24.0013 0C20.6927 0 18.0103 2.67004 18.0103 5.96514C18.0103 9.26023 20.6927 11.9317 24.0013 11.9317C27.3099 11.9317 29.991 9.26023 29.991 5.96514C29.991 2.67004 27.3085 0 24.0013 0ZM24.5731 9.32017C24.5974 9.79967 24.6547 10.3477 24.0715 10.4647C23.3923 10.4647 23.6316 9.39723 23.5643 9.32588C23.4239 9.17318 21.1211 9.10183 21.2716 7.96589C21.4077 6.94125 22.6042 7.92878 22.9997 8.10431C23.1659 8.17709 23.5256 8.39258 23.646 8.1828V6.46318C22.2847 6.00795 20.8976 5.02613 21.7258 3.4164C22.213 2.4674 23.239 2.58442 23.5399 2.29615C23.6889 2.15202 23.7133 1.32004 24.4398 1.82236C24.5702 1.9137 24.5286 2.1934 24.6089 2.28902C24.7765 2.4888 27.2182 2.8998 26.2567 3.86022C25.7767 4.33828 25.0932 3.54055 24.5745 3.4692C24.6476 3.91159 24.4054 5.14458 24.7135 5.39859C24.8654 5.52275 25.311 5.54986 25.5632 5.694C27.5994 6.86847 26.7253 9.27165 24.5731 9.32017Z" fill="white"/>
<path d="M23.7132 4.82781C23.6874 5.02046 23.792 5.07897 23.4997 5.04044C22.3534 4.88774 22.5783 3.31797 23.7132 3.46924C23.6731 3.90021 23.7734 4.41253 23.7132 4.82781Z" fill="white"/>
<path d="M24.5747 8.32043V6.60938C24.7495 6.73781 25.1364 6.80916 25.2539 6.92904C25.7497 7.4385 25.2912 8.3347 24.5747 8.32043Z" fill="white"/>
<path d="M47.5 18.5957H0.5V37.5757H47.5V18.5957Z" fill="white"/>
<path d="M47.5 39.0039H0.5V42.0007H47.5V39.0039Z" fill="white"/>
</g>
<defs>
<clipPath id="clip0_18_291">
<rect width="47" height="42" fill="white" transform="translate(0.5)"/>
</clipPath>
</defs>
</svg>
