<svg width="41" height="46" viewBox="0 0 41 46" fill="none" xmlns="http://www.w3.org/2000/svg">
<g clip-path="url(#clip0_18_900)">
<path d="M20.4893 34.2773C17.2431 34.2773 14.6118 36.9014 14.6118 40.1387C14.6118 43.376 17.2431 46.0009 20.4893 46.0009C23.7355 46.0009 26.3676 43.376 26.3676 40.1387C26.3676 36.9014 23.7355 34.2773 20.4893 34.2773ZM23.809 39.2127C23.5395 39.5629 22.3113 40.5068 22.2582 40.7479L22.6233 43.0389L20.5293 41.998L18.3783 43.0397L18.6845 40.7398C18.6265 40.4865 17.4538 39.5515 17.1925 39.2127C17.1296 39.1305 17.034 39.1093 17.0708 38.9684L19.3574 38.6825C19.7649 38.1686 19.9242 37.5179 20.2427 36.9592C20.2876 36.881 20.4558 36.4901 20.5808 36.6058L21.6433 38.6833L23.9307 38.9684C23.9675 39.1093 23.8719 39.1305 23.809 39.2127Z" fill="white"/>
<path d="M8.65904 40.1076C8.73091 37.8957 8.43855 35.6381 8.99143 33.4758C9.9069 29.8997 13.1066 26.9157 16.8248 26.506C16.8575 26.3578 16.7799 26.3464 16.6884 26.2764C15.1368 25.08 14.1715 24.3348 13.4978 22.3728C11.2201 15.7427 18.6125 9.95051 24.5267 13.7359C29.2013 16.7273 28.9653 23.7614 24.0939 26.3839C24.6746 26.5989 25.2977 26.6787 25.8865 26.8766C28.6901 27.8164 31.0445 30.2841 31.8922 33.1036C31.9747 33.3773 32.2597 34.401 32.2597 34.6103V40.1076H27.6047C27.5206 35.4573 23.1809 32.11 18.6207 33.3064C15.5917 34.1013 13.3802 36.9803 13.3949 40.1076H8.65823H8.65904Z" fill="white"/>
<path d="M33.4532 7.31786C27.3495 1.06313 17.3862 0.0947839 10.1858 5.10183C2.56632 10.4013 0.165343 20.4911 4.64391 28.6784C4.9526 29.2428 5.48915 29.8895 5.73333 30.4417C6.19964 31.4955 4.96649 32.3596 4.08776 31.3497C2.62921 29.6728 1.26702 25.92 0.85787 23.739C-1.89836 9.03547 11.6958 -3.33555 26.1359 0.811472C38.3009 4.30533 44.1555 18.3459 38.0739 29.4929C37.8517 29.9001 37.0972 31.2382 36.7958 31.476C36.1408 31.9939 35.1756 31.5077 35.2058 30.7072C35.2197 30.3342 36.1155 29.119 36.3581 28.6784C40.2135 21.6655 39.0237 13.0261 33.4524 7.31705L33.4532 7.31786Z" fill="white"/>
<path d="M20.1579 5.68113C30.055 5.47101 37.1599 15.0453 34.0811 24.4527C33.792 25.3355 33.0276 27.8211 31.7414 26.9839C30.843 26.3999 31.8067 25.1189 32.0786 24.4103C35.5846 15.2896 27.7079 5.99061 18.1162 7.79862C10.5376 9.22711 6.14888 17.2809 8.94675 24.469C9.14847 24.9877 9.78546 25.9699 9.71768 26.4586C9.62948 27.0971 9.00065 27.3854 8.41021 27.2021C7.89653 27.0433 7.21135 25.285 7.02515 24.7564C3.79771 15.5991 10.4216 5.88718 20.1579 5.68113Z" fill="white"/>
</g>
<defs>
<clipPath id="clip0_18_900">
<rect width="40" height="46" fill="white" transform="translate(0.5)"/>
</clipPath>
</defs>
</svg>
