<svg width="275" height="48" viewBox="0 0 275 48" fill="none" xmlns="http://www.w3.org/2000/svg">
<g clip-path="url(#clip0_18_194)">
<path d="M10.5108 11.6504L11.9838 22.778L2.354 17.0671C4.17986 14.2644 7.21339 12.2357 10.5108 11.6504Z" fill="white"/>
<path d="M26.4638 9.80469V11.4265H16.21C15.0383 12.3951 13.9137 13.5606 12.7192 14.4864C12.6457 14.5439 12.6251 14.6287 12.4987 14.5963L12.3135 12.6059L15.5484 9.80542H26.4638V9.80469Z" fill="white"/>
<path d="M26.464 3.24414H15.0708V4.93963H26.464V3.24414Z" fill="white"/>
<path d="M23.2298 6.48633H15.0708V8.18182H23.2298V6.48633Z" fill="white"/>
<path d="M21.6125 0V1.69549H20.0321L19.9219 1.58491V0.110575L20.0321 0H21.6125Z" fill="white"/>
<path d="M18.3786 0V1.58491L18.2683 1.69549H16.7982L16.688 1.58491V0.110575L16.7982 0H18.3786Z" fill="white"/>
<path d="M24.8471 0H23.23V1.69549H24.8471V0Z" fill="white"/>
<path d="M39.4462 2.45117C34.0605 2.45117 29.6943 6.82922 29.6943 12.2312C29.6943 17.6332 34.0605 22.0112 39.4462 22.0112C44.8319 22.0112 49.198 17.6324 49.198 12.2312C49.198 6.82995 44.8319 2.45117 39.4462 2.45117ZM32.0193 9.07242L33.4453 9.51177L33.005 11.0569L31.4643 10.5047L32.0193 9.07242ZM41.6947 20.029C36.5971 21.4945 31.6863 17.8108 31.3151 12.6049C31.5775 12.6057 32.7918 12.2902 32.8991 12.4538C32.9594 12.5467 33.0572 13.5338 33.116 13.7844C34.317 18.9033 41.003 20.4934 44.3967 16.4729C48.5144 11.5935 43.9182 4.32948 37.7673 5.91734C36.2781 6.30214 35.1498 7.21254 34.1347 8.32419L33.0109 7.32386C35.8849 3.48911 41.433 3.02911 44.9561 6.29624C49.5729 10.5777 47.6875 18.3069 41.6947 20.029ZM38.7949 13.0281C35.9929 12.672 35.9018 8.79082 38.6332 8.18634L38.6656 7.37104H40.2092C40.2665 7.4278 40.0996 8.07503 40.3194 8.18192H42.2673V9.80369H38.7758C38.4164 9.80369 38.1599 10.5062 38.24 10.8571C38.4237 11.6577 39.519 11.3672 40.0908 11.4336C42.8921 11.7579 42.9906 15.7084 40.243 16.2878L40.2092 17.1017H38.6656V16.2908H36.7177L36.6074 16.1802V14.7796L36.7177 14.669H40.0989C40.2378 14.669 40.5906 14.3336 40.6318 14.1714C40.9868 12.7796 39.5667 13.1261 38.7949 13.0281Z" fill="white"/>
<path d="M43.5085 31.4859L43.4857 43.8667C42.1736 44.1365 40.8395 44.32 39.5341 44.6215C35.742 45.4995 32.0212 47.2414 28.1681 47.8923C26.4863 48.1769 22.9242 47.9174 21.5372 46.8485C20.6559 46.1688 18.4787 43.6455 17.998 42.6577C17.3842 41.3964 17.3239 39.7415 16.8866 38.391C16.6587 37.6862 15.831 36.3792 16.1376 35.6804C16.3228 35.2587 17.0145 35.5027 17.3254 35.6657C18.4338 36.2466 19.091 37.7799 19.3335 38.9586L18.3831 40.0555L19.4534 41.1288L20.1399 40.5442L21.4431 42.3496L20.6618 44.0347L22.0084 44.7409L22.8654 43.0528C24.2664 43.2556 25.6189 43.675 26.9016 44.2699L27.8998 46.2234L29.3287 45.5216C28.8759 44.8994 28.5892 43.7391 28.1438 43.1715C27.9813 42.9651 27.6939 42.9319 27.4925 42.7933L29.2265 40.9983C31.5794 41.5726 33.7323 42.7558 36.133 43.1804C36.208 43.1664 36.5343 41.8969 36.5314 41.7547C36.5299 41.6905 36.5218 41.6456 36.4623 41.6117C34.3079 41.2637 32.3725 40.2125 30.2857 39.6596L30.8804 38.4124C31.5985 38.5944 32.274 38.8805 33.0047 39.0345C34.9444 39.4437 36.8115 39.336 38.7387 38.9232L38.3962 37.37C36.0948 37.9022 33.8323 37.8248 31.611 37.0036C31.8293 36.0446 32.1623 35.1224 32.3203 34.1449C32.6731 31.9673 32.5283 29.7757 31.9763 27.6445C33.7573 27.8686 35.6729 28.106 37.3804 28.6744C39.4701 29.3702 41.3709 30.8748 43.5077 31.4859H43.5085Z" fill="white"/>
<path d="M15.8053 40.7648C15.3745 40.4286 15.0335 39.9871 14.6306 39.6214C14.2653 39.2897 13.0591 38.442 12.8643 38.1493C12.6504 37.8272 12.5122 36.8585 12.3336 36.3963C11.9286 35.351 11.0164 33.9357 9.80875 33.7683C8.10344 33.5317 7.29857 34.5328 7.27505 36.1553C7.27064 36.47 7.3706 36.748 7.35517 37.0414C7.34929 37.1527 7.40736 37.2566 7.24344 37.2264C6.97 36.919 6.68187 36.5172 6.39887 36.2297C6.09677 35.9231 5.78585 35.6776 5.45949 35.4026C5.12136 34.1001 4.91114 32.7518 4.92658 31.4028L18.253 32.4938L27.6762 23.0742C32.6591 28.5846 31.7976 37.6783 25.8217 42.0806C25.2719 41.9819 24.7434 41.7976 24.1987 41.673C23.8099 41.5838 22.8764 41.5373 22.6397 41.3199C22.3508 41.053 21.2108 39.46 21.0373 39.0936C20.7021 38.3852 20.6139 37.4556 20.2288 36.661C19.3842 34.9205 16.6116 32.4945 14.9585 34.6448C13.7684 36.1929 15.0298 37.6539 15.4576 39.1607C15.6068 39.6878 15.6788 40.2333 15.8053 40.7648Z" fill="white"/>
<path d="M16.9819 18.7244C20.4734 18.4797 23.9325 19.5995 26.5346 21.9392L18.4888 30.0754L16.9819 18.7244Z" fill="white"/>
<path d="M15.2354 42.8849C15.3824 43.0228 16.3358 43.151 16.5754 43.3471C16.7232 43.468 17.5949 44.8826 17.8654 45.2232C18.5115 46.0363 19.301 46.7263 19.9221 47.546C18.8739 47.4753 17.9007 47.19 16.893 46.9357C16.2174 46.7654 15.5067 46.6084 14.8348 46.4196C13.5786 46.0673 13.4544 45.2092 12.7495 44.2354C10.781 41.5153 9.1566 40.4957 8.89786 36.7458C8.8714 36.3595 8.7435 35.3533 9.23451 35.3135C10.1555 35.2383 10.7686 36.6396 10.9927 37.3731C11.103 37.7328 11.2456 38.8371 11.3926 39.0362C11.5595 39.2625 12.3937 39.7851 12.6804 40.0299C13.4684 40.7022 14.3615 41.4688 14.9546 42.3195C15.0546 42.4625 15.1685 42.8215 15.2362 42.8842L15.2354 42.8849Z" fill="white"/>
<path d="M14.4095 30.5197L5.08398 29.7391C5.24128 28.8899 5.44269 28.051 5.73523 27.2371C5.84402 26.9349 6.091 26.2213 6.26006 25.995C6.30784 25.9301 6.33356 25.863 6.43279 25.8719L14.4095 30.5197Z" fill="white"/>
<path d="M12.2775 46.5888C11.4241 46.5703 10.6134 45.9224 9.96434 45.4078C8.10027 43.9291 6.74411 42.2579 5.45557 40.2727C5.06012 39.6638 4.22364 38.46 3.9796 37.8467C3.67235 37.0756 4.43386 36.6281 5.04027 37.0778C5.59597 37.7214 6.15387 38.3701 6.72794 38.9974C7.10575 39.4102 7.7989 39.9439 8.08924 40.3597C8.36121 40.7489 8.56996 41.3998 8.86692 41.865C9.66591 43.1167 10.8317 44.2247 11.677 45.4602C11.7821 45.6142 12.3834 46.487 12.2783 46.5888H12.2775Z" fill="white"/>
<path d="M3.44233 39.9705L5.1469 42.7562L1.04534 41.747C0.369838 41.534 0.306624 40.4968 0.938028 40.1931C1.16442 40.0847 3.29238 39.8835 3.44233 39.9705Z" fill="white"/>
<path d="M45.1343 30.9609V46.6995C45.1343 46.8366 45.6422 47.2524 45.7591 47.2524H50.5001V30.9609H45.1343ZM49.177 45.5569H47.5599V43.1979H49.177V45.5569Z" fill="white"/>
</g>
<path d="M68.096 32V17.3H70.511V32H68.096ZM80.2886 32V26.183C80.2886 25.511 80.0716 24.958 79.6376 24.524C79.2176 24.09 78.6716 23.873 77.9996 23.873C77.5516 23.873 77.1526 23.971 76.8026 24.167C76.4526 24.363 76.1796 24.636 75.9836 24.986C75.7876 25.336 75.6896 25.735 75.6896 26.183L74.7866 25.679C74.7866 24.909 74.9546 24.23 75.2906 23.642C75.6266 23.04 76.0886 22.571 76.6766 22.235C77.2786 21.885 77.9506 21.71 78.6926 21.71C79.4486 21.71 80.1206 21.906 80.7086 22.298C81.2966 22.676 81.7586 23.173 82.0946 23.789C82.4306 24.391 82.5986 25.021 82.5986 25.679V32H80.2886ZM73.3796 32V21.92H75.6896V32H73.3796ZM88.348 32L83.749 21.92H86.311L89.818 30.131H88.306L91.834 21.92H94.291L89.692 32H88.348ZM99.9855 32.21C98.9775 32.21 98.0675 31.986 97.2555 31.538C96.4575 31.076 95.8205 30.446 95.3445 29.648C94.8825 28.85 94.6515 27.954 94.6515 26.96C94.6515 25.966 94.8825 25.077 95.3445 24.293C95.8065 23.495 96.4295 22.865 97.2135 22.403C98.0115 21.941 98.8935 21.71 99.8595 21.71C100.797 21.71 101.623 21.927 102.337 22.361C103.065 22.795 103.632 23.39 104.038 24.146C104.458 24.902 104.668 25.763 104.668 26.729C104.668 26.897 104.654 27.072 104.626 27.254C104.612 27.422 104.584 27.611 104.542 27.821H96.2685V25.931H103.345L102.484 26.687C102.456 26.071 102.337 25.553 102.127 25.133C101.917 24.713 101.616 24.391 101.224 24.167C100.846 23.943 100.377 23.831 99.8175 23.831C99.2295 23.831 98.7185 23.957 98.2845 24.209C97.8505 24.461 97.5145 24.818 97.2765 25.28C97.0385 25.728 96.9195 26.267 96.9195 26.897C96.9195 27.527 97.0455 28.08 97.2975 28.556C97.5495 29.032 97.9065 29.403 98.3685 29.669C98.8305 29.921 99.3625 30.047 99.9645 30.047C100.482 30.047 100.958 29.956 101.392 29.774C101.84 29.592 102.218 29.326 102.526 28.976L103.996 30.467C103.506 31.041 102.911 31.475 102.211 31.769C101.511 32.063 100.769 32.21 99.9855 32.21ZM109.817 32.21C109.257 32.21 108.718 32.14 108.2 32C107.682 31.846 107.206 31.636 106.772 31.37C106.338 31.09 105.96 30.754 105.638 30.362L107.108 28.892C107.458 29.298 107.857 29.606 108.305 29.816C108.767 30.012 109.285 30.11 109.859 30.11C110.377 30.11 110.769 30.033 111.035 29.879C111.301 29.725 111.434 29.501 111.434 29.207C111.434 28.899 111.308 28.661 111.056 28.493C110.804 28.325 110.475 28.185 110.069 28.073C109.677 27.947 109.257 27.821 108.809 27.695C108.375 27.569 107.955 27.401 107.549 27.191C107.157 26.967 106.835 26.666 106.583 26.288C106.331 25.91 106.205 25.42 106.205 24.818C106.205 24.174 106.352 23.621 106.646 23.159C106.954 22.697 107.381 22.34 107.927 22.088C108.487 21.836 109.152 21.71 109.922 21.71C110.734 21.71 111.448 21.857 112.064 22.151C112.694 22.431 113.219 22.858 113.639 23.432L112.169 24.902C111.875 24.538 111.539 24.265 111.161 24.083C110.783 23.901 110.349 23.81 109.859 23.81C109.397 23.81 109.04 23.88 108.788 24.02C108.536 24.16 108.41 24.363 108.41 24.629C108.41 24.909 108.536 25.126 108.788 25.28C109.04 25.434 109.362 25.567 109.754 25.679C110.16 25.791 110.58 25.917 111.014 26.057C111.462 26.183 111.882 26.365 112.274 26.603C112.68 26.827 113.009 27.135 113.261 27.527C113.513 27.905 113.639 28.402 113.639 29.018C113.639 29.998 113.296 30.775 112.61 31.349C111.924 31.923 110.993 32.21 109.817 32.21ZM117.077 32V17.72H119.387V32H117.077ZM114.662 24.02V21.92H121.802V24.02H114.662ZM123.48 32V21.92H125.79V32H123.48ZM130.179 32V25.994C130.179 25.322 129.969 24.804 129.549 24.44C129.129 24.062 128.611 23.873 127.995 23.873C127.575 23.873 127.197 23.957 126.861 24.125C126.539 24.293 126.28 24.538 126.084 24.86C125.888 25.168 125.79 25.546 125.79 25.994L124.887 25.49C124.887 24.72 125.055 24.055 125.391 23.495C125.727 22.935 126.182 22.501 126.756 22.193C127.33 21.871 127.974 21.71 128.688 21.71C129.402 21.71 130.046 21.864 130.62 22.172C131.194 22.48 131.649 22.914 131.985 23.474C132.321 24.034 132.489 24.706 132.489 25.49V32H130.179ZM136.878 32V25.994C136.878 25.322 136.668 24.804 136.248 24.44C135.828 24.062 135.31 23.873 134.694 23.873C134.288 23.873 133.917 23.957 133.581 24.125C133.245 24.293 132.979 24.538 132.783 24.86C132.587 25.168 132.489 25.546 132.489 25.994L131.187 25.49C131.257 24.72 131.481 24.055 131.859 23.495C132.237 22.935 132.72 22.501 133.308 22.193C133.91 21.871 134.568 21.71 135.282 21.71C136.01 21.71 136.668 21.864 137.256 22.172C137.844 22.48 138.313 22.914 138.663 23.474C139.013 24.034 139.188 24.706 139.188 25.49V32H136.878ZM146.251 32.21C145.243 32.21 144.333 31.986 143.521 31.538C142.723 31.076 142.086 30.446 141.61 29.648C141.148 28.85 140.917 27.954 140.917 26.96C140.917 25.966 141.148 25.077 141.61 24.293C142.072 23.495 142.695 22.865 143.479 22.403C144.277 21.941 145.159 21.71 146.125 21.71C147.063 21.71 147.889 21.927 148.603 22.361C149.331 22.795 149.898 23.39 150.304 24.146C150.724 24.902 150.934 25.763 150.934 26.729C150.934 26.897 150.92 27.072 150.892 27.254C150.878 27.422 150.85 27.611 150.808 27.821H142.534V25.931H149.611L148.75 26.687C148.722 26.071 148.603 25.553 148.393 25.133C148.183 24.713 147.882 24.391 147.49 24.167C147.112 23.943 146.643 23.831 146.083 23.831C145.495 23.831 144.984 23.957 144.55 24.209C144.116 24.461 143.78 24.818 143.542 25.28C143.304 25.728 143.185 26.267 143.185 26.897C143.185 27.527 143.311 28.08 143.563 28.556C143.815 29.032 144.172 29.403 144.634 29.669C145.096 29.921 145.628 30.047 146.23 30.047C146.748 30.047 147.224 29.956 147.658 29.774C148.106 29.592 148.484 29.326 148.792 28.976L150.262 30.467C149.772 31.041 149.177 31.475 148.477 31.769C147.777 32.063 147.035 32.21 146.251 32.21ZM159.695 32V26.183C159.695 25.511 159.478 24.958 159.044 24.524C158.624 24.09 158.078 23.873 157.406 23.873C156.958 23.873 156.559 23.971 156.209 24.167C155.859 24.363 155.586 24.636 155.39 24.986C155.194 25.336 155.096 25.735 155.096 26.183L154.193 25.679C154.193 24.909 154.361 24.23 154.697 23.642C155.033 23.04 155.495 22.571 156.083 22.235C156.685 21.885 157.357 21.71 158.099 21.71C158.855 21.71 159.527 21.906 160.115 22.298C160.703 22.676 161.165 23.173 161.501 23.789C161.837 24.391 162.005 25.021 162.005 25.679V32H159.695ZM152.786 32V21.92H155.096V32H152.786ZM165.762 32V17.72H168.072V32H165.762ZM163.347 24.02V21.92H170.487V24.02H163.347ZM186.156 32L179.184 24.377C178.666 23.803 178.274 23.257 178.008 22.739C177.756 22.221 177.63 21.647 177.63 21.017C177.63 20.275 177.812 19.61 178.176 19.022C178.54 18.42 179.037 17.944 179.667 17.594C180.297 17.244 181.018 17.069 181.83 17.069C182.446 17.069 183.006 17.174 183.51 17.384C184.014 17.58 184.455 17.846 184.833 18.182C185.225 18.504 185.547 18.861 185.799 19.253L184.14 20.723C183.832 20.303 183.496 19.96 183.132 19.694C182.782 19.428 182.348 19.295 181.83 19.295C181.298 19.295 180.85 19.456 180.486 19.778C180.122 20.086 179.94 20.478 179.94 20.954C179.94 21.43 180.038 21.822 180.234 22.13C180.43 22.438 180.703 22.795 181.053 23.201L188.928 32H186.156ZM181.137 32.21C180.129 32.21 179.247 32.021 178.491 31.643C177.749 31.251 177.168 30.719 176.748 30.047C176.342 29.361 176.139 28.584 176.139 27.716C176.139 26.834 176.377 26.043 176.853 25.343C177.343 24.643 178.057 24.076 178.995 23.642L180.066 25.049C179.548 25.329 179.149 25.679 178.869 26.099C178.589 26.505 178.449 27.023 178.449 27.653C178.449 28.157 178.561 28.584 178.785 28.934C179.023 29.284 179.352 29.557 179.772 29.753C180.192 29.935 180.675 30.026 181.221 30.026C181.935 30.026 182.523 29.879 182.985 29.585C183.461 29.291 183.818 28.941 184.056 28.535L185.568 30.299C185.274 30.663 184.896 30.992 184.434 31.286C183.972 31.566 183.461 31.79 182.901 31.958C182.341 32.126 181.753 32.21 181.137 32.21ZM192.45 32L198.498 17.3H200.178L206.184 32H203.58L198.876 20.093H199.758L195.012 32H192.45ZM195.432 29.165V27.065H203.223V29.165H195.432ZM211.599 32.21C210.689 32.21 209.863 31.979 209.121 31.517C208.393 31.055 207.812 30.432 207.378 29.648C206.958 28.85 206.748 27.961 206.748 26.981C206.748 25.987 206.958 25.098 207.378 24.314C207.812 23.516 208.393 22.886 209.121 22.424C209.863 21.948 210.689 21.71 211.599 21.71C212.369 21.71 213.048 21.878 213.636 22.214C214.238 22.536 214.714 22.984 215.064 23.558C215.414 24.132 215.589 24.783 215.589 25.511V28.409C215.589 29.137 215.414 29.788 215.064 30.362C214.728 30.936 214.259 31.391 213.657 31.727C213.055 32.049 212.369 32.21 211.599 32.21ZM211.977 30.026C212.551 30.026 213.048 29.9 213.468 29.648C213.902 29.382 214.238 29.018 214.476 28.556C214.714 28.094 214.833 27.562 214.833 26.96C214.833 26.358 214.714 25.826 214.476 25.364C214.238 24.902 213.902 24.545 213.468 24.293C213.048 24.027 212.551 23.894 211.977 23.894C211.417 23.894 210.92 24.027 210.486 24.293C210.066 24.545 209.73 24.902 209.478 25.364C209.24 25.826 209.121 26.358 209.121 26.96C209.121 27.562 209.24 28.094 209.478 28.556C209.73 29.018 210.066 29.382 210.486 29.648C210.92 29.9 211.417 30.026 211.977 30.026ZM216.996 32H214.686V29.291L215.085 26.834L214.686 24.398V16.88H216.996V32ZM222.961 32L218.362 21.92H220.924L224.431 30.131H222.919L226.447 21.92H228.904L224.305 32H222.961ZM230.285 32V21.92H232.595V32H230.285ZM231.44 20.072C231.048 20.072 230.719 19.939 230.453 19.673C230.201 19.407 230.075 19.078 230.075 18.686C230.075 18.294 230.201 17.965 230.453 17.699C230.719 17.433 231.048 17.3 231.44 17.3C231.846 17.3 232.175 17.433 232.427 17.699C232.679 17.965 232.805 18.294 232.805 18.686C232.805 19.078 232.679 19.407 232.427 19.673C232.175 19.939 231.846 20.072 231.44 20.072ZM238.483 32.21C237.923 32.21 237.384 32.14 236.866 32C236.348 31.846 235.872 31.636 235.438 31.37C235.004 31.09 234.626 30.754 234.304 30.362L235.774 28.892C236.124 29.298 236.523 29.606 236.971 29.816C237.433 30.012 237.951 30.11 238.525 30.11C239.043 30.11 239.435 30.033 239.701 29.879C239.967 29.725 240.1 29.501 240.1 29.207C240.1 28.899 239.974 28.661 239.722 28.493C239.47 28.325 239.141 28.185 238.735 28.073C238.343 27.947 237.923 27.821 237.475 27.695C237.041 27.569 236.621 27.401 236.215 27.191C235.823 26.967 235.501 26.666 235.249 26.288C234.997 25.91 234.871 25.42 234.871 24.818C234.871 24.174 235.018 23.621 235.312 23.159C235.62 22.697 236.047 22.34 236.593 22.088C237.153 21.836 237.818 21.71 238.588 21.71C239.4 21.71 240.114 21.857 240.73 22.151C241.36 22.431 241.885 22.858 242.305 23.432L240.835 24.902C240.541 24.538 240.205 24.265 239.827 24.083C239.449 23.901 239.015 23.81 238.525 23.81C238.063 23.81 237.706 23.88 237.454 24.02C237.202 24.16 237.076 24.363 237.076 24.629C237.076 24.909 237.202 25.126 237.454 25.28C237.706 25.434 238.028 25.567 238.42 25.679C238.826 25.791 239.246 25.917 239.68 26.057C240.128 26.183 240.548 26.365 240.94 26.603C241.346 26.827 241.675 27.135 241.927 27.527C242.179 27.905 242.305 28.402 242.305 29.018C242.305 29.998 241.962 30.775 241.276 31.349C240.59 31.923 239.659 32.21 238.483 32.21ZM248.83 32.21C247.85 32.21 246.961 31.979 246.163 31.517C245.365 31.041 244.728 30.404 244.252 29.606C243.79 28.808 243.559 27.919 243.559 26.939C243.559 25.959 243.79 25.077 244.252 24.293C244.728 23.509 245.365 22.886 246.163 22.424C246.961 21.948 247.85 21.71 248.83 21.71C249.824 21.71 250.72 21.941 251.518 22.403C252.316 22.865 252.946 23.495 253.408 24.293C253.884 25.077 254.122 25.959 254.122 26.939C254.122 27.919 253.884 28.808 253.408 29.606C252.946 30.404 252.316 31.041 251.518 31.517C250.72 31.979 249.824 32.21 248.83 32.21ZM248.83 29.984C249.404 29.984 249.908 29.858 250.342 29.606C250.79 29.34 251.133 28.976 251.371 28.514C251.623 28.052 251.749 27.527 251.749 26.939C251.749 26.351 251.623 25.833 251.371 25.385C251.119 24.937 250.776 24.587 250.342 24.335C249.908 24.069 249.404 23.936 248.83 23.936C248.27 23.936 247.766 24.069 247.318 24.335C246.884 24.587 246.541 24.937 246.289 25.385C246.051 25.833 245.932 26.351 245.932 26.939C245.932 27.527 246.051 28.052 246.289 28.514C246.541 28.976 246.884 29.34 247.318 29.606C247.766 29.858 248.27 29.984 248.83 29.984ZM256.043 32V21.92H258.353V32H256.043ZM258.353 26.393L257.555 25.994C257.555 24.72 257.835 23.691 258.395 22.907C258.969 22.109 259.83 21.71 260.978 21.71C261.482 21.71 261.937 21.801 262.343 21.983C262.749 22.165 263.127 22.459 263.477 22.865L261.965 24.419C261.783 24.223 261.58 24.083 261.356 23.999C261.132 23.915 260.873 23.873 260.579 23.873C259.935 23.873 259.403 24.076 258.983 24.482C258.563 24.888 258.353 25.525 258.353 26.393ZM267.706 32.105L263.401 21.92H265.942L268.882 29.396H268.147L271.255 21.92H273.817L269.134 32.105H267.706ZM264.703 36.2L267.832 29.753L269.134 32.105L267.265 36.2H264.703Z" fill="white"/>
<defs>
<clipPath id="clip0_18_194">
<rect width="50" height="48" fill="white" transform="translate(0.5)"/>
</clipPath>
</defs>
</svg>
