<svg width="51" height="48" viewBox="0 0 51 48" fill="none" xmlns="http://www.w3.org/2000/svg">
<g clip-path="url(#clip0_18_195)">
<path d="M10.5108 11.6504L11.9838 22.778L2.354 17.0671C4.17986 14.2644 7.21339 12.2357 10.5108 11.6504Z" fill="white"/>
<path d="M26.4638 9.80469V11.4265H16.21C15.0383 12.3951 13.9137 13.5606 12.7192 14.4864C12.6457 14.5439 12.6251 14.6287 12.4987 14.5963L12.3135 12.6059L15.5484 9.80542H26.4638V9.80469Z" fill="white"/>
<path d="M26.464 3.24414H15.0708V4.93963H26.464V3.24414Z" fill="white"/>
<path d="M23.2298 6.48633H15.0708V8.18182H23.2298V6.48633Z" fill="white"/>
<path d="M21.6125 0V1.69549H20.0321L19.9219 1.58491V0.110575L20.0321 0H21.6125Z" fill="white"/>
<path d="M18.3786 0V1.58491L18.2683 1.69549H16.7982L16.688 1.58491V0.110575L16.7982 0H18.3786Z" fill="white"/>
<path d="M24.8471 0H23.23V1.69549H24.8471V0Z" fill="white"/>
<path d="M39.4462 2.45117C34.0605 2.45117 29.6943 6.82922 29.6943 12.2312C29.6943 17.6332 34.0605 22.0112 39.4462 22.0112C44.8319 22.0112 49.198 17.6324 49.198 12.2312C49.198 6.82995 44.8319 2.45117 39.4462 2.45117ZM32.0193 9.07242L33.4453 9.51177L33.005 11.0569L31.4643 10.5047L32.0193 9.07242ZM41.6947 20.029C36.5971 21.4945 31.6863 17.8108 31.3151 12.6049C31.5775 12.6057 32.7918 12.2902 32.8991 12.4538C32.9594 12.5467 33.0572 13.5338 33.116 13.7844C34.317 18.9033 41.003 20.4934 44.3967 16.4729C48.5144 11.5935 43.9182 4.32948 37.7673 5.91734C36.2781 6.30214 35.1498 7.21254 34.1347 8.32419L33.0109 7.32386C35.8849 3.48911 41.433 3.02911 44.9561 6.29624C49.5729 10.5777 47.6875 18.3069 41.6947 20.029ZM38.7949 13.0281C35.9929 12.672 35.9018 8.79082 38.6332 8.18634L38.6656 7.37104H40.2092C40.2665 7.4278 40.0996 8.07503 40.3194 8.18192H42.2673V9.80369H38.7758C38.4164 9.80369 38.1599 10.5062 38.24 10.8571C38.4237 11.6577 39.519 11.3672 40.0908 11.4336C42.8921 11.7579 42.9906 15.7084 40.243 16.2878L40.2092 17.1017H38.6656V16.2908H36.7177L36.6074 16.1802V14.7796L36.7177 14.669H40.0989C40.2378 14.669 40.5906 14.3336 40.6318 14.1714C40.9868 12.7796 39.5667 13.1261 38.7949 13.0281Z" fill="white"/>
<path d="M43.5085 31.4859L43.4857 43.8667C42.1736 44.1365 40.8395 44.32 39.5341 44.6215C35.742 45.4995 32.0212 47.2414 28.1681 47.8923C26.4863 48.1769 22.9242 47.9174 21.5372 46.8485C20.6559 46.1688 18.4787 43.6455 17.998 42.6577C17.3842 41.3964 17.3239 39.7415 16.8866 38.391C16.6587 37.6862 15.831 36.3792 16.1376 35.6804C16.3228 35.2587 17.0145 35.5027 17.3254 35.6657C18.4338 36.2466 19.091 37.7799 19.3335 38.9586L18.3831 40.0555L19.4534 41.1288L20.1399 40.5442L21.4431 42.3496L20.6618 44.0347L22.0084 44.7409L22.8654 43.0528C24.2664 43.2556 25.6189 43.675 26.9016 44.2699L27.8998 46.2234L29.3287 45.5216C28.8759 44.8994 28.5892 43.7391 28.1438 43.1715C27.9813 42.9651 27.6939 42.9319 27.4925 42.7933L29.2265 40.9983C31.5794 41.5726 33.7323 42.7558 36.133 43.1804C36.208 43.1664 36.5343 41.8969 36.5314 41.7547C36.5299 41.6905 36.5218 41.6456 36.4623 41.6117C34.3079 41.2637 32.3725 40.2125 30.2857 39.6596L30.8804 38.4124C31.5985 38.5944 32.274 38.8805 33.0047 39.0345C34.9444 39.4437 36.8115 39.336 38.7387 38.9232L38.3962 37.37C36.0948 37.9022 33.8323 37.8248 31.611 37.0036C31.8293 36.0446 32.1623 35.1224 32.3203 34.1449C32.6731 31.9673 32.5283 29.7757 31.9763 27.6445C33.7573 27.8686 35.6729 28.106 37.3804 28.6744C39.4701 29.3702 41.3709 30.8748 43.5077 31.4859H43.5085Z" fill="white"/>
<path d="M15.8053 40.7648C15.3745 40.4286 15.0335 39.9871 14.6306 39.6214C14.2653 39.2897 13.0591 38.442 12.8643 38.1493C12.6504 37.8272 12.5122 36.8585 12.3336 36.3963C11.9286 35.351 11.0164 33.9357 9.80875 33.7683C8.10344 33.5317 7.29857 34.5328 7.27505 36.1553C7.27064 36.47 7.3706 36.748 7.35517 37.0414C7.34929 37.1527 7.40736 37.2566 7.24344 37.2264C6.97 36.919 6.68187 36.5172 6.39887 36.2297C6.09677 35.9231 5.78585 35.6776 5.45949 35.4026C5.12136 34.1001 4.91114 32.7518 4.92658 31.4028L18.253 32.4938L27.6762 23.0742C32.6591 28.5846 31.7976 37.6783 25.8217 42.0806C25.2719 41.9819 24.7434 41.7976 24.1987 41.673C23.8099 41.5838 22.8764 41.5373 22.6397 41.3199C22.3508 41.053 21.2108 39.46 21.0373 39.0936C20.7021 38.3852 20.6139 37.4556 20.2288 36.661C19.3842 34.9205 16.6116 32.4945 14.9585 34.6448C13.7684 36.1929 15.0298 37.6539 15.4576 39.1607C15.6068 39.6878 15.6788 40.2333 15.8053 40.7648Z" fill="white"/>
<path d="M16.9819 18.7244C20.4734 18.4797 23.9325 19.5995 26.5346 21.9392L18.4888 30.0754L16.9819 18.7244Z" fill="white"/>
<path d="M15.2354 42.8849C15.3824 43.0228 16.3358 43.151 16.5754 43.3471C16.7232 43.468 17.5949 44.8826 17.8654 45.2232C18.5115 46.0363 19.301 46.7263 19.9221 47.546C18.8739 47.4753 17.9007 47.19 16.893 46.9357C16.2174 46.7654 15.5067 46.6084 14.8348 46.4196C13.5786 46.0673 13.4544 45.2092 12.7495 44.2354C10.781 41.5153 9.1566 40.4957 8.89786 36.7458C8.8714 36.3595 8.7435 35.3533 9.23451 35.3135C10.1555 35.2383 10.7686 36.6396 10.9927 37.3731C11.103 37.7328 11.2456 38.8371 11.3926 39.0362C11.5595 39.2625 12.3937 39.7851 12.6804 40.0299C13.4684 40.7022 14.3615 41.4688 14.9546 42.3195C15.0546 42.4625 15.1685 42.8215 15.2362 42.8842L15.2354 42.8849Z" fill="white"/>
<path d="M14.4095 30.5197L5.08398 29.7391C5.24128 28.8899 5.44269 28.051 5.73523 27.2371C5.84402 26.9349 6.091 26.2213 6.26006 25.995C6.30784 25.9301 6.33356 25.863 6.43279 25.8719L14.4095 30.5197Z" fill="white"/>
<path d="M12.2775 46.5888C11.4241 46.5703 10.6134 45.9224 9.96434 45.4078C8.10027 43.9291 6.74411 42.2579 5.45557 40.2727C5.06012 39.6638 4.22364 38.46 3.9796 37.8467C3.67235 37.0756 4.43386 36.6281 5.04027 37.0778C5.59597 37.7214 6.15387 38.3701 6.72794 38.9974C7.10575 39.4102 7.7989 39.9439 8.08924 40.3597C8.36121 40.7489 8.56996 41.3998 8.86692 41.865C9.66591 43.1167 10.8317 44.2247 11.677 45.4602C11.7821 45.6142 12.3834 46.487 12.2783 46.5888H12.2775Z" fill="white"/>
<path d="M3.44233 39.9705L5.1469 42.7562L1.04534 41.747C0.369838 41.534 0.306624 40.4968 0.938028 40.1931C1.16442 40.0847 3.29238 39.8835 3.44233 39.9705Z" fill="white"/>
<path d="M45.1343 30.9609V46.6995C45.1343 46.8366 45.6422 47.2524 45.7591 47.2524H50.5001V30.9609H45.1343ZM49.177 45.5569H47.5599V43.1979H49.177V45.5569Z" fill="white"/>
</g>
<defs>
<clipPath id="clip0_18_195">
<rect width="50" height="48" fill="white" transform="translate(0.5)"/>
</clipPath>
</defs>
</svg>
