<svg width="435" height="73" viewBox="0 0 435 73" fill="none" xmlns="http://www.w3.org/2000/svg">
<g filter="url(#filter0_i_1_2754)">
<path d="M105.88 73H80.36V40.11L65.4 73H40.65L25.58 40.11V73H0.28V0.289999H31.41L54.07 45.5L76.73 0.289999H105.88V73ZM200.443 73H116.403V0.289999H200.443V18.77H144.343V27.9H173.933V45.28H144.343V54.52H200.443V73ZM268.286 73H209.216V0.289999H268.286C288.856 0.289999 296.226 3.26 296.226 17.67V55.62C296.226 69.92 289.406 73 268.286 73ZM268.616 49.57V23.83C268.616 20.31 267.076 18.77 260.696 18.77H237.046V54.52H260.696C265.976 54.52 268.616 52.87 268.616 49.57ZM333.938 73H306.218V0.289999H333.938V73ZM404.96 73L401.44 62.44H373.94L370.53 73H340.06L369.54 0.289999H404.96L434.44 73H404.96ZM387.58 21.3L379.88 44.62H395.39L387.58 21.3Z" fill="white"/>
</g>
<defs>
<filter id="filter0_i_1_2754" x="0.279785" y="0.290039" width="434.16" height="76.71" filterUnits="userSpaceOnUse" color-interpolation-filters="sRGB">
<feFlood flood-opacity="0" result="BackgroundImageFix"/>
<feBlend mode="normal" in="SourceGraphic" in2="BackgroundImageFix" result="shape"/>
<feColorMatrix in="SourceAlpha" type="matrix" values="0 0 0 0 0 0 0 0 0 0 0 0 0 0 0 0 0 0 127 0" result="hardAlpha"/>
<feOffset dy="4"/>
<feGaussianBlur stdDeviation="3"/>
<feComposite in2="hardAlpha" operator="arithmetic" k2="-1" k3="1"/>
<feColorMatrix type="matrix" values="0 0 0 0 0.978271 0 0 0 0 0.595272 0 0 0 0 0.434506 0 0 0 1 0"/>
<feBlend mode="normal" in2="shape" result="effect1_innerShadow_1_2754"/>
</filter>
</defs>
</svg>
