<svg width="21" height="18" viewBox="0 0 21 18" fill="none" xmlns="http://www.w3.org/2000/svg">
<g id="Web3.0_x5F_05" clip-path="url(#clip0_1_3271)">
<path id="Vector" d="M20.5 1.75268C20.0906 3.68908 19.6783 5.62498 19.2725 7.56218C18.6496 10.5367 18.0353 13.5131 17.4088 16.4867C17.1666 17.636 16.4657 17.8905 15.5302 17.1886C14.0869 16.1057 12.6429 15.024 11.1866 13.9322C10.1159 14.756 9.36076 15.9486 8.17382 16.5855C8.13218 16.5503 8.09039 16.515 8.04875 16.4798C8.06374 16.1525 8.07304 15.8247 8.09465 15.4977C8.1694 14.3641 8.22618 13.2284 8.34304 12.0993C8.36828 11.8548 8.57378 11.5876 8.76571 11.4095C10.9816 9.35413 13.2108 7.3138 15.4366 5.26944C15.8664 4.87467 16.2985 4.48281 16.7239 4.0832C16.8237 3.98927 16.9004 3.86951 16.9877 3.76154C16.9608 3.70602 16.934 3.65066 16.907 3.59515C16.6774 3.67132 16.4216 3.70392 16.2224 3.83029C14.0716 5.19503 11.9302 6.57494 9.78548 7.94953C8.55643 8.73729 7.33116 9.53182 6.08996 10.2989C5.91727 10.4056 5.64017 10.4492 5.44886 10.3917C4.05878 9.97388 2.67233 9.54038 1.29929 9.06766C1.00247 8.96614 0.764799 8.68483 0.5 8.48616C0.5 8.45582 0.5 8.42547 0.5 8.39513C0.783883 8.14578 1.03512 7.8301 1.35922 7.66225C1.89749 7.38352 2.48213 7.19824 3.04816 6.97617C8.33579 4.90162 13.6229 2.82562 18.9121 0.755114C19.8286 0.396337 20.1601 0.5566 20.5 1.47977V1.75268Z" fill="white"/>
</g>
<defs>
<clipPath id="clip0_1_3271">
<rect width="20" height="17" fill="white" transform="translate(0.5 0.578125)"/>
</clipPath>
</defs>
</svg>
