<svg width="21" height="20" viewBox="0 0 21 20" fill="none" xmlns="http://www.w3.org/2000/svg">
<g id="Web3.0_x5F_05" clip-path="url(#clip0_1_3273)">
<path id="Vector" d="M20.43 19.4366C19.5283 18.2147 18.6266 16.9931 17.7249 15.7712C15.9794 13.4067 14.2352 11.0409 12.4855 8.67941C12.3859 8.54509 12.388 8.47033 12.5034 8.34995C12.8609 7.97656 13.2043 7.58924 13.5535 7.20741C15.1852 5.422 16.8169 3.63659 18.4482 1.85076C18.8224 1.44105 19.1949 1.02965 19.6016 0.582349C19.0491 0.582349 18.5453 0.588262 18.042 0.578547C17.8957 0.576013 17.8011 0.625854 17.7041 0.732294C15.7177 2.91347 13.7268 5.09001 11.7417 7.27245C11.6125 7.41437 11.5575 7.42409 11.4367 7.25894C9.83872 5.08029 8.23282 2.90798 6.63025 0.733139C6.56109 0.63937 6.4965 0.578125 6.36316 0.578125C4.48142 0.584038 2.59967 0.581926 0.717926 0.583616C0.675424 0.583616 0.620422 0.556584 0.585004 0.623742C0.615838 0.666403 0.647506 0.711598 0.680008 0.755525C1.67755 2.10715 2.67509 3.45877 3.67222 4.81039C5.17186 6.84374 6.67151 8.87708 8.1724 10.9092C8.23824 10.9987 8.28616 11.0553 8.18115 11.1698C6.23441 13.2927 4.29391 15.421 2.35174 17.5477C1.74922 18.2075 1.14628 18.8664 0.5 19.5735C1.04461 19.5735 1.52921 19.5655 2.01381 19.5777C2.19007 19.5823 2.30758 19.527 2.42675 19.3961C4.59517 17.0122 6.76901 14.6333 8.93993 12.2511C9.02619 12.1565 9.07244 12.1227 9.16661 12.2528C9.62205 12.8825 10.0887 13.5034 10.55 14.1286C11.8588 15.9026 13.1676 17.677 14.4739 19.4531C14.5381 19.5401 14.6064 19.5773 14.7164 19.5773C16.5911 19.5731 18.4662 19.5739 20.3408 19.5714C20.3921 19.5714 20.4517 19.5963 20.5 19.5393C20.4767 19.5051 20.4546 19.47 20.43 19.4366ZM17.7524 18.2556C16.9815 18.2582 16.2111 18.2527 15.4406 18.2603C15.2806 18.262 15.1785 18.2168 15.0798 18.0825C13.0772 15.3602 11.0692 12.6422 9.06244 9.9229C7.12236 7.294 5.18228 4.66509 3.2422 2.03576C3.21803 2.00324 3.1972 1.96818 3.14886 1.89511C3.92598 1.89511 4.66059 1.91539 5.39354 1.88624C5.73438 1.87273 5.93939 1.97705 6.1444 2.25751C8.22657 5.10437 10.3242 7.93897 12.418 10.777C14.2172 13.2145 16.0173 15.6517 17.817 18.0897C17.8491 18.1332 17.8799 18.1779 17.9103 18.2206C17.8632 18.2894 17.8024 18.2556 17.7524 18.2556Z" fill="#FEFEFE"/>
</g>
<defs>
<clipPath id="clip0_1_3273">
<rect width="20" height="19" fill="white" transform="translate(0.5 0.578125)"/>
</clipPath>
</defs>
</svg>
