<svg width="30" height="28" viewBox="0 0 30 28" fill="none" xmlns="http://www.w3.org/2000/svg">
<path id="Vector" d="M30.0006 11.3514C29.7686 12.1541 29.0564 12.5557 28.4756 13.0581C26.6876 14.6045 24.8849 16.1349 23.0828 17.6653C22.9424 17.7843 22.9248 17.8867 22.9642 18.0549C23.586 20.7004 24.199 23.3482 24.8162 25.9954C24.9777 26.6871 24.7686 27.3261 24.2255 27.694C23.6265 28.0996 23.0082 28.0927 22.3869 27.7306C20.0194 26.3501 17.65 24.9736 15.2865 23.5856C15.074 23.4609 14.9278 23.4643 14.7134 23.5902C12.3676 24.9684 10.0141 26.3346 7.66117 27.7026C6.91954 28.1339 6.15383 28.083 5.61772 27.5635C5.17204 27.1322 5.04168 26.6087 5.17967 26.0177C5.79153 23.3991 6.40104 20.7799 7.02171 18.1631C7.08043 17.9148 7.04109 17.7586 6.83498 17.5835C4.75043 15.8185 2.67585 14.0421 0.600104 12.2674C0.0739739 11.8177 -0.129197 11.2525 0.0827819 10.5997C0.292412 9.95147 0.772741 9.57788 1.47679 9.51323C2.93305 9.37935 4.3893 9.25292 5.84614 9.12419C7.18672 9.00576 8.5267 8.88333 9.86728 8.77348C10.081 8.75575 10.1597 8.64704 10.2337 8.47655C11.3124 6.00501 12.3999 3.53632 13.478 1.0642C13.7657 0.406264 14.246 0.00578149 14.9894 6.03138e-05C15.7463 -0.00566086 16.2372 0.395966 16.5291 1.06477C17.603 3.52831 18.6876 5.98784 19.7581 8.45252C19.8549 8.67565 19.9853 8.75975 20.2284 8.78035C22.5796 8.98002 24.9295 9.19113 27.2795 9.39881C27.6876 9.43485 28.0957 9.4686 28.5032 9.50808C29.2701 9.58303 29.7516 9.98751 29.9571 10.709C29.9642 10.7347 29.9865 10.7564 30.0017 10.7799V11.3509L30.0006 11.3514Z" fill="#FEC007"/>
</svg>
