<svg width="34" height="32" viewBox="0 0 34 32" fill="none" xmlns="http://www.w3.org/2000/svg">
<path d="M31.1737 9.33893C30.8372 10.8779 31.4755 12.2013 32.5771 13.4554C34.4634 15.6032 34.48 16.3959 32.5877 18.5307C31.471 19.792 31.0123 21.1183 31.1285 22.7658C31.3322 25.621 30.9459 26.1301 28.0712 26.807C26.369 27.2077 25.0818 28.0017 24.288 29.5045C24.2095 29.6535 24.1024 29.7909 24.0043 29.9298C22.7895 31.6495 21.875 31.9258 19.8439 31.1867C19.5149 31.0666 19.1799 30.9625 18.857 30.8294C17.6135 30.3131 16.3776 30.3188 15.1236 30.8164C14.4989 31.0637 13.8515 31.2633 13.2041 31.4557C12.0467 31.7985 11.1292 31.4253 10.4275 30.5257C10.0216 30.005 9.62317 29.4756 9.27609 28.9202C8.61513 27.8629 7.64784 27.2539 6.41646 26.9661C5.76003 26.8128 5.11265 26.6132 4.47433 26.3991C3.34255 26.0202 2.79175 25.2232 2.78572 24.0892C2.78119 23.3183 2.80232 22.5474 2.83401 21.7764C2.87475 20.7886 2.55031 19.9366 1.89237 19.1802C1.44267 18.6624 1.00204 18.1344 0.599123 17.5819C-0.193122 16.4971 -0.200667 15.5266 0.582523 14.4317C0.965819 13.8965 1.39589 13.3917 1.8305 12.8927C2.53975 12.0798 2.89588 11.1643 2.83099 10.0968C2.79175 9.4474 2.77516 8.79653 2.77817 8.14565C2.78572 6.65442 3.31539 5.94858 4.80028 5.46693C5.39485 5.27456 6.00299 5.12125 6.61113 4.97227C7.70669 4.70324 8.56986 4.14204 9.178 3.21345C9.57941 2.60308 10.0034 2.00427 10.4577 1.42861C11.1714 0.523165 12.1206 0.21653 13.26 0.547754C13.8832 0.728553 14.5079 0.920923 15.107 1.16681C16.4138 1.70342 17.6905 1.65135 18.9807 1.11908C19.533 0.891995 20.1095 0.711196 20.6859 0.546307C21.8237 0.220869 22.7744 0.514487 23.4867 1.42571C23.9379 2.00282 24.3619 2.60163 24.7724 3.20622C25.3911 4.1189 26.2362 4.70324 27.3363 4.97661C28.0651 5.15741 28.7925 5.35267 29.5017 5.59422C30.6275 5.97896 31.1647 6.78315 31.1707 7.92146C31.1722 8.35538 31.1707 8.7893 31.1707 9.34182L31.1737 9.33893Z" fill="#287FFA"/>
<path d="M14.4413 23.6327C14.307 23.5344 14.1833 23.4577 14.0746 23.3637C12.2879 21.8103 10.5088 20.2482 8.713 18.7034C8.42176 18.4532 8.40667 18.2868 8.67981 18.0178C9.20646 17.5015 9.71501 16.9663 10.2009 16.4138C10.4741 16.1028 10.6717 16.0941 10.9811 16.3762C11.8201 17.1384 12.7135 17.8457 13.5329 18.6253C13.9675 19.039 14.1848 18.9956 14.559 18.5501C16.9524 15.6978 19.3894 12.8788 21.7813 10.0251C22.1947 9.53183 22.4815 9.40021 22.99 9.88909C23.4503 10.3288 23.9799 10.7063 24.5021 11.0824C24.8084 11.3037 24.8491 11.4657 24.5881 11.7694C21.3059 15.6052 18.0373 19.4512 14.7642 23.2943C14.6707 23.4042 14.5651 23.504 14.4413 23.6327Z" fill="#FEFDFD"/>
</svg>
