<svg width="20" height="18" viewBox="0 0 20 18" fill="none" xmlns="http://www.w3.org/2000/svg">
<g id="Web3.0_x5F_05" clip-path="url(#clip0_1_2015)">
<path id="Vector" d="M20 1.67456C19.5906 3.61095 19.1783 5.54686 18.7725 7.48406C18.1496 10.4585 17.5353 13.4349 16.9088 16.4086C16.6666 17.5579 15.9657 17.8124 15.0302 17.1105C13.5869 16.0276 12.1429 14.9459 10.6866 13.8541C9.61589 14.6778 8.86076 15.8705 7.67382 16.5074C7.63218 16.4722 7.59039 16.4368 7.54875 16.4017C7.56374 16.0744 7.57304 15.7466 7.59465 15.4196C7.6694 14.286 7.72618 13.1502 7.84304 12.0211C7.86828 11.7766 8.07378 11.5095 8.26571 11.3313C10.4816 9.276 12.7108 7.23567 14.9366 5.19131C15.3664 4.79654 15.7985 4.40468 16.2239 4.00507C16.3237 3.91114 16.4004 3.79139 16.4877 3.68342C16.4608 3.6279 16.434 3.57254 16.407 3.51702C16.1774 3.5932 15.9216 3.6258 15.7224 3.75217C13.5716 5.11691 11.4302 6.49682 9.28548 7.8714C8.05643 8.65916 6.83116 9.4537 5.58996 10.2208C5.41727 10.3275 5.14017 10.3711 4.94886 10.3136C3.55878 9.89575 2.17233 9.46225 0.799287 8.98953C0.502472 8.88802 0.264799 8.60671 0 8.40803C0 8.37769 0 8.34735 0 8.31701C0.283883 8.06766 0.535119 7.75197 0.859218 7.58412C1.39749 7.3054 1.98213 7.12012 2.54816 6.89804C7.83579 4.8235 13.1229 2.7475 18.4121 0.676989C19.3286 0.318212 19.6601 0.478475 20 1.40164V1.67456Z" fill="white"/>
</g>
<defs>
<clipPath id="clip0_1_2015">
<rect width="20" height="17" fill="white" transform="translate(0 0.5)"/>
</clipPath>
</defs>
</svg>
