<svg width="47" height="38" viewBox="0 0 47 38" fill="none" xmlns="http://www.w3.org/2000/svg">
<path d="M46.4325 18.1241C46.2466 19.7431 44.5404 21.6456 42.8046 21.6456H41.0581V28.7325C41.0581 30.1904 39.5496 31.6976 38.1714 32.0585C35.1688 32.8447 33.8751 30.5566 31.7709 29.0556C28.161 26.4805 23.9069 24.983 19.4785 24.4539L19.5261 8.26048C24.6661 7.73138 29.1286 5.75937 33.1276 2.6279C34.575 1.49487 35.2668 0.338954 37.4284 0.518549C39.095 0.657647 41.0581 2.27224 41.0581 3.99423V11.0812H42.8046C44.5323 11.0812 46.2475 12.9889 46.4325 14.6026C46.5224 15.3826 46.5224 17.3441 46.4325 18.1241ZM42.7148 13.7223C42.2638 13.6307 41.5441 13.7892 41.0572 13.7223V19.0045H42.7148C43.0787 19.0045 43.615 18.3785 43.7031 18.0387C43.8037 17.6496 43.8118 15.1661 43.7246 14.7549C43.6429 14.3685 43.1002 13.8006 42.7148 13.7223Z" fill="white"/>
<path d="M0.567871 14.6011C0.652324 13.8651 1.16174 12.843 1.68463 12.3095C2.93076 11.0365 4.50482 11.0277 6.19748 11.0656C6.5865 10.032 7.45439 9.12174 8.50826 8.71501C8.67717 8.64986 9.35459 8.43945 9.48217 8.43945L16.7829 8.43945V24.286H9.39232C9.25397 24.286 8.43818 23.992 8.254 23.9084C7.29088 23.4708 6.57033 22.6265 6.19748 21.6599C4.81658 21.6564 3.57764 21.7418 2.36744 20.9776C1.45463 20.401 0.690059 19.1861 0.567871 18.1244C0.478027 17.3443 0.478027 15.3829 0.567871 14.6029V14.6011ZM5.94232 13.7208H4.28471C3.95498 13.7208 3.34584 14.418 3.27486 14.7534C3.18771 15.1646 3.1958 17.649 3.29643 18.0372C3.38447 18.377 3.92084 19.003 4.28471 19.003H5.94232L5.94232 13.7208Z" fill="white"/>
<path d="M16.7814 26.9279V33.9268C16.7814 35.8037 14.6216 37.4808 12.7968 37.4993C10.9344 37.5187 8.71973 35.8425 8.71973 33.9268V26.8398L16.7823 26.9279H16.7814Z" fill="white"/>
</svg>
