<svg width="277" height="191" viewBox="0 0 277 191" fill="none" xmlns="http://www.w3.org/2000/svg">
<rect width="277" height="191" rx="4" fill="#FF8E54"/>
<g clip-path="url(#clip0_1_2271)">
<path d="M85.0018 85.5703C86.6096 91.5524 86.5924 97.4831 85.0018 103.465C85.5091 101.354 93.1181 101.525 94.0037 103.465C95.7748 106.388 95.749 109.481 94.0037 112.413C96.007 121.181 95.9296 130.47 94.0037 139.246C95.792 156.466 95.7576 173.78 94.0037 191.008H85.0018V112.413H76V85.5789C78.992 85.5703 82.0098 85.596 85.0018 85.5789V85.5703Z" fill="black"/>
<path d="M94.0039 139.246C94.5112 137.135 102.12 137.306 103.006 139.246C103.504 139.306 104.261 139.468 104.295 139.827C104.442 141.665 104.76 155.534 104.295 156.21C103.969 156.68 103.582 157.013 103.006 157.141C103.513 155.03 111.122 155.201 112.008 157.141C114.131 157.645 113.959 165.208 112.008 166.089C115.051 164.508 117.966 164.49 121.009 166.089V191.008H94.0125C93.9867 173.763 94.0469 156.492 94.0125 139.246H94.0039Z" fill="#DEB17D"/>
<path d="M175.003 121.352C174.985 133.265 175.114 145.221 175.003 157.133C172.011 157.168 168.993 157.133 166.001 157.133C166.035 145.212 165.975 133.265 166.001 121.344H175.003V121.352Z" fill="#AA6F29"/>
<path d="M175.004 76.623C175.038 79.597 175.004 82.5965 175.004 85.5705C174.496 87.6813 166.887 87.5104 166.002 85.5705C165.512 87.6727 157.92 87.5275 157 85.5705C157 82.5965 157 79.597 157 76.623H175.004Z" fill="#AA6F29"/>
<path d="M175.003 85.5703C175.003 88.5442 174.995 91.5438 175.003 94.5177C172.011 94.5177 168.994 94.5177 166.002 94.5177C163.878 94.0135 164.05 86.4505 166.002 85.5703H175.003Z" fill="#D69E5E"/>
<path d="M94.0039 112.404H103.006V121.352H112.008V139.247H121.009V157.141C135.995 157.107 151.024 157.184 166.01 157.141C166.01 160.115 166.044 163.115 166.01 166.089C163.018 166.149 160 166.046 157.008 166.089C157.008 169.063 157.025 172.062 157.008 175.036C148.024 175.122 138.996 174.976 130.011 175.036V166.089C127.019 166.08 124.001 166.106 121.009 166.089C118.017 166.072 115 166.097 112.008 166.089V157.141H103.006V139.247H94.0039C93.9867 130.316 94.0899 121.343 94.0039 112.413V112.404Z" fill="#AA6F29"/>
<path d="M166.002 85.5703V94.5177C163.01 94.5177 159.992 94.5177 157 94.5177C157 91.5438 157 88.5442 157 85.5703H166.002Z" fill="black"/>
<path d="M85.0016 85.5706C87.9936 85.5535 91.0114 85.5792 94.0035 85.5706V67.6758H175.003C175.029 70.6497 174.968 73.6493 175.003 76.6232L174.418 77.9051H158.366C158.323 80.5201 157.893 83.1009 156.999 85.5706C158.005 88.2625 158.547 91.0143 157.73 93.7917C160.524 92.9798 163.301 93.5182 166.001 94.518C168.984 93.2704 172.019 93.2618 175.003 94.518C175.029 103.457 175.011 112.421 175.003 121.352L174.444 122.634H167.299C167.746 134.179 167.308 145.69 166.001 157.141C151.075 159.03 135.935 158.979 121 157.141C120.502 157.082 119.762 156.936 119.711 156.56C119.332 153.723 119.281 142.947 119.711 140.178L121 139.247C120.493 141.357 112.884 141.187 111.999 139.247C111.5 139.187 110.76 139.042 110.709 138.666C110.331 135.828 110.279 125.052 110.709 122.283L111.999 121.352C111.491 123.463 103.882 123.292 102.997 121.352C100.873 120.848 101.045 113.285 102.997 112.404C102.489 114.515 94.8804 114.344 93.9949 112.404C93.9691 109.43 94.0121 106.431 93.9949 103.457H84.993C84.9844 97.5005 85.0102 91.5185 84.993 85.5621L85.0016 85.5706Z" fill="#DEB17D"/>
<path d="M156.999 139.246H130.002V148.194H156.999V139.246Z" fill="black"/>
<path d="M111.99 85.5705V76.623H130.011V85.5705C129.495 87.6813 121.886 87.5104 121.001 85.5705C120.502 87.6727 112.91 87.5275 111.99 85.5705Z" fill="#AA6F29"/>
<path d="M157.008 112.404H139.004V121.352H157.008V112.404Z" fill="black"/>
<path d="M121.001 85.5703C123.116 86.066 122.97 93.6119 121.001 94.5263H111.99V85.5703H121.001Z" fill="black"/>
<path d="M130.01 85.5703H121V94.5263H130.01V85.5703Z" fill="#D69E5E"/>
<path d="M102.997 22.9474C103.032 19.9735 102.971 16.9739 102.997 14H166.002C166.01 16.9739 165.984 19.9735 166.002 22.9474C148.127 24.7848 129.865 24.8873 111.999 22.9474C109.059 24.6993 105.946 24.6737 102.997 22.9474C104.743 25.8786 104.777 28.9722 102.997 31.8948C100.057 33.6638 96.9445 33.6296 93.9954 31.8948C95.5688 34.92 95.586 37.8171 93.9954 40.8423C95.6032 46.8243 95.586 52.7551 93.9954 58.7371C94.0556 58.2415 94.2104 57.498 94.5801 57.4552C97.3142 57.1476 108.629 56.9938 111.062 57.4552L111.999 58.7371C109.875 58.2329 110.047 50.6699 111.999 49.7897C114.94 48.0293 118.052 48.0549 121.001 49.7897C123.116 50.2768 122.97 57.8227 121.001 58.7371L121.448 57.4552H192.216L192.998 58.7371C191.735 55.7717 191.735 52.7551 192.998 49.7897C195.991 49.8153 199.008 49.7726 202 49.7897V67.6845H183.997V157.142C181.005 157.167 177.987 157.107 174.995 157.142C174.969 160.116 175.012 163.115 174.995 166.089C172.003 166.132 168.985 166.021 165.993 166.089C165.959 169.063 166.01 172.063 165.993 175.036C163.001 175.054 159.983 175.002 156.991 175.036C156.974 178.01 157 181.01 156.991 183.984H129.994C129.642 183.984 130.252 190.154 129.994 191.017H120.992C120.494 191.017 119.737 190.906 119.703 190.59C119.144 184.864 119.084 172.516 119.703 166.85L120.992 166.098C124.036 164.517 126.951 164.5 129.994 166.098C132.118 166.602 131.946 174.165 129.994 175.045C138.755 173.037 148.221 173.156 156.991 175.045C155.891 172.567 154.816 167.499 156.183 165.457C156.897 164.388 164.592 164.397 165.984 166.098C164.248 163.166 164.222 160.073 165.984 157.15C168.925 155.398 172.037 155.424 174.986 157.15C173.112 145.374 173.009 133.128 174.986 121.369C173.404 112.43 173.413 103.474 174.986 94.5353C173.722 91.57 173.731 88.5533 174.986 85.5879C173.224 82.6653 173.249 79.5717 174.986 76.6405C173.206 73.7178 173.232 70.6243 174.986 67.6931L174.539 68.9749H94.7864L94.004 67.6931C94.5113 67.7529 95.2593 67.9153 95.2937 68.2742C95.6376 72.8462 95.6376 80.0759 95.2937 84.6564L94.004 85.5879C90.9604 87.186 88.0458 87.1689 85.0022 85.5879C84.9506 67.7016 85.0452 49.7897 85.0022 31.9119C87.9942 31.8948 91.012 31.9461 94.004 31.9119C94.0384 28.938 93.9868 25.9384 94.004 22.9645C96.996 22.9474 100.014 22.9987 103.006 22.9645L102.997 22.9474Z" fill="black"/>
<path d="M175.003 31.8944C177.995 31.9115 181.013 31.8858 184.005 31.8944V40.8418H193.007V49.7892C169.079 51.524 144.937 51.524 121.009 49.7892C118.722 50.2251 119.402 41.2434 120.046 40.9956C120.347 40.8845 120.674 40.8503 121.009 40.8418L121.603 39.5599H174.238L175.012 40.8418C173.748 37.8764 173.748 34.8598 175.012 31.8944H175.003Z" fill="black"/>
<path d="M166.001 22.9475C168.993 22.9732 172.011 22.9304 175.003 22.9475V31.8949C172.707 33.0401 166.62 33.9716 165.262 32.6213C163.903 31.2711 164.849 25.2207 165.992 22.9475H166.001Z" fill="black"/>
<path d="M166.001 22.9488C166.018 25.9227 165.993 28.9223 166.001 31.8962C168.993 31.8962 172.011 31.8791 175.003 31.8962C175.003 34.8701 175.003 37.8697 175.003 40.8436H121C120.553 40.8436 121 48.8083 121 49.7911C118.008 49.8167 114.991 49.774 111.999 49.7911V58.7385H93.995C93.9864 52.7821 94.0122 46.8 93.995 40.8436L94.5538 39.5618H101.699C101.337 36.7588 101.767 34.195 102.997 31.8962C105.318 30.6742 107.889 30.2469 110.718 30.6058V23.8376L111.999 22.9402C129.977 22.889 148.023 22.7693 166.001 22.9402V22.9488Z" fill="#515151"/>
<path d="M193.006 49.7824C193.006 52.7564 193.006 55.7559 193.006 58.7298H121V49.7824C144.962 49.5517 169.044 49.5517 192.998 49.7824H193.006Z" fill="#353535"/>
<path d="M111.999 22.9488V31.8962C109.007 31.9133 105.99 31.862 102.998 31.8962C102.963 34.8701 103.015 37.8697 102.998 40.8436H93.9958C93.9958 37.8697 93.9614 34.8701 93.9958 31.8962C96.9878 31.862 100.006 31.9304 102.998 31.8962C103.032 28.9223 102.963 25.9227 102.998 22.9488C105.99 22.9146 109.007 22.9488 111.999 22.9488Z" fill="#353535"/>
</g>
<defs>
<clipPath id="clip0_1_2271">
<rect width="126" height="177" fill="white" transform="translate(76 14)"/>
</clipPath>
</defs>
</svg>
