<svg width="81" height="114" viewBox="0 0 81 114" fill="none" xmlns="http://www.w3.org/2000/svg">
<g id="Layer_1" clip-path="url(#clip0_1_4443)">
<path id="Vector" d="M5.7869 46.0957C6.82047 49.9485 6.80942 53.7684 5.7869 57.6212C6.113 56.2617 11.0045 56.3718 11.5738 57.6212C12.7124 59.5036 12.6958 61.4961 11.5738 63.3839C12.8616 69.0311 12.8119 75.014 11.5738 80.6667C12.7234 91.7573 12.7013 102.909 11.5738 114.005H5.7869V63.3839H0V46.1012C1.92344 46.0957 3.86346 46.1122 5.7869 46.1012V46.0957Z" fill="black"/>
<path id="Vector_2" d="M11.5737 80.6682C11.8998 79.3087 16.7913 79.4188 17.3606 80.6682C17.6812 80.7068 18.1676 80.8113 18.1897 81.0425C18.2837 82.2259 18.4882 91.159 18.1897 91.5938C17.9797 91.8965 17.7309 92.1112 17.3606 92.1937C17.6867 90.8342 22.5782 90.9443 23.1475 92.1937C24.5127 92.5185 24.4022 97.3896 23.1475 97.9565C25.1041 96.9382 26.9778 96.9272 28.9344 97.9565V114.006H11.5793C11.5627 102.899 11.6014 91.7754 11.5793 80.6682H11.5737Z" fill="#DEB17D"/>
<path id="Vector_3" d="M63.6447 69.1422C63.6336 76.8149 63.7165 84.5151 63.6447 92.1877C61.7212 92.2097 59.7812 92.1877 57.8578 92.1877C57.8799 84.5096 57.8412 76.8149 57.8578 69.1367H63.6447V69.1422Z" fill="#AA6F29"/>
<path id="Vector_4" d="M63.6451 40.334C63.6672 42.2494 63.6451 44.1813 63.6451 46.0967C63.319 47.4562 58.4275 47.3462 57.8582 46.0967C57.5431 47.4507 52.6627 47.3572 52.0713 46.0967C52.0713 44.1813 52.0713 42.2494 52.0713 40.334H63.6451Z" fill="#AA6F29"/>
<path id="Vector_5" d="M63.6448 46.0957C63.6448 48.0111 63.6393 49.943 63.6448 51.8584C61.7213 51.8584 59.7813 51.8584 57.8579 51.8584C56.4927 51.5337 56.6032 46.6626 57.8579 46.0957H63.6448Z" fill="#D69E5E"/>
<path id="Vector_6" d="M11.5735 63.3789H17.3604V69.1417H23.1473V80.6671H28.9342V92.1926C38.568 92.1706 48.2294 92.2202 57.8632 92.1926C57.8632 94.108 57.8853 96.04 57.8632 97.9554C55.9398 97.9939 53.9997 97.9279 52.0763 97.9554C52.0763 99.8708 52.0874 101.803 52.0763 103.718C46.3005 103.773 40.497 103.68 34.7211 103.718V97.9554C32.7977 97.9499 30.8577 97.9664 28.9342 97.9554C27.0108 97.9444 25.0708 97.9609 23.1473 97.9554V92.1926H17.3604V80.6671H11.5735C11.5625 74.9154 11.6288 69.1361 11.5735 63.3844V63.3789Z" fill="#AA6F29"/>
<path id="Vector_7" d="M57.8577 46.0957V51.8584C55.9343 51.8584 53.9942 51.8584 52.0708 51.8584C52.0708 49.943 52.0708 48.0111 52.0708 46.0957H57.8577Z" fill="black"/>
<path id="Vector_8" d="M5.78696 46.0958C7.7104 46.0848 9.65042 46.1013 11.5739 46.0958V34.5703H63.6449C63.6615 36.4857 63.6228 38.4176 63.6449 40.3331L63.269 41.1587H52.9499C52.9223 42.8429 52.6459 44.5051 52.0711 46.0958C52.7178 47.8296 53.066 49.6019 52.5409 51.3907C54.3372 50.8678 56.1225 51.2146 57.858 51.8586C59.7759 51.055 61.727 51.0495 63.6449 51.8586C63.6615 57.6158 63.6504 63.3896 63.6449 69.1413L63.2856 69.9669H58.6926C58.98 77.4029 58.6981 84.8168 57.858 92.1923C48.2629 93.4087 38.5296 93.3757 28.929 92.1923C28.6085 92.1538 28.1331 92.0602 28.1 91.818C27.8568 89.9907 27.8236 83.05 28.1 81.2667L28.929 80.6668C28.6029 82.0263 23.7114 81.9162 23.1421 80.6668C22.8216 80.6283 22.3462 80.5347 22.3131 80.2925C22.0699 78.4652 22.0367 71.5245 22.3131 69.7412L23.1421 69.1413C22.816 70.5008 17.9245 70.3907 17.3552 69.1413C15.99 68.8166 16.1006 63.9455 17.3552 63.3785C17.0291 64.738 12.1376 64.628 11.5683 63.3785C11.5518 61.4631 11.5794 59.5312 11.5683 57.6158H5.78144C5.77591 53.7795 5.79249 49.9266 5.78144 46.0903L5.78696 46.0958Z" fill="#DEB17D"/>
<path id="Vector_9" d="M52.071 80.668H34.7158V86.4307H52.071V80.668Z" fill="black"/>
<path id="Vector_10" d="M23.1367 46.0967V40.334H34.7216V46.0967C34.3899 47.4562 29.4984 47.3462 28.9291 46.0967C28.6086 47.4507 23.7281 47.3572 23.1367 46.0967Z" fill="#AA6F29"/>
<path id="Vector_11" d="M52.0767 63.3789H40.5029V69.1417H52.0767V63.3789Z" fill="black"/>
<path id="Vector_12" d="M28.9291 46.0957C30.2888 46.4149 30.1949 51.275 28.9291 51.864H23.1367V46.0957H28.9291Z" fill="black"/>
<path id="Vector_13" d="M34.7216 46.0957H28.9292V51.864H34.7216V46.0957Z" fill="#D69E5E"/>
<path id="Vector_14" d="M17.3553 5.76275C17.3774 3.84734 17.3387 1.91541 17.3553 0H57.8581C57.8636 1.91541 57.847 3.84734 57.8581 5.76275C46.3672 6.94612 34.6276 7.01217 23.1422 5.76275C21.2519 6.89108 19.2511 6.87457 17.3553 5.76275C18.4773 7.65064 18.4994 9.64311 17.3553 11.5255C15.465 12.6648 13.4642 12.6428 11.5684 11.5255C12.5799 13.4739 12.5909 15.3398 11.5684 17.2882C12.602 21.1411 12.5909 24.9609 11.5684 28.8137C11.6071 28.4945 11.7066 28.0156 11.9443 27.9881C13.7019 27.79 20.9756 27.6909 22.5398 27.9881L23.1422 28.8137C21.777 28.489 21.8876 23.6179 23.1422 23.051C25.0325 21.9172 27.0333 21.9337 28.9291 23.051C30.2888 23.3647 30.1948 28.2248 28.9291 28.8137L29.2165 27.9881H74.7103L75.2132 28.8137C74.4008 26.9038 74.4008 24.9609 75.2132 23.051C77.1367 23.0675 79.0767 23.04 81.0002 23.051V34.5765H69.4263V92.1929C67.5029 92.2094 65.5629 92.1709 63.6395 92.1929C63.6229 94.1083 63.6505 96.0403 63.6395 97.9557C61.716 97.9832 59.776 97.9116 57.8526 97.9557C57.8304 99.8711 57.8636 101.803 57.8526 103.718C55.9291 103.729 53.9891 103.696 52.0657 103.718C52.0546 105.634 52.0712 107.566 52.0657 109.481H34.7105C34.4839 109.481 34.8763 113.455 34.7105 114.011H28.9236C28.603 114.011 28.1166 113.939 28.0945 113.736C27.7353 110.048 27.6966 102.095 28.0945 98.4455L28.9236 97.9612C30.8802 96.9429 32.7539 96.9319 34.7105 97.9612C36.0757 98.2859 35.9651 103.157 34.7105 103.724C40.3426 102.43 46.428 102.508 52.0657 103.724C51.3582 102.128 50.6673 98.8638 51.5461 97.5484C52.0049 96.8604 56.9516 96.8659 57.847 97.9612C56.7305 96.0733 56.714 94.0808 57.847 92.1984C59.7373 91.0701 61.7381 91.0866 63.6339 92.1984C62.429 84.6138 62.3627 76.7265 63.6339 69.153C62.6169 63.3957 62.6225 57.6275 63.6339 51.8702C62.8214 49.9603 62.827 48.0174 63.6339 46.1075C62.5009 44.2251 62.5174 42.2326 63.6339 40.3447C62.4898 38.4623 62.5064 36.4699 63.6339 34.582L63.3465 35.4076H12.0769L11.5739 34.582C11.9 34.6205 12.3809 34.7251 12.403 34.9563C12.6241 37.9009 12.6241 42.5574 12.403 45.5075L11.5739 46.1075C9.61734 47.1367 7.74365 47.1257 5.78705 46.1075C5.75389 34.5875 5.81468 23.051 5.78705 11.5365C7.71049 11.5255 9.65051 11.5585 11.5739 11.5365C11.5961 9.62109 11.5629 7.68917 11.5739 5.77375C13.4974 5.76275 15.4374 5.79577 17.3608 5.77375L17.3553 5.76275Z" fill="black"/>
<path id="Vector_15" d="M63.6448 11.5246C65.5683 11.5356 67.5083 11.5191 69.4317 11.5246V17.2873H75.2186V23.0501C59.8366 24.1674 44.3165 24.1674 28.9345 23.0501C27.4643 23.3308 27.9009 17.546 28.3154 17.3864C28.5089 17.3149 28.7189 17.2928 28.9345 17.2873L29.3159 16.4617H63.1529L63.6504 17.2873C62.8379 15.3774 62.8379 13.4345 63.6504 11.5246H63.6448Z" fill="black"/>
<path id="Vector_16" d="M57.8581 5.76245C59.7816 5.77896 61.7216 5.75144 63.645 5.76245V11.5252C62.1693 12.2627 58.2561 12.8627 57.3828 11.993C56.5095 11.1234 57.1175 7.22653 57.8526 5.76245H57.8581Z" fill="black"/>
<path id="Vector_17" d="M57.8577 5.76184C57.8688 7.67726 57.8522 9.60918 57.8577 11.5246C59.7812 11.5246 61.7212 11.5136 63.6446 11.5246C63.6446 13.44 63.6446 15.3719 63.6446 17.2873H28.9288C28.6413 17.2873 28.9288 22.4171 28.9288 23.0501C27.0053 23.0666 25.0653 23.0391 23.1419 23.0501V28.8128H11.5681C11.5625 24.9765 11.5791 21.1237 11.5681 17.2873L11.9273 16.4617H16.5204C16.2882 14.6564 16.5646 13.0052 17.355 11.5246C18.8473 10.7375 20.4999 10.4623 22.3183 10.6935V6.33427L23.1419 5.75634C34.6991 5.72332 46.3005 5.64626 57.8577 5.75634V5.76184Z" fill="#515151"/>
<path id="Vector_18" d="M75.2184 23.0451C75.2184 24.9605 75.2184 26.8924 75.2184 28.8078H28.9287V23.0451C44.3328 22.8964 59.8143 22.8964 75.2128 23.0451H75.2184Z" fill="#353535"/>
<path id="Vector_19" d="M23.1422 5.76369V11.5264C21.2188 11.5374 19.2788 11.5044 17.3553 11.5264C17.3332 13.4418 17.3664 15.3738 17.3553 17.2892H11.5684C11.5684 15.3738 11.5463 13.4418 11.5684 11.5264C13.4919 11.5044 15.4319 11.5485 17.3553 11.5264C17.3774 9.61103 17.3332 7.6791 17.3553 5.76369C19.2788 5.74168 21.2188 5.76369 23.1422 5.76369Z" fill="#353535"/>
</g>
<defs>
<clipPath id="clip0_1_4443">
<rect width="81" height="114" fill="white"/>
</clipPath>
</defs>
</svg>
